%TF.GenerationSoftware,KiCad,Pcbnew,8.0.4*%
%TF.CreationDate,2025-01-16T20:27:34-05:00*%
%TF.ProjectId,eclipseControlPCB,65636c69-7073-4654-936f-6e74726f6c50,rev?*%
%TF.SameCoordinates,Original*%
%TF.FileFunction,Soldermask,Top*%
%TF.FilePolarity,Negative*%
%FSLAX46Y46*%
G04 Gerber Fmt 4.6, Leading zero omitted, Abs format (unit mm)*
G04 Created by KiCad (PCBNEW 8.0.4) date 2025-01-16 20:27:34*
%MOMM*%
%LPD*%
G01*
G04 APERTURE LIST*
G04 Aperture macros list*
%AMRoundRect*
0 Rectangle with rounded corners*
0 $1 Rounding radius*
0 $2 $3 $4 $5 $6 $7 $8 $9 X,Y pos of 4 corners*
0 Add a 4 corners polygon primitive as box body*
4,1,4,$2,$3,$4,$5,$6,$7,$8,$9,$2,$3,0*
0 Add four circle primitives for the rounded corners*
1,1,$1+$1,$2,$3*
1,1,$1+$1,$4,$5*
1,1,$1+$1,$6,$7*
1,1,$1+$1,$8,$9*
0 Add four rect primitives between the rounded corners*
20,1,$1+$1,$2,$3,$4,$5,0*
20,1,$1+$1,$4,$5,$6,$7,0*
20,1,$1+$1,$6,$7,$8,$9,0*
20,1,$1+$1,$8,$9,$2,$3,0*%
G04 Aperture macros list end*
%ADD10RoundRect,0.250000X-0.350000X-0.450000X0.350000X-0.450000X0.350000X0.450000X-0.350000X0.450000X0*%
%ADD11R,1.700000X1.700000*%
%ADD12O,1.700000X1.700000*%
%ADD13RoundRect,0.237500X-0.300000X-0.237500X0.300000X-0.237500X0.300000X0.237500X-0.300000X0.237500X0*%
%ADD14RoundRect,0.250000X0.450000X-0.350000X0.450000X0.350000X-0.450000X0.350000X-0.450000X-0.350000X0*%
%ADD15RoundRect,0.250000X0.475000X-0.337500X0.475000X0.337500X-0.475000X0.337500X-0.475000X-0.337500X0*%
%ADD16RoundRect,0.250000X-0.450000X0.350000X-0.450000X-0.350000X0.450000X-0.350000X0.450000X0.350000X0*%
%ADD17RoundRect,0.250000X-0.337500X-0.475000X0.337500X-0.475000X0.337500X0.475000X-0.337500X0.475000X0*%
%ADD18RoundRect,0.250001X0.462499X0.624999X-0.462499X0.624999X-0.462499X-0.624999X0.462499X-0.624999X0*%
%ADD19RoundRect,0.250000X-0.475000X0.337500X-0.475000X-0.337500X0.475000X-0.337500X0.475000X0.337500X0*%
%ADD20RoundRect,0.250000X0.350000X0.450000X-0.350000X0.450000X-0.350000X-0.450000X0.350000X-0.450000X0*%
%ADD21C,2.200000*%
%ADD22R,2.160000X1.120000*%
%ADD23RoundRect,0.250000X0.337500X0.475000X-0.337500X0.475000X-0.337500X-0.475000X0.337500X-0.475000X0*%
%ADD24R,1.600000X1.600000*%
%ADD25O,1.600000X1.600000*%
%ADD26R,1.980000X3.960000*%
%ADD27O,1.980000X3.960000*%
%ADD28RoundRect,0.237500X0.250000X0.237500X-0.250000X0.237500X-0.250000X-0.237500X0.250000X-0.237500X0*%
%ADD29RoundRect,0.102000X0.654000X-0.654000X0.654000X0.654000X-0.654000X0.654000X-0.654000X-0.654000X0*%
%ADD30C,1.512000*%
G04 APERTURE END LIST*
D10*
%TO.C,R6*%
X30977500Y-32185400D03*
X32977500Y-32185400D03*
%TD*%
D11*
%TO.C,J12*%
X26000000Y-34525000D03*
D12*
X26000000Y-31985000D03*
X26000000Y-29445000D03*
%TD*%
D11*
%TO.C,J3*%
X88000000Y-56525000D03*
D12*
X88000000Y-53985000D03*
X88000000Y-51445000D03*
%TD*%
D13*
%TO.C,D1*%
X31188300Y-59901200D03*
X32913300Y-59901200D03*
%TD*%
D14*
%TO.C,R15*%
X53010000Y-53021600D03*
X53010000Y-51021600D03*
%TD*%
D11*
%TO.C,J8*%
X75000000Y-53525000D03*
D12*
X75000000Y-50985000D03*
X75000000Y-48445000D03*
%TD*%
D15*
%TO.C,C4*%
X56566000Y-45845500D03*
X56566000Y-43770500D03*
%TD*%
D16*
%TO.C,R14*%
X53000000Y-56000000D03*
X53000000Y-58000000D03*
%TD*%
D11*
%TO.C,J2*%
X26000000Y-56525000D03*
D12*
X26000000Y-53985000D03*
X26000000Y-51445000D03*
%TD*%
D11*
%TO.C,J10*%
X88000000Y-78555000D03*
D12*
X88000000Y-76015000D03*
X88000000Y-73475000D03*
%TD*%
D17*
%TO.C,C9*%
X30925000Y-28985000D03*
X33000000Y-28985000D03*
%TD*%
D10*
%TO.C,R8*%
X30942700Y-43200400D03*
X32942700Y-43200400D03*
%TD*%
D11*
%TO.C,J6*%
X26000000Y-45540000D03*
D12*
X26000000Y-43000000D03*
X26000000Y-40460000D03*
%TD*%
D18*
%TO.C,F1*%
X75487500Y-59000000D03*
X72512500Y-59000000D03*
%TD*%
D19*
%TO.C,C3*%
X49606400Y-38131700D03*
X49606400Y-40206700D03*
%TD*%
D16*
%TO.C,R9*%
X37295400Y-28942700D03*
X37295400Y-30942700D03*
%TD*%
D20*
%TO.C,R13*%
X82976800Y-30000000D03*
X80976800Y-30000000D03*
%TD*%
%TO.C,R4*%
X82898400Y-58200400D03*
X80898400Y-58200400D03*
%TD*%
D11*
%TO.C,J15*%
X88000000Y-34080000D03*
D12*
X88000000Y-31540000D03*
X88000000Y-29000000D03*
%TD*%
D14*
%TO.C,R5*%
X49555600Y-55460000D03*
X49555600Y-53460000D03*
%TD*%
D11*
%TO.C,J5*%
X26000000Y-67540000D03*
D12*
X26000000Y-65000000D03*
X26000000Y-62460000D03*
%TD*%
D21*
%TO.C,H1*%
X26000000Y-102000000D03*
%TD*%
D15*
%TO.C,C5*%
X53010000Y-45845500D03*
X53010000Y-43770500D03*
%TD*%
D14*
%TO.C,R16*%
X56000000Y-60540000D03*
X56000000Y-58540000D03*
%TD*%
D22*
%TO.C,SW1*%
X32000000Y-70190000D03*
X32000000Y-72730000D03*
X32000000Y-75270000D03*
X32000000Y-77810000D03*
X38730000Y-77810000D03*
X38730000Y-75270000D03*
X38730000Y-72730000D03*
X38730000Y-70190000D03*
%TD*%
D15*
%TO.C,C6*%
X49606400Y-45816200D03*
X49606400Y-43741200D03*
%TD*%
D23*
%TO.C,C12*%
X83000000Y-27000000D03*
X80925000Y-27000000D03*
%TD*%
D21*
%TO.C,H3*%
X26000000Y-24000000D03*
%TD*%
D14*
%TO.C,R10*%
X56000000Y-50583200D03*
X56000000Y-48583200D03*
%TD*%
D21*
%TO.C,H4*%
X88000000Y-102000000D03*
%TD*%
D11*
%TO.C,J11*%
X26000000Y-78525000D03*
D12*
X26000000Y-75985000D03*
X26000000Y-73445000D03*
%TD*%
D14*
%TO.C,R12*%
X53010000Y-63283200D03*
X53010000Y-61283200D03*
%TD*%
D10*
%TO.C,R3*%
X30977500Y-54149600D03*
X32977500Y-54149600D03*
%TD*%
D11*
%TO.C,J4*%
X34920000Y-24000000D03*
D12*
X37460000Y-24000000D03*
X40000000Y-24000000D03*
%TD*%
D24*
%TO.C,A1*%
X45390000Y-38254800D03*
D25*
X45390000Y-40794800D03*
X45390000Y-43334800D03*
X45390000Y-45874800D03*
X45390000Y-48414800D03*
X45390000Y-50954800D03*
X45390000Y-53494800D03*
X45390000Y-56034800D03*
X45390000Y-58574800D03*
X45390000Y-61114800D03*
X45390000Y-63654800D03*
X45390000Y-66194800D03*
X45390000Y-68734800D03*
X45390000Y-71274800D03*
X45390000Y-73814800D03*
X60630000Y-73814800D03*
X60630000Y-71274800D03*
X60630000Y-68734800D03*
X60630000Y-66194800D03*
X60630000Y-63654800D03*
X60630000Y-61114800D03*
X60630000Y-58574800D03*
X60630000Y-56034800D03*
X60630000Y-53494800D03*
X60630000Y-50954800D03*
X60630000Y-48414800D03*
X60630000Y-45874800D03*
X60630000Y-43334800D03*
X60630000Y-40794800D03*
X60630000Y-38254800D03*
%TD*%
D17*
%TO.C,C10*%
X30925000Y-40000000D03*
X33000000Y-40000000D03*
%TD*%
D26*
%TO.C,J9*%
X73235000Y-76000000D03*
D27*
X78235000Y-76000000D03*
%TD*%
D28*
%TO.C,R2*%
X38934700Y-62901200D03*
X37109700Y-62901200D03*
%TD*%
D19*
%TO.C,C1*%
X56566000Y-38233300D03*
X56566000Y-40308300D03*
%TD*%
D13*
%TO.C,D2*%
X31137500Y-63000000D03*
X32862500Y-63000000D03*
%TD*%
D19*
%TO.C,C2*%
X53010000Y-38182500D03*
X53010000Y-40257500D03*
%TD*%
D20*
%TO.C,R7*%
X83037500Y-50251200D03*
X81037500Y-50251200D03*
%TD*%
D28*
%TO.C,R1*%
X38925700Y-59700800D03*
X37100700Y-59700800D03*
%TD*%
D14*
%TO.C,R11*%
X49352400Y-65823200D03*
X49352400Y-63823200D03*
%TD*%
D11*
%TO.C,J7*%
X88000000Y-45540000D03*
D12*
X88000000Y-43000000D03*
X88000000Y-40460000D03*
%TD*%
D21*
%TO.C,H2*%
X88000000Y-24000000D03*
%TD*%
D19*
%TO.C,C13*%
X40445000Y-28925000D03*
X40445000Y-31000000D03*
%TD*%
D29*
%TO.C,SW2*%
X73460000Y-66000000D03*
D30*
X78540000Y-66000000D03*
%TD*%
D11*
%TO.C,J1*%
X88000000Y-67555000D03*
D12*
X88000000Y-65015000D03*
X88000000Y-62475000D03*
%TD*%
D23*
%TO.C,C11*%
X83075000Y-47000000D03*
X81000000Y-47000000D03*
%TD*%
%TO.C,C8*%
X83000000Y-55000000D03*
X80925000Y-55000000D03*
%TD*%
D17*
%TO.C,C7*%
X30925000Y-51000000D03*
X33000000Y-51000000D03*
%TD*%
D11*
%TO.C,J16*%
X80540000Y-37000000D03*
D12*
X80540000Y-39540000D03*
X78000000Y-37000000D03*
X78000000Y-39540000D03*
X75460000Y-37000000D03*
X75460000Y-39540000D03*
X72920000Y-37000000D03*
X72920000Y-39540000D03*
X70380000Y-37000000D03*
X70380000Y-39540000D03*
%TD*%
M02*
