%TF.GenerationSoftware,KiCad,Pcbnew,8.0.4*%
%TF.CreationDate,2025-01-16T20:27:33-05:00*%
%TF.ProjectId,eclipseControlPCB,65636c69-7073-4654-936f-6e74726f6c50,rev?*%
%TF.SameCoordinates,Original*%
%TF.FileFunction,Copper,L2,Bot*%
%TF.FilePolarity,Positive*%
%FSLAX46Y46*%
G04 Gerber Fmt 4.6, Leading zero omitted, Abs format (unit mm)*
G04 Created by KiCad (PCBNEW 8.0.4) date 2025-01-16 20:27:33*
%MOMM*%
%LPD*%
G01*
G04 APERTURE LIST*
%TA.AperFunction,ComponentPad*%
%ADD10R,1.700000X1.700000*%
%TD*%
%TA.AperFunction,ComponentPad*%
%ADD11O,1.700000X1.700000*%
%TD*%
%TA.AperFunction,ComponentPad*%
%ADD12R,1.600000X1.600000*%
%TD*%
%TA.AperFunction,ComponentPad*%
%ADD13O,1.600000X1.600000*%
%TD*%
%TA.AperFunction,ComponentPad*%
%ADD14R,1.980000X3.960000*%
%TD*%
%TA.AperFunction,ComponentPad*%
%ADD15O,1.980000X3.960000*%
%TD*%
%TA.AperFunction,ComponentPad*%
%ADD16R,1.308000X1.308000*%
%TD*%
%TA.AperFunction,ComponentPad*%
%ADD17C,1.308000*%
%TD*%
%TA.AperFunction,ViaPad*%
%ADD18C,0.600000*%
%TD*%
%TA.AperFunction,ViaPad*%
%ADD19C,1.200000*%
%TD*%
%TA.AperFunction,Conductor*%
%ADD20C,0.400000*%
%TD*%
%TA.AperFunction,Conductor*%
%ADD21C,0.800000*%
%TD*%
G04 APERTURE END LIST*
D10*
%TO.P,J12,1,Pin_1*%
%TO.N,ArduinoVIN*%
X26000000Y-34525000D03*
D11*
%TO.P,J12,2,Pin_2*%
%TO.N,DIST_CL_INT*%
X26000000Y-31985000D03*
%TO.P,J12,3,Pin_3*%
%TO.N,Net-(J12-Pin_3)*%
X26000000Y-29445000D03*
%TD*%
D10*
%TO.P,J3,1,Pin_1*%
%TO.N,ArduinoVIN*%
X88000000Y-56525000D03*
D11*
%TO.P,J3,2,Pin_2*%
%TO.N,DIST_R_INT*%
X88000000Y-53985000D03*
%TO.P,J3,3,Pin_3*%
%TO.N,Net-(J3-Pin_3)*%
X88000000Y-51445000D03*
%TD*%
D10*
%TO.P,J8,1,Pin_1*%
%TO.N,Arduino5V*%
X75000000Y-53525000D03*
D11*
%TO.P,J8,2,Pin_2*%
%TO.N,GND*%
X75000000Y-50985000D03*
%TO.P,J8,3,Pin_3*%
%TO.N,START_SIGNAL*%
X75000000Y-48445000D03*
%TD*%
D10*
%TO.P,J2,1,Pin_1*%
%TO.N,ArduinoVIN*%
X26000000Y-56525000D03*
D11*
%TO.P,J2,2,Pin_2*%
%TO.N,DIST_L_INT*%
X26000000Y-53985000D03*
%TO.P,J2,3,Pin_3*%
%TO.N,Net-(J2-Pin_3)*%
X26000000Y-51445000D03*
%TD*%
D10*
%TO.P,J10,1,Pin_1*%
%TO.N,Arduino5V*%
X88000000Y-78555000D03*
D11*
%TO.P,J10,2,Pin_2*%
%TO.N,RB_INT*%
X88000000Y-76015000D03*
%TO.P,J10,3,Pin_3*%
%TO.N,GND*%
X88000000Y-73475000D03*
%TD*%
D10*
%TO.P,J6,1,Pin_1*%
%TO.N,ArduinoVIN*%
X26000000Y-45540000D03*
D11*
%TO.P,J6,2,Pin_2*%
%TO.N,DIST_LM_INT*%
X26000000Y-43000000D03*
%TO.P,J6,3,Pin_3*%
%TO.N,Net-(J6-Pin_3)*%
X26000000Y-40460000D03*
%TD*%
D10*
%TO.P,J15,1,Pin_1*%
%TO.N,ArduinoVIN*%
X88000000Y-34080000D03*
D11*
%TO.P,J15,2,Pin_2*%
%TO.N,DIST_CR_INT*%
X88000000Y-31540000D03*
%TO.P,J15,3,Pin_3*%
%TO.N,Net-(J15-Pin_3)*%
X88000000Y-29000000D03*
%TD*%
D10*
%TO.P,J5,1,Pin_1*%
%TO.N,Arduino5V*%
X26000000Y-67540000D03*
D11*
%TO.P,J5,2,Pin_2*%
%TO.N,LF_INT*%
X26000000Y-65000000D03*
%TO.P,J5,3,Pin_3*%
%TO.N,GND*%
X26000000Y-62460000D03*
%TD*%
D10*
%TO.P,J11,1,Pin_1*%
%TO.N,Arduino5V*%
X26000000Y-78525000D03*
D11*
%TO.P,J11,2,Pin_2*%
%TO.N,LB_INT*%
X26000000Y-75985000D03*
%TO.P,J11,3,Pin_3*%
%TO.N,GND*%
X26000000Y-73445000D03*
%TD*%
D10*
%TO.P,J4,1,Pin_1*%
%TO.N,ArduinoVIN*%
X34920000Y-24000000D03*
D11*
%TO.P,J4,2,Pin_2*%
%TO.N,DIST_C_INT*%
X37460000Y-24000000D03*
%TO.P,J4,3,Pin_3*%
%TO.N,Net-(J4-Pin_3)*%
X40000000Y-24000000D03*
%TD*%
D12*
%TO.P,A1,1,D1/TX*%
%TO.N,PS4*%
X45390000Y-38254800D03*
D13*
%TO.P,A1,2,D0/RX*%
%TO.N,PS3*%
X45390000Y-40794800D03*
%TO.P,A1,3,~{RESET}*%
%TO.N,unconnected-(A1-~{RESET}-Pad3)*%
X45390000Y-43334800D03*
%TO.P,A1,4,GND*%
%TO.N,GND*%
X45390000Y-45874800D03*
%TO.P,A1,5,D2*%
%TO.N,ODIST_RM_INT*%
X45390000Y-48414800D03*
%TO.P,A1,6,D3*%
%TO.N,ODIST_LM_INT*%
X45390000Y-50954800D03*
%TO.P,A1,7,D4*%
%TO.N,ODIST_R_INT*%
X45390000Y-53494800D03*
%TO.P,A1,8,D5*%
%TO.N,ODIST_CR_INT*%
X45390000Y-56034800D03*
%TO.P,A1,9,D6*%
%TO.N,ODIST_C_INT*%
X45390000Y-58574800D03*
%TO.P,A1,10,D7*%
%TO.N,ODIST_CL_INT*%
X45390000Y-61114800D03*
%TO.P,A1,11,D8*%
%TO.N,ODIST_L_INT*%
X45390000Y-63654800D03*
%TO.P,A1,12,D9*%
%TO.N,MDC2_1*%
X45390000Y-66194800D03*
%TO.P,A1,13,D10*%
%TO.N,MDC1PWM*%
X45390000Y-68734800D03*
%TO.P,A1,14,D11*%
%TO.N,MDC2PWM*%
X45390000Y-71274800D03*
%TO.P,A1,15,D12*%
%TO.N,MDC1_1*%
X45390000Y-73814800D03*
%TO.P,A1,16,D13*%
%TO.N,START_SIGNAL*%
X60630000Y-73814800D03*
%TO.P,A1,17,3V3*%
%TO.N,unconnected-(A1-3V3-Pad17)*%
X60630000Y-71274800D03*
%TO.P,A1,18,AREF*%
%TO.N,unconnected-(A1-AREF-Pad18)*%
X60630000Y-68734800D03*
%TO.P,A1,19,A0*%
%TO.N,MDC1_2*%
X60630000Y-66194800D03*
%TO.P,A1,20,A1*%
%TO.N,MDC2_2*%
X60630000Y-63654800D03*
%TO.P,A1,21,A2*%
%TO.N,LB_INT*%
X60630000Y-61114800D03*
%TO.P,A1,22,A3*%
%TO.N,LF_INT*%
X60630000Y-58574800D03*
%TO.P,A1,23,A4*%
%TO.N,RB_INT*%
X60630000Y-56034800D03*
%TO.P,A1,24,A5*%
%TO.N,RF_INT*%
X60630000Y-53494800D03*
%TO.P,A1,25,A6*%
%TO.N,PS2*%
X60630000Y-50954800D03*
%TO.P,A1,26,A7*%
%TO.N,PS1*%
X60630000Y-48414800D03*
%TO.P,A1,27,+5V*%
%TO.N,Arduino5V*%
X60630000Y-45874800D03*
%TO.P,A1,28,~{RESET}*%
%TO.N,unconnected-(A1-~{RESET}-Pad28)*%
X60630000Y-43334800D03*
%TO.P,A1,29,GND*%
%TO.N,GND*%
X60630000Y-40794800D03*
%TO.P,A1,30,VIN*%
%TO.N,ArduinoVIN*%
X60630000Y-38254800D03*
%TD*%
D14*
%TO.P,J9,1,Pin_1*%
%TO.N,GND*%
X73235000Y-76000000D03*
D15*
%TO.P,J9,2,Pin_2*%
%TO.N,Net-(J9-Pin_2)*%
X78235000Y-76000000D03*
%TD*%
D10*
%TO.P,J7,1,Pin_1*%
%TO.N,ArduinoVIN*%
X88000000Y-45540000D03*
D11*
%TO.P,J7,2,Pin_2*%
%TO.N,DIST_RM_INT*%
X88000000Y-43000000D03*
%TO.P,J7,3,Pin_3*%
%TO.N,Net-(J7-Pin_3)*%
X88000000Y-40460000D03*
%TD*%
D16*
%TO.P,SW2,1,A*%
%TO.N,Net-(SW2-A)*%
X73460000Y-66000000D03*
D17*
%TO.P,SW2,3,B*%
%TO.N,Net-(J9-Pin_2)*%
X78540000Y-66000000D03*
%TD*%
D10*
%TO.P,J1,1,Pin_1*%
%TO.N,Arduino5V*%
X88000000Y-67555000D03*
D11*
%TO.P,J1,2,Pin_2*%
%TO.N,RF_INT*%
X88000000Y-65015000D03*
%TO.P,J1,3,Pin_3*%
%TO.N,GND*%
X88000000Y-62475000D03*
%TD*%
D10*
%TO.P,J16,1,Pin_1*%
%TO.N,GND*%
X80540000Y-37000000D03*
D11*
%TO.P,J16,2,Pin_2*%
%TO.N,unconnected-(J16-Pin_2-Pad2)*%
X80540000Y-39540000D03*
%TO.P,J16,3,Pin_3*%
%TO.N,MDC1_2*%
X78000000Y-37000000D03*
%TO.P,J16,4,Pin_4*%
%TO.N,MDC2_2*%
X78000000Y-39540000D03*
%TO.P,J16,5,Pin_5*%
%TO.N,MDC1_1*%
X75460000Y-37000000D03*
%TO.P,J16,6,Pin_6*%
%TO.N,MDC2_1*%
X75460000Y-39540000D03*
%TO.P,J16,7,Pin_7*%
%TO.N,MDC1PWM*%
X72920000Y-37000000D03*
%TO.P,J16,8,Pin_8*%
%TO.N,MDC2PWM*%
X72920000Y-39540000D03*
%TO.P,J16,9,Pin_9*%
%TO.N,Arduino5V*%
X70380000Y-37000000D03*
%TO.P,J16,10,Pin_10*%
%TO.N,unconnected-(J16-Pin_10-Pad10)*%
X70380000Y-39540000D03*
%TD*%
D18*
%TO.N,ODIST_CR_INT*%
X40000000Y-52000000D03*
X39000000Y-49000000D03*
X39500000Y-36500000D03*
%TO.N,GND*%
X54485640Y-58184428D03*
X90002113Y-83538960D03*
X51391268Y-54874169D03*
X48000000Y-42000000D03*
X55960481Y-56693012D03*
X27723057Y-81714582D03*
X63000000Y-68000000D03*
X54615977Y-66088704D03*
X51000000Y-42000000D03*
X58000000Y-42000000D03*
X58000000Y-48000000D03*
X47457337Y-55857652D03*
X90000000Y-82000000D03*
X48766771Y-60399426D03*
X50813406Y-60399426D03*
X56000000Y-55000000D03*
X50815316Y-58348723D03*
X56338016Y-63661983D03*
X63000000Y-70000000D03*
X55000000Y-42000000D03*
X56000000Y-53000000D03*
X47562254Y-52206011D03*
X47481324Y-54802207D03*
X54613232Y-61547863D03*
X24507355Y-81714582D03*
X48786379Y-58317021D03*
%TO.N,ODIST_L_INT*%
X35000000Y-55000000D03*
%TO.N,ODIST_RM_INT*%
X43000000Y-37000000D03*
%TO.N,ODIST_C_INT*%
X38000000Y-33000000D03*
X35000000Y-49000000D03*
X37000000Y-47000000D03*
%TO.N,ODIST_LM_INT*%
X35000000Y-44000000D03*
%TO.N,ODIST_CL_INT*%
X35000000Y-33000000D03*
X36000000Y-46000000D03*
X34000000Y-48000000D03*
%TO.N,ODIST_R_INT*%
X42000000Y-49000000D03*
X67500000Y-42500000D03*
X41000000Y-37554800D03*
X70000000Y-53000000D03*
%TO.N,Arduino5V*%
X29000000Y-64000000D03*
X63000000Y-39000000D03*
X72000000Y-47000000D03*
%TO.N,LB_INT*%
X43000000Y-66000000D03*
%TO.N,RF_INT*%
X81000000Y-63000000D03*
X71000000Y-57000000D03*
%TO.N,MDC2_1*%
X68000000Y-75000000D03*
X69000000Y-46000000D03*
X74000000Y-45000000D03*
%TO.N,MDC1_2*%
X64733545Y-63483125D03*
X78904183Y-63348917D03*
X72244155Y-63525252D03*
X82000000Y-59685297D03*
%TO.N,MDC1_1*%
X84000000Y-60000000D03*
X83000000Y-38000000D03*
X83000000Y-64000000D03*
X83000000Y-80000000D03*
%TO.N,PS4*%
X35000000Y-77000000D03*
X35000000Y-41000000D03*
%TO.N,PS2*%
X57000000Y-69000000D03*
X43000000Y-72000000D03*
%TO.N,RB_INT*%
X63000000Y-63000000D03*
X75000000Y-69000000D03*
X80000000Y-69000000D03*
%TO.N,LF_INT*%
X43000000Y-62954800D03*
%TO.N,MDC2_2*%
X79000000Y-54000000D03*
X73000000Y-61000000D03*
X78000000Y-58000000D03*
X78000000Y-56000000D03*
X76000000Y-64000000D03*
%TO.N,PS3*%
X36000000Y-75000000D03*
X33000000Y-47000000D03*
%TO.N,PS1*%
X57000000Y-66000000D03*
X43000000Y-69000000D03*
%TO.N,START_SIGNAL*%
X68000000Y-52000000D03*
D19*
%TO.N,ArduinoVIN*%
X64000000Y-58000000D03*
X48000000Y-37000000D03*
X30000000Y-57000000D03*
D18*
%TO.N,MDC2PWM*%
X70000000Y-79000000D03*
%TO.N,MDC1PWM*%
X67000000Y-71000000D03*
X66000000Y-68000000D03*
X67000000Y-38000000D03*
X67000000Y-78000000D03*
%TD*%
D20*
%TO.N,ODIST_CR_INT*%
X39500000Y-36500000D02*
X39000000Y-37000000D01*
X39000000Y-37000000D02*
X39000000Y-49000000D01*
X40000000Y-52000000D02*
X44034800Y-56034800D01*
X44034800Y-56034800D02*
X45390000Y-56034800D01*
%TO.N,GND*%
X52017161Y-61547803D02*
X54602066Y-61547803D01*
X47457337Y-55857652D02*
X47457337Y-56987979D01*
X48786379Y-58317021D02*
X52017161Y-61547803D01*
X47457337Y-56987979D02*
X48786379Y-58317021D01*
%TO.N,ODIST_L_INT*%
X35000000Y-55000000D02*
X35000000Y-59000000D01*
X39654800Y-63654800D02*
X45390000Y-63654800D01*
X35000000Y-59000000D02*
X39654800Y-63654800D01*
%TO.N,ODIST_RM_INT*%
X43000000Y-46024800D02*
X45390000Y-48414800D01*
X43000000Y-37000000D02*
X43000000Y-46024800D01*
%TO.N,ODIST_C_INT*%
X35000000Y-49000000D02*
X43000000Y-57000000D01*
X43000000Y-57000000D02*
X43815200Y-57000000D01*
X43815200Y-57000000D02*
X45390000Y-58574800D01*
X38000000Y-46000000D02*
X37000000Y-47000000D01*
X38000000Y-33000000D02*
X38000000Y-46000000D01*
%TO.N,ODIST_LM_INT*%
X38954800Y-50954800D02*
X45390000Y-50954800D01*
X35000000Y-47000000D02*
X38954800Y-50954800D01*
X35000000Y-44000000D02*
X35000000Y-47000000D01*
%TO.N,ODIST_CL_INT*%
X34000000Y-49724800D02*
X45390000Y-61114800D01*
X35000000Y-38000000D02*
X36000000Y-39000000D01*
X35000000Y-33000000D02*
X35000000Y-38000000D01*
X34000000Y-48000000D02*
X34000000Y-49724800D01*
X36000000Y-39000000D02*
X36000000Y-46000000D01*
%TO.N,ODIST_R_INT*%
X41000000Y-48000000D02*
X42000000Y-49000000D01*
X41000000Y-37554800D02*
X41000000Y-48000000D01*
X67500000Y-42500000D02*
X70000000Y-45000000D01*
X70000000Y-45000000D02*
X70000000Y-53000000D01*
%TO.N,Arduino5V*%
X79000000Y-58600463D02*
X85000000Y-64600463D01*
X29000000Y-74000000D02*
X26000000Y-71000000D01*
X88000000Y-67555000D02*
X88000000Y-68000000D01*
X73000000Y-51525000D02*
X75000000Y-53525000D01*
X85000000Y-64600463D02*
X85000000Y-66000000D01*
X79000000Y-55000000D02*
X79000000Y-58600463D01*
X72000000Y-47000000D02*
X73000000Y-48000000D01*
X77525000Y-53525000D02*
X79000000Y-55000000D01*
X26000000Y-67000000D02*
X29000000Y-64000000D01*
X69380000Y-36000000D02*
X70380000Y-37000000D01*
X86555000Y-67555000D02*
X88000000Y-67555000D01*
X63000000Y-39000000D02*
X66000000Y-36000000D01*
X85000000Y-75555000D02*
X88000000Y-78555000D01*
X85000000Y-66000000D02*
X86555000Y-67555000D01*
X85000000Y-71000000D02*
X85000000Y-75555000D01*
X66000000Y-36000000D02*
X69380000Y-36000000D01*
X26000000Y-71000000D02*
X26000000Y-67540000D01*
X29000000Y-75525000D02*
X29000000Y-74000000D01*
X26000000Y-67540000D02*
X26000000Y-67000000D01*
X75000000Y-53525000D02*
X77525000Y-53525000D01*
X88000000Y-68000000D02*
X85000000Y-71000000D01*
X26000000Y-78525000D02*
X29000000Y-75525000D01*
X73000000Y-48000000D02*
X73000000Y-51525000D01*
%TO.N,LB_INT*%
X44005200Y-64994800D02*
X56750000Y-64994800D01*
X43000000Y-66000000D02*
X44005200Y-64994800D01*
X56750000Y-64994800D02*
X60630000Y-61114800D01*
%TO.N,RF_INT*%
X81000000Y-63000000D02*
X78000000Y-60000000D01*
X78000000Y-60000000D02*
X74000000Y-60000000D01*
X74000000Y-60000000D02*
X71000000Y-57000000D01*
%TO.N,MDC2_1*%
X69000000Y-74000000D02*
X69000000Y-46000000D01*
X74000000Y-45000000D02*
X75460000Y-43540000D01*
X68000000Y-75000000D02*
X69000000Y-74000000D01*
X75460000Y-43540000D02*
X75460000Y-39540000D01*
%TO.N,MDC1_2*%
X77086578Y-65166522D02*
X78904183Y-63348917D01*
X75730158Y-65166522D02*
X77086578Y-65166522D01*
X72244155Y-63525252D02*
X72732467Y-64013564D01*
X74577200Y-64013564D02*
X75730158Y-65166522D01*
X60630000Y-66194800D02*
X62021870Y-66194800D01*
X81000000Y-35000000D02*
X82000000Y-36000000D01*
X72732467Y-64013564D02*
X74577200Y-64013564D01*
X79000000Y-35000000D02*
X81000000Y-35000000D01*
X82000000Y-36000000D02*
X82000000Y-59685297D01*
X62021870Y-66194800D02*
X64733545Y-63483125D01*
X78000000Y-36000000D02*
X79000000Y-35000000D01*
X78000000Y-37000000D02*
X78000000Y-36000000D01*
%TO.N,MDC1_1*%
X83000000Y-38000000D02*
X83000000Y-59000000D01*
X83000000Y-80000000D02*
X83000000Y-64000000D01*
X83000000Y-59000000D02*
X84000000Y-60000000D01*
%TO.N,PS4*%
X35000000Y-77000000D02*
X32000000Y-74000000D01*
X32000000Y-74000000D02*
X32000000Y-46000000D01*
X35000000Y-43000000D02*
X35000000Y-41000000D01*
X32000000Y-46000000D02*
X35000000Y-43000000D01*
%TO.N,PS2*%
X43000000Y-71967743D02*
X43000000Y-72000000D01*
X56065200Y-69934800D02*
X45032943Y-69934800D01*
X57000000Y-69000000D02*
X56065200Y-69934800D01*
X45032943Y-69934800D02*
X43000000Y-71967743D01*
%TO.N,RB_INT*%
X63000000Y-63000000D02*
X63000000Y-58404800D01*
X80000000Y-69000000D02*
X75000000Y-69000000D01*
X63000000Y-58404800D02*
X60630000Y-56034800D01*
%TO.N,LF_INT*%
X56750000Y-62454800D02*
X60630000Y-58574800D01*
X43500000Y-62454800D02*
X56750000Y-62454800D01*
X43000000Y-62954800D02*
X43500000Y-62454800D01*
%TO.N,MDC2_2*%
X78000000Y-58000000D02*
X78000000Y-56000000D01*
X79000000Y-54000000D02*
X79000000Y-40540000D01*
X79000000Y-40540000D02*
X78000000Y-39540000D01*
X73000000Y-61000000D02*
X76000000Y-64000000D01*
%TO.N,PS3*%
X33000000Y-72000000D02*
X33000000Y-47000000D01*
X36000000Y-75000000D02*
X33000000Y-72000000D01*
%TO.N,PS1*%
X43000000Y-69000000D02*
X44605200Y-67394800D01*
X44605200Y-67394800D02*
X55605200Y-67394800D01*
X55605200Y-67394800D02*
X57000000Y-66000000D01*
%TO.N,START_SIGNAL*%
X62185200Y-73814800D02*
X60630000Y-73814800D01*
X68000000Y-52000000D02*
X68000000Y-68000000D01*
X68000000Y-68000000D02*
X62185200Y-73814800D01*
D21*
%TO.N,ArduinoVIN*%
X26000000Y-56525000D02*
X29525000Y-56525000D01*
X88000000Y-35000000D02*
X85000000Y-38000000D01*
X29000000Y-48540000D02*
X29000000Y-53525000D01*
X64804800Y-34080000D02*
X60630000Y-38254800D01*
X34920000Y-26920000D02*
X34920000Y-24000000D01*
X26000000Y-45540000D02*
X29000000Y-48540000D01*
X29000000Y-27000000D02*
X29000000Y-31525000D01*
X32000000Y-24000000D02*
X29000000Y-27000000D01*
X85000000Y-38000000D02*
X85000000Y-42540000D01*
X34920000Y-24000000D02*
X32000000Y-24000000D01*
X26000000Y-34525000D02*
X26000000Y-35000000D01*
X64000000Y-41624800D02*
X60630000Y-38254800D01*
X29000000Y-42540000D02*
X26000000Y-45540000D01*
X88000000Y-34080000D02*
X88000000Y-35000000D01*
X85000000Y-50000000D02*
X85000000Y-53525000D01*
X46000000Y-35000000D02*
X43000000Y-35000000D01*
X29000000Y-38000000D02*
X29000000Y-42540000D01*
X85000000Y-42540000D02*
X88000000Y-45540000D01*
X64000000Y-58000000D02*
X64000000Y-41624800D01*
X88000000Y-47000000D02*
X85000000Y-50000000D01*
X88000000Y-34080000D02*
X64804800Y-34080000D01*
X29000000Y-53525000D02*
X26000000Y-56525000D01*
X29525000Y-56525000D02*
X30000000Y-57000000D01*
X48000000Y-37000000D02*
X46000000Y-35000000D01*
X43000000Y-35000000D02*
X34920000Y-26920000D01*
X85000000Y-53525000D02*
X88000000Y-56525000D01*
X88000000Y-45540000D02*
X88000000Y-47000000D01*
X29000000Y-31525000D02*
X26000000Y-34525000D01*
X26000000Y-35000000D02*
X29000000Y-38000000D01*
D20*
%TO.N,MDC2PWM*%
X72000000Y-52000000D02*
X71000000Y-51000000D01*
X72000000Y-54000000D02*
X72000000Y-52000000D01*
X70000000Y-79000000D02*
X70000000Y-56000000D01*
X70000000Y-56000000D02*
X72000000Y-54000000D01*
X71000000Y-51000000D02*
X71000000Y-41460000D01*
X71000000Y-41460000D02*
X72920000Y-39540000D01*
%TO.N,MDC1PWM*%
X66000000Y-68000000D02*
X66000000Y-39000000D01*
X66000000Y-39000000D02*
X67000000Y-38000000D01*
X67000000Y-78000000D02*
X67000000Y-71000000D01*
%TD*%
%TA.AperFunction,Conductor*%
%TO.N,GND*%
G36*
X43442539Y-20520185D02*
G01*
X43488294Y-20572989D01*
X43499500Y-20624500D01*
X43499500Y-32934108D01*
X43499500Y-33065892D01*
X43516554Y-33129539D01*
X43533608Y-33193187D01*
X43555557Y-33231203D01*
X43599500Y-33307314D01*
X43692686Y-33400500D01*
X43806814Y-33466392D01*
X43934108Y-33500500D01*
X63811439Y-33500500D01*
X63878478Y-33520185D01*
X63924233Y-33572989D01*
X63934177Y-33642147D01*
X63905152Y-33705703D01*
X63899120Y-33712181D01*
X60696945Y-36914353D01*
X60635622Y-36947838D01*
X60620072Y-36950200D01*
X60403312Y-36969164D01*
X60403302Y-36969166D01*
X60183511Y-37028058D01*
X60183502Y-37028061D01*
X59977267Y-37124231D01*
X59977265Y-37124232D01*
X59790858Y-37254754D01*
X59629954Y-37415658D01*
X59499432Y-37602065D01*
X59499431Y-37602067D01*
X59403261Y-37808302D01*
X59403258Y-37808311D01*
X59344366Y-38028102D01*
X59344364Y-38028113D01*
X59324532Y-38254798D01*
X59324532Y-38254801D01*
X59344364Y-38481486D01*
X59344366Y-38481497D01*
X59403258Y-38701288D01*
X59403261Y-38701297D01*
X59499431Y-38907532D01*
X59499432Y-38907534D01*
X59629954Y-39093941D01*
X59790858Y-39254845D01*
X59790861Y-39254847D01*
X59977266Y-39385368D01*
X60035865Y-39412693D01*
X60088305Y-39458865D01*
X60107457Y-39526058D01*
X60087242Y-39592939D01*
X60035867Y-39637457D01*
X59977515Y-39664667D01*
X59791179Y-39795142D01*
X59630342Y-39955979D01*
X59499865Y-40142317D01*
X59403734Y-40348473D01*
X59403730Y-40348482D01*
X59351127Y-40544799D01*
X59351128Y-40544800D01*
X60196988Y-40544800D01*
X60164075Y-40601807D01*
X60130000Y-40728974D01*
X60130000Y-40860626D01*
X60164075Y-40987793D01*
X60196988Y-41044800D01*
X59351128Y-41044800D01*
X59403730Y-41241117D01*
X59403734Y-41241126D01*
X59499865Y-41447282D01*
X59630342Y-41633620D01*
X59791179Y-41794457D01*
X59977518Y-41924934D01*
X59977520Y-41924935D01*
X60035865Y-41952142D01*
X60088305Y-41998314D01*
X60107457Y-42065507D01*
X60087242Y-42132389D01*
X60035867Y-42176905D01*
X59977268Y-42204231D01*
X59977264Y-42204233D01*
X59790858Y-42334754D01*
X59629954Y-42495658D01*
X59499432Y-42682065D01*
X59499431Y-42682067D01*
X59403261Y-42888302D01*
X59403258Y-42888311D01*
X59344366Y-43108102D01*
X59344364Y-43108113D01*
X59324532Y-43334798D01*
X59324532Y-43334801D01*
X59344364Y-43561486D01*
X59344366Y-43561497D01*
X59403258Y-43781288D01*
X59403261Y-43781297D01*
X59499431Y-43987532D01*
X59499432Y-43987534D01*
X59629954Y-44173941D01*
X59790858Y-44334845D01*
X59790861Y-44334847D01*
X59977266Y-44465368D01*
X60035275Y-44492418D01*
X60087714Y-44538591D01*
X60106866Y-44605784D01*
X60086650Y-44672665D01*
X60035275Y-44717182D01*
X59977267Y-44744231D01*
X59977265Y-44744232D01*
X59790858Y-44874754D01*
X59629954Y-45035658D01*
X59499432Y-45222065D01*
X59499431Y-45222067D01*
X59403261Y-45428302D01*
X59403258Y-45428311D01*
X59344366Y-45648102D01*
X59344364Y-45648113D01*
X59324532Y-45874798D01*
X59324532Y-45874801D01*
X59344364Y-46101486D01*
X59344366Y-46101497D01*
X59403258Y-46321288D01*
X59403261Y-46321297D01*
X59499431Y-46527532D01*
X59499432Y-46527534D01*
X59629954Y-46713941D01*
X59790858Y-46874845D01*
X59796285Y-46878645D01*
X59977266Y-47005368D01*
X60034681Y-47032141D01*
X60035275Y-47032418D01*
X60087714Y-47078591D01*
X60106866Y-47145784D01*
X60086650Y-47212665D01*
X60035275Y-47257182D01*
X59977267Y-47284231D01*
X59977265Y-47284232D01*
X59790858Y-47414754D01*
X59629954Y-47575658D01*
X59499432Y-47762065D01*
X59499431Y-47762067D01*
X59403261Y-47968302D01*
X59403258Y-47968311D01*
X59344366Y-48188102D01*
X59344364Y-48188113D01*
X59324532Y-48414798D01*
X59324532Y-48414801D01*
X59344364Y-48641486D01*
X59344366Y-48641497D01*
X59403258Y-48861288D01*
X59403261Y-48861297D01*
X59499431Y-49067532D01*
X59499432Y-49067534D01*
X59629954Y-49253941D01*
X59790858Y-49414845D01*
X59790861Y-49414847D01*
X59977266Y-49545368D01*
X60035275Y-49572418D01*
X60087714Y-49618591D01*
X60106866Y-49685784D01*
X60086650Y-49752665D01*
X60035275Y-49797181D01*
X60027818Y-49800659D01*
X59977267Y-49824231D01*
X59977265Y-49824232D01*
X59790858Y-49954754D01*
X59629954Y-50115658D01*
X59499432Y-50302065D01*
X59499431Y-50302067D01*
X59403261Y-50508302D01*
X59403258Y-50508311D01*
X59344366Y-50728102D01*
X59344364Y-50728113D01*
X59324532Y-50954798D01*
X59324532Y-50954801D01*
X59344364Y-51181486D01*
X59344366Y-51181497D01*
X59403258Y-51401288D01*
X59403261Y-51401297D01*
X59499431Y-51607532D01*
X59499432Y-51607534D01*
X59629954Y-51793941D01*
X59790858Y-51954845D01*
X59790861Y-51954847D01*
X59977266Y-52085368D01*
X60035275Y-52112418D01*
X60087714Y-52158591D01*
X60106866Y-52225784D01*
X60086650Y-52292665D01*
X60035275Y-52337182D01*
X59977267Y-52364231D01*
X59977265Y-52364232D01*
X59790858Y-52494754D01*
X59629954Y-52655658D01*
X59499432Y-52842065D01*
X59499431Y-52842067D01*
X59403261Y-53048302D01*
X59403258Y-53048311D01*
X59344366Y-53268102D01*
X59344364Y-53268113D01*
X59324532Y-53494798D01*
X59324532Y-53494801D01*
X59344364Y-53721486D01*
X59344366Y-53721497D01*
X59403258Y-53941288D01*
X59403261Y-53941297D01*
X59499431Y-54147532D01*
X59499432Y-54147534D01*
X59629954Y-54333941D01*
X59790858Y-54494845D01*
X59790861Y-54494847D01*
X59977266Y-54625368D01*
X60035275Y-54652418D01*
X60087714Y-54698591D01*
X60106866Y-54765784D01*
X60086650Y-54832665D01*
X60035275Y-54877182D01*
X59977267Y-54904231D01*
X59977265Y-54904232D01*
X59790858Y-55034754D01*
X59629954Y-55195658D01*
X59499432Y-55382065D01*
X59499431Y-55382067D01*
X59403261Y-55588302D01*
X59403258Y-55588311D01*
X59344366Y-55808102D01*
X59344364Y-55808113D01*
X59324532Y-56034798D01*
X59324532Y-56034801D01*
X59344364Y-56261486D01*
X59344366Y-56261497D01*
X59403258Y-56481288D01*
X59403261Y-56481297D01*
X59499431Y-56687532D01*
X59499432Y-56687534D01*
X59629954Y-56873941D01*
X59790858Y-57034845D01*
X59790861Y-57034847D01*
X59977266Y-57165368D01*
X60035275Y-57192418D01*
X60087714Y-57238591D01*
X60106866Y-57305784D01*
X60086650Y-57372665D01*
X60035275Y-57417181D01*
X60033124Y-57418185D01*
X59977267Y-57444231D01*
X59977265Y-57444232D01*
X59790858Y-57574754D01*
X59629954Y-57735658D01*
X59499432Y-57922065D01*
X59499431Y-57922067D01*
X59403261Y-58128302D01*
X59403258Y-58128311D01*
X59344366Y-58348102D01*
X59344364Y-58348113D01*
X59324532Y-58574798D01*
X59324532Y-58574801D01*
X59344819Y-58806681D01*
X59331052Y-58875181D01*
X59308972Y-58905169D01*
X56496162Y-61717981D01*
X56434839Y-61751466D01*
X56408481Y-61754300D01*
X46721381Y-61754300D01*
X46654342Y-61734615D01*
X46608587Y-61681811D01*
X46598643Y-61612653D01*
X46608998Y-61577897D01*
X46610411Y-61574865D01*
X46616739Y-61561296D01*
X46675635Y-61341492D01*
X46695468Y-61114800D01*
X46675635Y-60888108D01*
X46616739Y-60668304D01*
X46520568Y-60462066D01*
X46390047Y-60275661D01*
X46390045Y-60275658D01*
X46229141Y-60114754D01*
X46042734Y-59984232D01*
X46042728Y-59984229D01*
X45984725Y-59957182D01*
X45932285Y-59911010D01*
X45913133Y-59843817D01*
X45933348Y-59776935D01*
X45984725Y-59732418D01*
X46042734Y-59705368D01*
X46229139Y-59574847D01*
X46390047Y-59413939D01*
X46520568Y-59227534D01*
X46616739Y-59021296D01*
X46675635Y-58801492D01*
X46695468Y-58574800D01*
X46691911Y-58534149D01*
X46680109Y-58399247D01*
X46675635Y-58348108D01*
X46616739Y-58128304D01*
X46520568Y-57922066D01*
X46390047Y-57735661D01*
X46390045Y-57735658D01*
X46229141Y-57574754D01*
X46042734Y-57444232D01*
X46042728Y-57444229D01*
X45996936Y-57422876D01*
X45984724Y-57417181D01*
X45932285Y-57371010D01*
X45913133Y-57303817D01*
X45933348Y-57236935D01*
X45984725Y-57192418D01*
X46042734Y-57165368D01*
X46229139Y-57034847D01*
X46390047Y-56873939D01*
X46520568Y-56687534D01*
X46616739Y-56481296D01*
X46675635Y-56261492D01*
X46695468Y-56034800D01*
X46675635Y-55808108D01*
X46616739Y-55588304D01*
X46520568Y-55382066D01*
X46390047Y-55195661D01*
X46390045Y-55195658D01*
X46229141Y-55034754D01*
X46042734Y-54904232D01*
X46042728Y-54904229D01*
X45984725Y-54877182D01*
X45932285Y-54831010D01*
X45913133Y-54763817D01*
X45933348Y-54696935D01*
X45984725Y-54652418D01*
X46042734Y-54625368D01*
X46229139Y-54494847D01*
X46390047Y-54333939D01*
X46520568Y-54147534D01*
X46616739Y-53941296D01*
X46675635Y-53721492D01*
X46693146Y-53521337D01*
X46695468Y-53494801D01*
X46695468Y-53494798D01*
X46679199Y-53308843D01*
X46675635Y-53268108D01*
X46616739Y-53048304D01*
X46520568Y-52842066D01*
X46390047Y-52655661D01*
X46390045Y-52655658D01*
X46229141Y-52494754D01*
X46042734Y-52364232D01*
X46042728Y-52364229D01*
X46011195Y-52349525D01*
X45984724Y-52337181D01*
X45932285Y-52291010D01*
X45913133Y-52223817D01*
X45933348Y-52156935D01*
X45984725Y-52112418D01*
X46042734Y-52085368D01*
X46229139Y-51954847D01*
X46390047Y-51793939D01*
X46520568Y-51607534D01*
X46616739Y-51401296D01*
X46675635Y-51181492D01*
X46693146Y-50981337D01*
X46695468Y-50954801D01*
X46695468Y-50954798D01*
X46689801Y-50890030D01*
X46675635Y-50728108D01*
X46616739Y-50508304D01*
X46520568Y-50302066D01*
X46390047Y-50115661D01*
X46390045Y-50115658D01*
X46229141Y-49954754D01*
X46042734Y-49824232D01*
X46042728Y-49824229D01*
X45992182Y-49800659D01*
X45984724Y-49797181D01*
X45932285Y-49751010D01*
X45913133Y-49683817D01*
X45933348Y-49616935D01*
X45984725Y-49572418D01*
X46042734Y-49545368D01*
X46229139Y-49414847D01*
X46390047Y-49253939D01*
X46520568Y-49067534D01*
X46616739Y-48861296D01*
X46675635Y-48641492D01*
X46695468Y-48414800D01*
X46675635Y-48188108D01*
X46625232Y-48000000D01*
X46616741Y-47968311D01*
X46616738Y-47968302D01*
X46599347Y-47931007D01*
X46520568Y-47762066D01*
X46390047Y-47575661D01*
X46390045Y-47575658D01*
X46229141Y-47414754D01*
X46042734Y-47284232D01*
X46042732Y-47284231D01*
X46014281Y-47270964D01*
X45984132Y-47256905D01*
X45931694Y-47210734D01*
X45912542Y-47143540D01*
X45932758Y-47076659D01*
X45984134Y-47032141D01*
X46042484Y-47004932D01*
X46228820Y-46874457D01*
X46389657Y-46713620D01*
X46520134Y-46527282D01*
X46616265Y-46321126D01*
X46616269Y-46321117D01*
X46668872Y-46124800D01*
X45823012Y-46124800D01*
X45855925Y-46067793D01*
X45890000Y-45940626D01*
X45890000Y-45808974D01*
X45855925Y-45681807D01*
X45823012Y-45624800D01*
X46668872Y-45624800D01*
X46668872Y-45624799D01*
X46616269Y-45428482D01*
X46616265Y-45428473D01*
X46520134Y-45222317D01*
X46389657Y-45035979D01*
X46228820Y-44875142D01*
X46042482Y-44744665D01*
X45984133Y-44717457D01*
X45931694Y-44671284D01*
X45912542Y-44604091D01*
X45932758Y-44537210D01*
X45984129Y-44492695D01*
X46042734Y-44465368D01*
X46229139Y-44334847D01*
X46390047Y-44173939D01*
X46520568Y-43987534D01*
X46616739Y-43781296D01*
X46675635Y-43561492D01*
X46695468Y-43334800D01*
X46675635Y-43108108D01*
X46616739Y-42888304D01*
X46520568Y-42682066D01*
X46390047Y-42495661D01*
X46390045Y-42495658D01*
X46229141Y-42334754D01*
X46042734Y-42204232D01*
X46042728Y-42204229D01*
X45984725Y-42177182D01*
X45932285Y-42131010D01*
X45913133Y-42063817D01*
X45933348Y-41996935D01*
X45984725Y-41952418D01*
X45985319Y-41952141D01*
X46042734Y-41925368D01*
X46229139Y-41794847D01*
X46390047Y-41633939D01*
X46520568Y-41447534D01*
X46616739Y-41241296D01*
X46675635Y-41021492D01*
X46695468Y-40794800D01*
X46675635Y-40568108D01*
X46616739Y-40348304D01*
X46520568Y-40142066D01*
X46390047Y-39955661D01*
X46390045Y-39955658D01*
X46229143Y-39794756D01*
X46204536Y-39777526D01*
X46160912Y-39722949D01*
X46153719Y-39653450D01*
X46185241Y-39591096D01*
X46245471Y-39555682D01*
X46262404Y-39552661D01*
X46297483Y-39548891D01*
X46432331Y-39498596D01*
X46547546Y-39412346D01*
X46633796Y-39297131D01*
X46684091Y-39162283D01*
X46690500Y-39102673D01*
X46690499Y-37406928D01*
X46684091Y-37347317D01*
X46669056Y-37307007D01*
X46651465Y-37259842D01*
X46646481Y-37190151D01*
X46679966Y-37128828D01*
X46741289Y-37095343D01*
X46810981Y-37100327D01*
X46855328Y-37128828D01*
X46884476Y-37157976D01*
X46916061Y-37211722D01*
X46969417Y-37399247D01*
X46969422Y-37399260D01*
X47060327Y-37581821D01*
X47183237Y-37744581D01*
X47333958Y-37881980D01*
X47333960Y-37881982D01*
X47389194Y-37916181D01*
X47507363Y-37989348D01*
X47697544Y-38063024D01*
X47898024Y-38100500D01*
X47898026Y-38100500D01*
X48101974Y-38100500D01*
X48101976Y-38100500D01*
X48302456Y-38063024D01*
X48492637Y-37989348D01*
X48666041Y-37881981D01*
X48816764Y-37744579D01*
X48939673Y-37581821D01*
X49030582Y-37399250D01*
X49086397Y-37203083D01*
X49105215Y-37000000D01*
X49100980Y-36954301D01*
X49086397Y-36796917D01*
X49069297Y-36736819D01*
X49030582Y-36600750D01*
X49030159Y-36599901D01*
X48979288Y-36497737D01*
X48939673Y-36418179D01*
X48857106Y-36308843D01*
X48816762Y-36255418D01*
X48666041Y-36118019D01*
X48666039Y-36118017D01*
X48492642Y-36010655D01*
X48492635Y-36010651D01*
X48302454Y-35936975D01*
X48227071Y-35922883D01*
X48164790Y-35891215D01*
X48162176Y-35888676D01*
X46574035Y-34300535D01*
X46574030Y-34300531D01*
X46514961Y-34261064D01*
X46514960Y-34261063D01*
X46426544Y-34201985D01*
X46426542Y-34201984D01*
X46344607Y-34168046D01*
X46344606Y-34168046D01*
X46262666Y-34134105D01*
X46262658Y-34134103D01*
X46088696Y-34099500D01*
X46088692Y-34099500D01*
X46088691Y-34099500D01*
X43424361Y-34099500D01*
X43357322Y-34079815D01*
X43336680Y-34063181D01*
X35856819Y-26583319D01*
X35823334Y-26521996D01*
X35820500Y-26495638D01*
X35820500Y-25451439D01*
X35840185Y-25384400D01*
X35892989Y-25338645D01*
X35901168Y-25335257D01*
X36012326Y-25293798D01*
X36012326Y-25293797D01*
X36012331Y-25293796D01*
X36127546Y-25207546D01*
X36213796Y-25092331D01*
X36262810Y-24960916D01*
X36304681Y-24904984D01*
X36370145Y-24880566D01*
X36438418Y-24895417D01*
X36466673Y-24916569D01*
X36588599Y-25038495D01*
X36685384Y-25106265D01*
X36782165Y-25174032D01*
X36782167Y-25174033D01*
X36782170Y-25174035D01*
X36996337Y-25273903D01*
X37224592Y-25335063D01*
X37397788Y-25350216D01*
X37459999Y-25355659D01*
X37460000Y-25355659D01*
X37460001Y-25355659D01*
X37518966Y-25350500D01*
X37695408Y-25335063D01*
X37923663Y-25273903D01*
X38137830Y-25174035D01*
X38331401Y-25038495D01*
X38498495Y-24871401D01*
X38628425Y-24685842D01*
X38683002Y-24642217D01*
X38752500Y-24635023D01*
X38814855Y-24666546D01*
X38831575Y-24685842D01*
X38961500Y-24871395D01*
X38961505Y-24871401D01*
X39128599Y-25038495D01*
X39225384Y-25106265D01*
X39322165Y-25174032D01*
X39322167Y-25174033D01*
X39322170Y-25174035D01*
X39536337Y-25273903D01*
X39764592Y-25335063D01*
X39937788Y-25350216D01*
X39999999Y-25355659D01*
X40000000Y-25355659D01*
X40000001Y-25355659D01*
X40058966Y-25350500D01*
X40235408Y-25335063D01*
X40463663Y-25273903D01*
X40677830Y-25174035D01*
X40871401Y-25038495D01*
X41038495Y-24871401D01*
X41174035Y-24677830D01*
X41273903Y-24463663D01*
X41335063Y-24235408D01*
X41355659Y-24000000D01*
X41335063Y-23764592D01*
X41273903Y-23536337D01*
X41174035Y-23322171D01*
X41168425Y-23314158D01*
X41038494Y-23128597D01*
X40871402Y-22961506D01*
X40871395Y-22961501D01*
X40677834Y-22825967D01*
X40677830Y-22825965D01*
X40677828Y-22825964D01*
X40463663Y-22726097D01*
X40463659Y-22726096D01*
X40463655Y-22726094D01*
X40235413Y-22664938D01*
X40235403Y-22664936D01*
X40000001Y-22644341D01*
X39999999Y-22644341D01*
X39764596Y-22664936D01*
X39764586Y-22664938D01*
X39536344Y-22726094D01*
X39536335Y-22726098D01*
X39322171Y-22825964D01*
X39322169Y-22825965D01*
X39128597Y-22961505D01*
X38961505Y-23128597D01*
X38831575Y-23314158D01*
X38776998Y-23357783D01*
X38707500Y-23364977D01*
X38645145Y-23333454D01*
X38628425Y-23314158D01*
X38498494Y-23128597D01*
X38331402Y-22961506D01*
X38331395Y-22961501D01*
X38137834Y-22825967D01*
X38137830Y-22825965D01*
X38137828Y-22825964D01*
X37923663Y-22726097D01*
X37923659Y-22726096D01*
X37923655Y-22726094D01*
X37695413Y-22664938D01*
X37695403Y-22664936D01*
X37460001Y-22644341D01*
X37459999Y-22644341D01*
X37224596Y-22664936D01*
X37224586Y-22664938D01*
X36996344Y-22726094D01*
X36996335Y-22726098D01*
X36782171Y-22825964D01*
X36782169Y-22825965D01*
X36588600Y-22961503D01*
X36466673Y-23083430D01*
X36405350Y-23116914D01*
X36335658Y-23111930D01*
X36279725Y-23070058D01*
X36262810Y-23039081D01*
X36213797Y-22907671D01*
X36213793Y-22907664D01*
X36127547Y-22792455D01*
X36127544Y-22792452D01*
X36012335Y-22706206D01*
X36012328Y-22706202D01*
X35877482Y-22655908D01*
X35877483Y-22655908D01*
X35817883Y-22649501D01*
X35817881Y-22649500D01*
X35817873Y-22649500D01*
X35817864Y-22649500D01*
X34022129Y-22649500D01*
X34022123Y-22649501D01*
X33962516Y-22655908D01*
X33827671Y-22706202D01*
X33827664Y-22706206D01*
X33712455Y-22792452D01*
X33712452Y-22792455D01*
X33626206Y-22907664D01*
X33626202Y-22907671D01*
X33584742Y-23018833D01*
X33542871Y-23074767D01*
X33477407Y-23099184D01*
X33468560Y-23099500D01*
X31911304Y-23099500D01*
X31737339Y-23134103D01*
X31737323Y-23134108D01*
X31621453Y-23182102D01*
X31621454Y-23182103D01*
X31573451Y-23201987D01*
X31438465Y-23292184D01*
X31438461Y-23292187D01*
X31425965Y-23300535D01*
X28300538Y-26425960D01*
X28300537Y-26425961D01*
X28261064Y-26485039D01*
X28261063Y-26485040D01*
X28201985Y-26573455D01*
X28168046Y-26655393D01*
X28134106Y-26737330D01*
X28134103Y-26737342D01*
X28115412Y-26831308D01*
X28115413Y-26831309D01*
X28099500Y-26911311D01*
X28099500Y-31100638D01*
X28079815Y-31167677D01*
X28063181Y-31188319D01*
X27522190Y-31729309D01*
X27460867Y-31762794D01*
X27391175Y-31757810D01*
X27335242Y-31715938D01*
X27314734Y-31673721D01*
X27273905Y-31521344D01*
X27273904Y-31521343D01*
X27273903Y-31521337D01*
X27174035Y-31307171D01*
X27172230Y-31304592D01*
X27038494Y-31113597D01*
X26871402Y-30946506D01*
X26871396Y-30946501D01*
X26685842Y-30816575D01*
X26642217Y-30761998D01*
X26635023Y-30692500D01*
X26666546Y-30630145D01*
X26685842Y-30613425D01*
X26708026Y-30597891D01*
X26871401Y-30483495D01*
X27038495Y-30316401D01*
X27174035Y-30122830D01*
X27273903Y-29908663D01*
X27335063Y-29680408D01*
X27355659Y-29445000D01*
X27335063Y-29209592D01*
X27273903Y-28981337D01*
X27174035Y-28767171D01*
X27172230Y-28764592D01*
X27038494Y-28573597D01*
X26871402Y-28406506D01*
X26871395Y-28406501D01*
X26677834Y-28270967D01*
X26677830Y-28270965D01*
X26677828Y-28270964D01*
X26463663Y-28171097D01*
X26463659Y-28171096D01*
X26463655Y-28171094D01*
X26235413Y-28109938D01*
X26235403Y-28109936D01*
X26000001Y-28089341D01*
X25999999Y-28089341D01*
X25764596Y-28109936D01*
X25764586Y-28109938D01*
X25536344Y-28171094D01*
X25536335Y-28171098D01*
X25322171Y-28270964D01*
X25322169Y-28270965D01*
X25128597Y-28406505D01*
X24961505Y-28573597D01*
X24825965Y-28767169D01*
X24825964Y-28767171D01*
X24726098Y-28981335D01*
X24726094Y-28981344D01*
X24664938Y-29209586D01*
X24664936Y-29209596D01*
X24644341Y-29444999D01*
X24644341Y-29445000D01*
X24664936Y-29680403D01*
X24664938Y-29680413D01*
X24726094Y-29908655D01*
X24726096Y-29908659D01*
X24726097Y-29908663D01*
X24786638Y-30038493D01*
X24825965Y-30122830D01*
X24825967Y-30122834D01*
X24961501Y-30316395D01*
X24961506Y-30316402D01*
X25128597Y-30483493D01*
X25128603Y-30483498D01*
X25314158Y-30613425D01*
X25357783Y-30668002D01*
X25364977Y-30737500D01*
X25333454Y-30799855D01*
X25314158Y-30816575D01*
X25128597Y-30946505D01*
X24961505Y-31113597D01*
X24825965Y-31307169D01*
X24825964Y-31307171D01*
X24726098Y-31521335D01*
X24726094Y-31521344D01*
X24664938Y-31749586D01*
X24664936Y-31749596D01*
X24644341Y-31984999D01*
X24644341Y-31985000D01*
X24664936Y-32220403D01*
X24664938Y-32220413D01*
X24726094Y-32448655D01*
X24726096Y-32448659D01*
X24726097Y-32448663D01*
X24749803Y-32499500D01*
X24825965Y-32662830D01*
X24825967Y-32662834D01*
X24961501Y-32856395D01*
X24961506Y-32856402D01*
X25083430Y-32978326D01*
X25116915Y-33039649D01*
X25111931Y-33109341D01*
X25070059Y-33165274D01*
X25039083Y-33182189D01*
X24907669Y-33231203D01*
X24907664Y-33231206D01*
X24792455Y-33317452D01*
X24792452Y-33317455D01*
X24706206Y-33432664D01*
X24706202Y-33432671D01*
X24655908Y-33567517D01*
X24649501Y-33627116D01*
X24649500Y-33627135D01*
X24649500Y-35422870D01*
X24649501Y-35422876D01*
X24655908Y-35482483D01*
X24706202Y-35617328D01*
X24706206Y-35617335D01*
X24792452Y-35732544D01*
X24792455Y-35732547D01*
X24907664Y-35818793D01*
X24907671Y-35818797D01*
X24926887Y-35825964D01*
X25042517Y-35869091D01*
X25102127Y-35875500D01*
X25550637Y-35875499D01*
X25617676Y-35895183D01*
X25638318Y-35911818D01*
X28063181Y-38336680D01*
X28096666Y-38398003D01*
X28099500Y-38424361D01*
X28099500Y-42115638D01*
X28079815Y-42182677D01*
X28063181Y-42203319D01*
X27522190Y-42744309D01*
X27460867Y-42777794D01*
X27391175Y-42772810D01*
X27335242Y-42730938D01*
X27314734Y-42688721D01*
X27273905Y-42536344D01*
X27273904Y-42536341D01*
X27273903Y-42536337D01*
X27174035Y-42322171D01*
X27126290Y-42253983D01*
X27038494Y-42128597D01*
X26871402Y-41961506D01*
X26871396Y-41961501D01*
X26685842Y-41831575D01*
X26642217Y-41776998D01*
X26635023Y-41707500D01*
X26666546Y-41645145D01*
X26685842Y-41628425D01*
X26817678Y-41536112D01*
X26871401Y-41498495D01*
X27038495Y-41331401D01*
X27174035Y-41137830D01*
X27273903Y-40923663D01*
X27335063Y-40695408D01*
X27355659Y-40460000D01*
X27335063Y-40224592D01*
X27288626Y-40051285D01*
X27273905Y-39996344D01*
X27273904Y-39996343D01*
X27273903Y-39996337D01*
X27174035Y-39782171D01*
X27132568Y-39722949D01*
X27038494Y-39588597D01*
X26871402Y-39421506D01*
X26871395Y-39421501D01*
X26858320Y-39412346D01*
X26768599Y-39349522D01*
X26677834Y-39285967D01*
X26677830Y-39285965D01*
X26611093Y-39254845D01*
X26463663Y-39186097D01*
X26463659Y-39186096D01*
X26463655Y-39186094D01*
X26235413Y-39124938D01*
X26235403Y-39124936D01*
X26000001Y-39104341D01*
X25999999Y-39104341D01*
X25764596Y-39124936D01*
X25764586Y-39124938D01*
X25536344Y-39186094D01*
X25536335Y-39186098D01*
X25322171Y-39285964D01*
X25322169Y-39285965D01*
X25128597Y-39421505D01*
X24961505Y-39588597D01*
X24825965Y-39782169D01*
X24825964Y-39782171D01*
X24726098Y-39996335D01*
X24726094Y-39996344D01*
X24664938Y-40224586D01*
X24664936Y-40224596D01*
X24644341Y-40459999D01*
X24644341Y-40460000D01*
X24664936Y-40695403D01*
X24664938Y-40695413D01*
X24726094Y-40923655D01*
X24726096Y-40923659D01*
X24726097Y-40923663D01*
X24807288Y-41097778D01*
X24825965Y-41137830D01*
X24825967Y-41137834D01*
X24961501Y-41331395D01*
X24961506Y-41331402D01*
X25128597Y-41498493D01*
X25128603Y-41498498D01*
X25314158Y-41628425D01*
X25357783Y-41683002D01*
X25364977Y-41752500D01*
X25333454Y-41814855D01*
X25314158Y-41831575D01*
X25128597Y-41961505D01*
X24961505Y-42128597D01*
X24825965Y-42322169D01*
X24825964Y-42322171D01*
X24726098Y-42536335D01*
X24726094Y-42536344D01*
X24664938Y-42764586D01*
X24664936Y-42764596D01*
X24644341Y-42999999D01*
X24644341Y-43000000D01*
X24664936Y-43235403D01*
X24664938Y-43235413D01*
X24726094Y-43463655D01*
X24726096Y-43463659D01*
X24726097Y-43463663D01*
X24771713Y-43561486D01*
X24825965Y-43677830D01*
X24825967Y-43677834D01*
X24898413Y-43781297D01*
X24961501Y-43871396D01*
X24961506Y-43871402D01*
X25083430Y-43993326D01*
X25116915Y-44054649D01*
X25111931Y-44124341D01*
X25070059Y-44180274D01*
X25039083Y-44197189D01*
X24907669Y-44246203D01*
X24907664Y-44246206D01*
X24792455Y-44332452D01*
X24792452Y-44332455D01*
X24706206Y-44447664D01*
X24706202Y-44447671D01*
X24655908Y-44582517D01*
X24651832Y-44620435D01*
X24649501Y-44642123D01*
X24649500Y-44642135D01*
X24649500Y-46437870D01*
X24649501Y-46437876D01*
X24655908Y-46497483D01*
X24706202Y-46632328D01*
X24706206Y-46632335D01*
X24792452Y-46747544D01*
X24792455Y-46747547D01*
X24907664Y-46833793D01*
X24907671Y-46833797D01*
X25042517Y-46884091D01*
X25042516Y-46884091D01*
X25049444Y-46884835D01*
X25102127Y-46890500D01*
X26025637Y-46890499D01*
X26092676Y-46910183D01*
X26113318Y-46926818D01*
X28063181Y-48876680D01*
X28096666Y-48938003D01*
X28099500Y-48964361D01*
X28099500Y-53100638D01*
X28079815Y-53167677D01*
X28063181Y-53188319D01*
X27522190Y-53729309D01*
X27460867Y-53762794D01*
X27391175Y-53757810D01*
X27335242Y-53715938D01*
X27314734Y-53673721D01*
X27273905Y-53521344D01*
X27273904Y-53521341D01*
X27273903Y-53521337D01*
X27174035Y-53307171D01*
X27146687Y-53268113D01*
X27038494Y-53113597D01*
X26871402Y-52946506D01*
X26871396Y-52946501D01*
X26685842Y-52816575D01*
X26642217Y-52761998D01*
X26635023Y-52692500D01*
X26666546Y-52630145D01*
X26685842Y-52613425D01*
X26708026Y-52597891D01*
X26871401Y-52483495D01*
X27038495Y-52316401D01*
X27174035Y-52122830D01*
X27273903Y-51908663D01*
X27335063Y-51680408D01*
X27355659Y-51445000D01*
X27335063Y-51209592D01*
X27273903Y-50981337D01*
X27174035Y-50767171D01*
X27159356Y-50746206D01*
X27038494Y-50573597D01*
X26871402Y-50406506D01*
X26871395Y-50406501D01*
X26677834Y-50270967D01*
X26677830Y-50270965D01*
X26599877Y-50234615D01*
X26463663Y-50171097D01*
X26463659Y-50171096D01*
X26463655Y-50171094D01*
X26235413Y-50109938D01*
X26235403Y-50109936D01*
X26000001Y-50089341D01*
X25999999Y-50089341D01*
X25764596Y-50109936D01*
X25764586Y-50109938D01*
X25536344Y-50171094D01*
X25536335Y-50171098D01*
X25322171Y-50270964D01*
X25322169Y-50270965D01*
X25128597Y-50406505D01*
X24961505Y-50573597D01*
X24825965Y-50767169D01*
X24825964Y-50767171D01*
X24726098Y-50981335D01*
X24726094Y-50981344D01*
X24664938Y-51209586D01*
X24664936Y-51209596D01*
X24644341Y-51444999D01*
X24644341Y-51445000D01*
X24664936Y-51680403D01*
X24664938Y-51680413D01*
X24726094Y-51908655D01*
X24726096Y-51908659D01*
X24726097Y-51908663D01*
X24768690Y-52000003D01*
X24825965Y-52122830D01*
X24825967Y-52122834D01*
X24961501Y-52316395D01*
X24961506Y-52316402D01*
X25128597Y-52483493D01*
X25128603Y-52483498D01*
X25314158Y-52613425D01*
X25357783Y-52668002D01*
X25364977Y-52737500D01*
X25333454Y-52799855D01*
X25314158Y-52816575D01*
X25128597Y-52946505D01*
X24961505Y-53113597D01*
X24825965Y-53307169D01*
X24825964Y-53307171D01*
X24726098Y-53521335D01*
X24726094Y-53521344D01*
X24664938Y-53749586D01*
X24664936Y-53749596D01*
X24644341Y-53984999D01*
X24644341Y-53985000D01*
X24664936Y-54220403D01*
X24664938Y-54220413D01*
X24726094Y-54448655D01*
X24726096Y-54448659D01*
X24726097Y-54448663D01*
X24804750Y-54617335D01*
X24825965Y-54662830D01*
X24825967Y-54662834D01*
X24874781Y-54732547D01*
X24961501Y-54856396D01*
X24961506Y-54856402D01*
X25083430Y-54978326D01*
X25116915Y-55039649D01*
X25111931Y-55109341D01*
X25070059Y-55165274D01*
X25039083Y-55182189D01*
X24907669Y-55231203D01*
X24907664Y-55231206D01*
X24792455Y-55317452D01*
X24792452Y-55317455D01*
X24706206Y-55432664D01*
X24706202Y-55432671D01*
X24655908Y-55567517D01*
X24649782Y-55624500D01*
X24649501Y-55627123D01*
X24649500Y-55627135D01*
X24649500Y-57422870D01*
X24649501Y-57422876D01*
X24655908Y-57482483D01*
X24706202Y-57617328D01*
X24706206Y-57617335D01*
X24792452Y-57732544D01*
X24792455Y-57732547D01*
X24907664Y-57818793D01*
X24907671Y-57818797D01*
X25042517Y-57869091D01*
X25042516Y-57869091D01*
X25049444Y-57869835D01*
X25102127Y-57875500D01*
X26897872Y-57875499D01*
X26957483Y-57869091D01*
X27092331Y-57818796D01*
X27207546Y-57732546D01*
X27293796Y-57617331D01*
X27309768Y-57574507D01*
X27335258Y-57506167D01*
X27377129Y-57450233D01*
X27442593Y-57425816D01*
X27451440Y-57425500D01*
X28905712Y-57425500D01*
X28972751Y-57445185D01*
X29016710Y-57494225D01*
X29060327Y-57581821D01*
X29087141Y-57617328D01*
X29183237Y-57744581D01*
X29318382Y-57867781D01*
X29326847Y-57875498D01*
X29333958Y-57881980D01*
X29333960Y-57881982D01*
X29398700Y-57922067D01*
X29507363Y-57989348D01*
X29697544Y-58063024D01*
X29898024Y-58100500D01*
X29898026Y-58100500D01*
X30101974Y-58100500D01*
X30101976Y-58100500D01*
X30302456Y-58063024D01*
X30492637Y-57989348D01*
X30666041Y-57881981D01*
X30816764Y-57744579D01*
X30939673Y-57581821D01*
X31030582Y-57399250D01*
X31056234Y-57309090D01*
X31093513Y-57249999D01*
X31156823Y-57220442D01*
X31226062Y-57229804D01*
X31279249Y-57275114D01*
X31299496Y-57341986D01*
X31299500Y-57343027D01*
X31299500Y-73931006D01*
X31299500Y-74068994D01*
X31299500Y-74068996D01*
X31299499Y-74068996D01*
X31326418Y-74204322D01*
X31326421Y-74204332D01*
X31379222Y-74331807D01*
X31455887Y-74446545D01*
X31455888Y-74446546D01*
X34208630Y-77199287D01*
X34237990Y-77246013D01*
X34274209Y-77349519D01*
X34274211Y-77349522D01*
X34370184Y-77502262D01*
X34497738Y-77629816D01*
X34650478Y-77725789D01*
X34780241Y-77771195D01*
X34820745Y-77785368D01*
X34820750Y-77785369D01*
X34999996Y-77805565D01*
X35000000Y-77805565D01*
X35000004Y-77805565D01*
X35179249Y-77785369D01*
X35179252Y-77785368D01*
X35179255Y-77785368D01*
X35349522Y-77725789D01*
X35502262Y-77629816D01*
X35629816Y-77502262D01*
X35725789Y-77349522D01*
X35785368Y-77179255D01*
X35786375Y-77170318D01*
X35805565Y-77000003D01*
X35805565Y-76999996D01*
X35785369Y-76820750D01*
X35785368Y-76820745D01*
X35740610Y-76692834D01*
X35725789Y-76650478D01*
X35629816Y-76497738D01*
X35502262Y-76370184D01*
X35349522Y-76274211D01*
X35349519Y-76274209D01*
X35246013Y-76237990D01*
X35199287Y-76208630D01*
X32736819Y-73746162D01*
X32703334Y-73684839D01*
X32700500Y-73658481D01*
X32700500Y-72990519D01*
X32720185Y-72923480D01*
X32772989Y-72877725D01*
X32842147Y-72867781D01*
X32905703Y-72896806D01*
X32912181Y-72902838D01*
X35208630Y-75199287D01*
X35237990Y-75246013D01*
X35274209Y-75349519D01*
X35274211Y-75349522D01*
X35370184Y-75502262D01*
X35497738Y-75629816D01*
X35650478Y-75725789D01*
X35804221Y-75779586D01*
X35820745Y-75785368D01*
X35820750Y-75785369D01*
X35999996Y-75805565D01*
X36000000Y-75805565D01*
X36000004Y-75805565D01*
X36179249Y-75785369D01*
X36179252Y-75785368D01*
X36179255Y-75785368D01*
X36349522Y-75725789D01*
X36502262Y-75629816D01*
X36629816Y-75502262D01*
X36725789Y-75349522D01*
X36785368Y-75179255D01*
X36785369Y-75179249D01*
X36805565Y-75000003D01*
X36805565Y-74999996D01*
X36785369Y-74820750D01*
X36785368Y-74820745D01*
X36783304Y-74814847D01*
X36725789Y-74650478D01*
X36629816Y-74497738D01*
X36502262Y-74370184D01*
X36416159Y-74316082D01*
X36349519Y-74274209D01*
X36246013Y-74237990D01*
X36199287Y-74208630D01*
X33736819Y-71746162D01*
X33703334Y-71684839D01*
X33700500Y-71658481D01*
X33700500Y-50715318D01*
X33720185Y-50648279D01*
X33772989Y-50602524D01*
X33842147Y-50592580D01*
X33905703Y-50621605D01*
X33912181Y-50627637D01*
X44068972Y-60784428D01*
X44102457Y-60845751D01*
X44104819Y-60882916D01*
X44084532Y-61114798D01*
X44084532Y-61114801D01*
X44104364Y-61341486D01*
X44104366Y-61341497D01*
X44163258Y-61561288D01*
X44163260Y-61561294D01*
X44163261Y-61561296D01*
X44163262Y-61561298D01*
X44171002Y-61577897D01*
X44181493Y-61646975D01*
X44152972Y-61710758D01*
X44094495Y-61748997D01*
X44058619Y-61754300D01*
X43431004Y-61754300D01*
X43295677Y-61781218D01*
X43295667Y-61781221D01*
X43168192Y-61834022D01*
X43053454Y-61910687D01*
X42800709Y-62163432D01*
X42753984Y-62192792D01*
X42650476Y-62229011D01*
X42650475Y-62229012D01*
X42497737Y-62324984D01*
X42370184Y-62452537D01*
X42274210Y-62605278D01*
X42214630Y-62775550D01*
X42206898Y-62844183D01*
X42179832Y-62908597D01*
X42122237Y-62948152D01*
X42083678Y-62954300D01*
X39996319Y-62954300D01*
X39929280Y-62934615D01*
X39908638Y-62917981D01*
X35736819Y-58746162D01*
X35703334Y-58684839D01*
X35700500Y-58658481D01*
X35700500Y-55425493D01*
X35719508Y-55359519D01*
X35725787Y-55349525D01*
X35725786Y-55349525D01*
X35725789Y-55349522D01*
X35785368Y-55179255D01*
X35785369Y-55179249D01*
X35805565Y-55000003D01*
X35805565Y-54999996D01*
X35785369Y-54820750D01*
X35785368Y-54820745D01*
X35731986Y-54668189D01*
X35725789Y-54650478D01*
X35704959Y-54617328D01*
X35632659Y-54502263D01*
X35629816Y-54497738D01*
X35502262Y-54370184D01*
X35444582Y-54333941D01*
X35349523Y-54274211D01*
X35179254Y-54214631D01*
X35179249Y-54214630D01*
X35000004Y-54194435D01*
X34999996Y-54194435D01*
X34820750Y-54214630D01*
X34820745Y-54214631D01*
X34650476Y-54274211D01*
X34497737Y-54370184D01*
X34370184Y-54497737D01*
X34274211Y-54650476D01*
X34214631Y-54820745D01*
X34214630Y-54820750D01*
X34194435Y-54999996D01*
X34194435Y-55000003D01*
X34214630Y-55179249D01*
X34214631Y-55179254D01*
X34274212Y-55349525D01*
X34280492Y-55359519D01*
X34299500Y-55425493D01*
X34299500Y-58931006D01*
X34299500Y-59068994D01*
X34299500Y-59068996D01*
X34299499Y-59068996D01*
X34326418Y-59204322D01*
X34326421Y-59204332D01*
X34379222Y-59331807D01*
X34455887Y-59446545D01*
X39208254Y-64198912D01*
X39244098Y-64222862D01*
X39322984Y-64275572D01*
X39322985Y-64275572D01*
X39322989Y-64275575D01*
X39413132Y-64312913D01*
X39433183Y-64321219D01*
X39450471Y-64328380D01*
X39477391Y-64333734D01*
X39567737Y-64351705D01*
X39585806Y-64355300D01*
X39585807Y-64355300D01*
X43354681Y-64355300D01*
X43421720Y-64374985D01*
X43467475Y-64427789D01*
X43477419Y-64496947D01*
X43448394Y-64560503D01*
X43442362Y-64566981D01*
X42800710Y-65208631D01*
X42753985Y-65237991D01*
X42650476Y-65274211D01*
X42650475Y-65274212D01*
X42497737Y-65370184D01*
X42370184Y-65497737D01*
X42274211Y-65650476D01*
X42214631Y-65820745D01*
X42214630Y-65820750D01*
X42194435Y-65999996D01*
X42194435Y-66000003D01*
X42214630Y-66179249D01*
X42214631Y-66179254D01*
X42274211Y-66349523D01*
X42350125Y-66470338D01*
X42370184Y-66502262D01*
X42497738Y-66629816D01*
X42543934Y-66658843D01*
X42613870Y-66702787D01*
X42650478Y-66725789D01*
X42780695Y-66771354D01*
X42820745Y-66785368D01*
X42820750Y-66785369D01*
X42999996Y-66805565D01*
X43000000Y-66805565D01*
X43000004Y-66805565D01*
X43179249Y-66785369D01*
X43179252Y-66785368D01*
X43179255Y-66785368D01*
X43349522Y-66725789D01*
X43502262Y-66629816D01*
X43629816Y-66502262D01*
X43725789Y-66349522D01*
X43762008Y-66246011D01*
X43791366Y-66199289D01*
X43873276Y-66117379D01*
X43934598Y-66083895D01*
X44004290Y-66088879D01*
X44060223Y-66130751D01*
X44084484Y-66194254D01*
X44104364Y-66421486D01*
X44104366Y-66421497D01*
X44163258Y-66641288D01*
X44163260Y-66641292D01*
X44163261Y-66641296D01*
X44191510Y-66701876D01*
X44191935Y-66702787D01*
X44202427Y-66771865D01*
X44173907Y-66835649D01*
X44162375Y-66846966D01*
X42800709Y-68208632D01*
X42753984Y-68237992D01*
X42650476Y-68274211D01*
X42650475Y-68274212D01*
X42497737Y-68370184D01*
X42370184Y-68497737D01*
X42274211Y-68650476D01*
X42214631Y-68820745D01*
X42214630Y-68820750D01*
X42194435Y-68999996D01*
X42194435Y-69000003D01*
X42214630Y-69179249D01*
X42214631Y-69179254D01*
X42274211Y-69349523D01*
X42366544Y-69496469D01*
X42370184Y-69502262D01*
X42497738Y-69629816D01*
X42538251Y-69655272D01*
X42650474Y-69725787D01*
X42650478Y-69725789D01*
X42780695Y-69771354D01*
X42820745Y-69785368D01*
X42820750Y-69785369D01*
X42999996Y-69805565D01*
X43000000Y-69805565D01*
X43000004Y-69805565D01*
X43179249Y-69785369D01*
X43179252Y-69785368D01*
X43179255Y-69785368D01*
X43349522Y-69725789D01*
X43502262Y-69629816D01*
X43629816Y-69502262D01*
X43725789Y-69349522D01*
X43762007Y-69246013D01*
X43791365Y-69199290D01*
X43936606Y-69054049D01*
X43997927Y-69020566D01*
X44067619Y-69025550D01*
X44123552Y-69067422D01*
X44144060Y-69109638D01*
X44163259Y-69181290D01*
X44163261Y-69181297D01*
X44259431Y-69387532D01*
X44335708Y-69496469D01*
X44358035Y-69562675D01*
X44341023Y-69630442D01*
X44321813Y-69655272D01*
X42751090Y-71225994D01*
X42704366Y-71255354D01*
X42650475Y-71274212D01*
X42497737Y-71370184D01*
X42370184Y-71497737D01*
X42274211Y-71650476D01*
X42214631Y-71820745D01*
X42214630Y-71820750D01*
X42194435Y-71999996D01*
X42194435Y-72000003D01*
X42214630Y-72179249D01*
X42214631Y-72179254D01*
X42274211Y-72349523D01*
X42369730Y-72501539D01*
X42370184Y-72502262D01*
X42497738Y-72629816D01*
X42588080Y-72686582D01*
X42595361Y-72691157D01*
X42650478Y-72725789D01*
X42820745Y-72785368D01*
X42820750Y-72785369D01*
X42999996Y-72805565D01*
X43000000Y-72805565D01*
X43000004Y-72805565D01*
X43179249Y-72785369D01*
X43179252Y-72785368D01*
X43179255Y-72785368D01*
X43349522Y-72725789D01*
X43502262Y-72629816D01*
X43629816Y-72502262D01*
X43725789Y-72349522D01*
X43779371Y-72196391D01*
X43808729Y-72149669D01*
X44061524Y-71896874D01*
X44122845Y-71863391D01*
X44192537Y-71868375D01*
X44248470Y-71910247D01*
X44256207Y-71923141D01*
X44256724Y-71922843D01*
X44259432Y-71927534D01*
X44389954Y-72113941D01*
X44550858Y-72274845D01*
X44550861Y-72274847D01*
X44737266Y-72405368D01*
X44795275Y-72432418D01*
X44847714Y-72478591D01*
X44866866Y-72545784D01*
X44846650Y-72612665D01*
X44795275Y-72657182D01*
X44737267Y-72684231D01*
X44737265Y-72684232D01*
X44550858Y-72814754D01*
X44389954Y-72975658D01*
X44259432Y-73162065D01*
X44259431Y-73162067D01*
X44163261Y-73368302D01*
X44163258Y-73368311D01*
X44104366Y-73588102D01*
X44104364Y-73588113D01*
X44084532Y-73814798D01*
X44084532Y-73814801D01*
X44104364Y-74041486D01*
X44104366Y-74041497D01*
X44163258Y-74261288D01*
X44163261Y-74261297D01*
X44259431Y-74467532D01*
X44259432Y-74467534D01*
X44389954Y-74653941D01*
X44550858Y-74814845D01*
X44550861Y-74814847D01*
X44737266Y-74945368D01*
X44943504Y-75041539D01*
X45163308Y-75100435D01*
X45313773Y-75113599D01*
X45389998Y-75120268D01*
X45390000Y-75120268D01*
X45390002Y-75120268D01*
X45446673Y-75115309D01*
X45616692Y-75100435D01*
X45836496Y-75041539D01*
X46042734Y-74945368D01*
X46229139Y-74814847D01*
X46390047Y-74653939D01*
X46520568Y-74467534D01*
X46616739Y-74261296D01*
X46675635Y-74041492D01*
X46695468Y-73814800D01*
X46675635Y-73588108D01*
X46616739Y-73368304D01*
X46520568Y-73162066D01*
X46394140Y-72981507D01*
X46390045Y-72975658D01*
X46229141Y-72814754D01*
X46042734Y-72684232D01*
X46042728Y-72684229D01*
X45984725Y-72657182D01*
X45932285Y-72611010D01*
X45913133Y-72543817D01*
X45933348Y-72476935D01*
X45984725Y-72432418D01*
X46042734Y-72405368D01*
X46229139Y-72274847D01*
X46390047Y-72113939D01*
X46520568Y-71927534D01*
X46616739Y-71721296D01*
X46675635Y-71501492D01*
X46695468Y-71274800D01*
X46695416Y-71274211D01*
X46687108Y-71179249D01*
X46675635Y-71048108D01*
X46616739Y-70828304D01*
X46608998Y-70811703D01*
X46598507Y-70742625D01*
X46627028Y-70678842D01*
X46685505Y-70640603D01*
X46721381Y-70635300D01*
X56134196Y-70635300D01*
X56225240Y-70617189D01*
X56269528Y-70608380D01*
X56333269Y-70581977D01*
X56397007Y-70555577D01*
X56397008Y-70555576D01*
X56397011Y-70555575D01*
X56511743Y-70478914D01*
X57199290Y-69791365D01*
X57246013Y-69762007D01*
X57349522Y-69725789D01*
X57502262Y-69629816D01*
X57629816Y-69502262D01*
X57725789Y-69349522D01*
X57785368Y-69179255D01*
X57785369Y-69179249D01*
X57805565Y-69000003D01*
X57805565Y-68999996D01*
X57785369Y-68820750D01*
X57785368Y-68820745D01*
X57765003Y-68762546D01*
X57725789Y-68650478D01*
X57714386Y-68632331D01*
X57636328Y-68508102D01*
X57629816Y-68497738D01*
X57502262Y-68370184D01*
X57466603Y-68347778D01*
X57349523Y-68274211D01*
X57179254Y-68214631D01*
X57179249Y-68214630D01*
X57000004Y-68194435D01*
X56999996Y-68194435D01*
X56820750Y-68214630D01*
X56820745Y-68214631D01*
X56650476Y-68274211D01*
X56497737Y-68370184D01*
X56370184Y-68497737D01*
X56274212Y-68650475D01*
X56274211Y-68650476D01*
X56237992Y-68753984D01*
X56208632Y-68800709D01*
X55811362Y-69197981D01*
X55750039Y-69231466D01*
X55723681Y-69234300D01*
X46764137Y-69234300D01*
X46697098Y-69214615D01*
X46651343Y-69161811D01*
X46641399Y-69092653D01*
X46644362Y-69078207D01*
X46665318Y-68999996D01*
X46675635Y-68961492D01*
X46695468Y-68734800D01*
X46675635Y-68508108D01*
X46616739Y-68288304D01*
X46608998Y-68271703D01*
X46598507Y-68202625D01*
X46627028Y-68138842D01*
X46685505Y-68100603D01*
X46721381Y-68095300D01*
X55674196Y-68095300D01*
X55765240Y-68077189D01*
X55809528Y-68068380D01*
X55903222Y-68029571D01*
X55937007Y-68015577D01*
X55937008Y-68015576D01*
X55937011Y-68015575D01*
X56051743Y-67938914D01*
X57199290Y-66791365D01*
X57246013Y-66762007D01*
X57349522Y-66725789D01*
X57502262Y-66629816D01*
X57629816Y-66502262D01*
X57725789Y-66349522D01*
X57785368Y-66179255D01*
X57786375Y-66170318D01*
X57805565Y-66000003D01*
X57805565Y-65999996D01*
X57785369Y-65820750D01*
X57785368Y-65820745D01*
X57740610Y-65692834D01*
X57725789Y-65650478D01*
X57629816Y-65497738D01*
X57521448Y-65389370D01*
X57487963Y-65328047D01*
X57492947Y-65258355D01*
X57521448Y-65214008D01*
X58309963Y-64425493D01*
X59116881Y-63618574D01*
X59178202Y-63585091D01*
X59247894Y-63590075D01*
X59303827Y-63631947D01*
X59328088Y-63695449D01*
X59344364Y-63881487D01*
X59344366Y-63881497D01*
X59403258Y-64101288D01*
X59403261Y-64101297D01*
X59499431Y-64307532D01*
X59499432Y-64307534D01*
X59629954Y-64493941D01*
X59790858Y-64654845D01*
X59790861Y-64654847D01*
X59977266Y-64785368D01*
X60035275Y-64812418D01*
X60087714Y-64858591D01*
X60106866Y-64925784D01*
X60086650Y-64992665D01*
X60035275Y-65037182D01*
X59977267Y-65064231D01*
X59977265Y-65064232D01*
X59790858Y-65194754D01*
X59629954Y-65355658D01*
X59499432Y-65542065D01*
X59499431Y-65542067D01*
X59403261Y-65748302D01*
X59403258Y-65748311D01*
X59344366Y-65968102D01*
X59344364Y-65968113D01*
X59324532Y-66194798D01*
X59324532Y-66194801D01*
X59344364Y-66421486D01*
X59344366Y-66421497D01*
X59403258Y-66641288D01*
X59403261Y-66641297D01*
X59499431Y-66847532D01*
X59499432Y-66847534D01*
X59629954Y-67033941D01*
X59790858Y-67194845D01*
X59790861Y-67194847D01*
X59977266Y-67325368D01*
X60035275Y-67352418D01*
X60087714Y-67398591D01*
X60106866Y-67465784D01*
X60086650Y-67532665D01*
X60035275Y-67577182D01*
X59977267Y-67604231D01*
X59977265Y-67604232D01*
X59790858Y-67734754D01*
X59629954Y-67895658D01*
X59499432Y-68082065D01*
X59499431Y-68082067D01*
X59403261Y-68288302D01*
X59403258Y-68288311D01*
X59344366Y-68508102D01*
X59344364Y-68508113D01*
X59324532Y-68734798D01*
X59324532Y-68734801D01*
X59344364Y-68961486D01*
X59344366Y-68961497D01*
X59403258Y-69181288D01*
X59403261Y-69181297D01*
X59499431Y-69387532D01*
X59499432Y-69387534D01*
X59629954Y-69573941D01*
X59790858Y-69734845D01*
X59790861Y-69734847D01*
X59977266Y-69865368D01*
X60035275Y-69892418D01*
X60087714Y-69938591D01*
X60106866Y-70005784D01*
X60086650Y-70072665D01*
X60035275Y-70117181D01*
X60018272Y-70125110D01*
X59977267Y-70144231D01*
X59977265Y-70144232D01*
X59790858Y-70274754D01*
X59629954Y-70435658D01*
X59499432Y-70622065D01*
X59499431Y-70622067D01*
X59403261Y-70828302D01*
X59403258Y-70828311D01*
X59344366Y-71048102D01*
X59344364Y-71048113D01*
X59324532Y-71274798D01*
X59324532Y-71274801D01*
X59344364Y-71501486D01*
X59344366Y-71501497D01*
X59403258Y-71721288D01*
X59403261Y-71721297D01*
X59499431Y-71927532D01*
X59499432Y-71927534D01*
X59629954Y-72113941D01*
X59790858Y-72274845D01*
X59790861Y-72274847D01*
X59977266Y-72405368D01*
X60035275Y-72432418D01*
X60087714Y-72478591D01*
X60106866Y-72545784D01*
X60086650Y-72612665D01*
X60035275Y-72657182D01*
X59977267Y-72684231D01*
X59977265Y-72684232D01*
X59790858Y-72814754D01*
X59629954Y-72975658D01*
X59499432Y-73162065D01*
X59499431Y-73162067D01*
X59403261Y-73368302D01*
X59403258Y-73368311D01*
X59344366Y-73588102D01*
X59344364Y-73588113D01*
X59324532Y-73814798D01*
X59324532Y-73814801D01*
X59344364Y-74041486D01*
X59344366Y-74041497D01*
X59403258Y-74261288D01*
X59403261Y-74261297D01*
X59499431Y-74467532D01*
X59499432Y-74467534D01*
X59629954Y-74653941D01*
X59790858Y-74814845D01*
X59790861Y-74814847D01*
X59977266Y-74945368D01*
X60183504Y-75041539D01*
X60403308Y-75100435D01*
X60553773Y-75113599D01*
X60629998Y-75120268D01*
X60630000Y-75120268D01*
X60630002Y-75120268D01*
X60686673Y-75115309D01*
X60856692Y-75100435D01*
X61076496Y-75041539D01*
X61282734Y-74945368D01*
X61469139Y-74814847D01*
X61630047Y-74653939D01*
X61690098Y-74568177D01*
X61744675Y-74524552D01*
X61791673Y-74515300D01*
X62254196Y-74515300D01*
X62345240Y-74497189D01*
X62389528Y-74488380D01*
X62490532Y-74446543D01*
X62517007Y-74435577D01*
X62517008Y-74435576D01*
X62517011Y-74435575D01*
X62631743Y-74358914D01*
X65991729Y-70998926D01*
X66053050Y-70965443D01*
X66122742Y-70970427D01*
X66178675Y-71012299D01*
X66202628Y-71072725D01*
X66214630Y-71179250D01*
X66214631Y-71179254D01*
X66274212Y-71349525D01*
X66280492Y-71359519D01*
X66299500Y-71425493D01*
X66299500Y-77574507D01*
X66280494Y-77640478D01*
X66274209Y-77650479D01*
X66214633Y-77820737D01*
X66214630Y-77820750D01*
X66194435Y-77999996D01*
X66194435Y-78000003D01*
X66214630Y-78179249D01*
X66214631Y-78179254D01*
X66274211Y-78349523D01*
X66333449Y-78443799D01*
X66370184Y-78502262D01*
X66497738Y-78629816D01*
X66650478Y-78725789D01*
X66820745Y-78785368D01*
X66820750Y-78785369D01*
X66999996Y-78805565D01*
X67000000Y-78805565D01*
X67000004Y-78805565D01*
X67179249Y-78785369D01*
X67179252Y-78785368D01*
X67179255Y-78785368D01*
X67349522Y-78725789D01*
X67502262Y-78629816D01*
X67629816Y-78502262D01*
X67725789Y-78349522D01*
X67785368Y-78179255D01*
X67785369Y-78179249D01*
X67805565Y-78000003D01*
X67805565Y-77999996D01*
X67785369Y-77820750D01*
X67785366Y-77820737D01*
X67725790Y-77650479D01*
X67719506Y-77640478D01*
X67700500Y-77574507D01*
X67700500Y-75910576D01*
X67720185Y-75843537D01*
X67772989Y-75797782D01*
X67838383Y-75787356D01*
X67999996Y-75805565D01*
X68000000Y-75805565D01*
X68000004Y-75805565D01*
X68179249Y-75785369D01*
X68179252Y-75785368D01*
X68179255Y-75785368D01*
X68349522Y-75725789D01*
X68502262Y-75629816D01*
X68629816Y-75502262D01*
X68725789Y-75349522D01*
X68762007Y-75246013D01*
X68791365Y-75199290D01*
X69087820Y-74902836D01*
X69149142Y-74869352D01*
X69218834Y-74874336D01*
X69274767Y-74916208D01*
X69299184Y-74981672D01*
X69299500Y-74990518D01*
X69299500Y-78574507D01*
X69280494Y-78640478D01*
X69274209Y-78650479D01*
X69214633Y-78820737D01*
X69214630Y-78820750D01*
X69194435Y-78999996D01*
X69194435Y-79000003D01*
X69214630Y-79179249D01*
X69214631Y-79179254D01*
X69274211Y-79349523D01*
X69339157Y-79452883D01*
X69370184Y-79502262D01*
X69497738Y-79629816D01*
X69650478Y-79725789D01*
X69820745Y-79785368D01*
X69820750Y-79785369D01*
X69999996Y-79805565D01*
X70000000Y-79805565D01*
X70000004Y-79805565D01*
X70179249Y-79785369D01*
X70179252Y-79785368D01*
X70179255Y-79785368D01*
X70349522Y-79725789D01*
X70502262Y-79629816D01*
X70629816Y-79502262D01*
X70725789Y-79349522D01*
X70785368Y-79179255D01*
X70805565Y-79000000D01*
X70785368Y-78820745D01*
X70785367Y-78820743D01*
X70785366Y-78820737D01*
X70725790Y-78650479D01*
X70719506Y-78640478D01*
X70700500Y-78574507D01*
X70700500Y-73972155D01*
X71745000Y-73972155D01*
X71745000Y-75750000D01*
X72624175Y-75750000D01*
X72600364Y-75807485D01*
X72575000Y-75934996D01*
X72575000Y-76065004D01*
X72600364Y-76192515D01*
X72624175Y-76250000D01*
X71745000Y-76250000D01*
X71745000Y-78027844D01*
X71751401Y-78087372D01*
X71751403Y-78087379D01*
X71801645Y-78222086D01*
X71801649Y-78222093D01*
X71887809Y-78337187D01*
X71887812Y-78337190D01*
X72002906Y-78423350D01*
X72002913Y-78423354D01*
X72137620Y-78473596D01*
X72137627Y-78473598D01*
X72197155Y-78479999D01*
X72197172Y-78480000D01*
X72985000Y-78480000D01*
X72985000Y-76610824D01*
X73042485Y-76634636D01*
X73169996Y-76660000D01*
X73300004Y-76660000D01*
X73427515Y-76634636D01*
X73485000Y-76610824D01*
X73485000Y-78480000D01*
X74272828Y-78480000D01*
X74272844Y-78479999D01*
X74332372Y-78473598D01*
X74332379Y-78473596D01*
X74467086Y-78423354D01*
X74467093Y-78423350D01*
X74582187Y-78337190D01*
X74582190Y-78337187D01*
X74668350Y-78222093D01*
X74668354Y-78222086D01*
X74718596Y-78087379D01*
X74718598Y-78087372D01*
X74724999Y-78027844D01*
X74725000Y-78027827D01*
X74725000Y-76250000D01*
X73845825Y-76250000D01*
X73869636Y-76192515D01*
X73895000Y-76065004D01*
X73895000Y-75934996D01*
X73869636Y-75807485D01*
X73845825Y-75750000D01*
X74725000Y-75750000D01*
X74725000Y-74892695D01*
X76744500Y-74892695D01*
X76744500Y-77107305D01*
X76757445Y-77189035D01*
X76781201Y-77339027D01*
X76853697Y-77562150D01*
X76888175Y-77629816D01*
X76937075Y-77725788D01*
X76960212Y-77771195D01*
X77098104Y-77960989D01*
X77098108Y-77960994D01*
X77264005Y-78126891D01*
X77264010Y-78126895D01*
X77357966Y-78195157D01*
X77453808Y-78264790D01*
X77662847Y-78371301D01*
X77662849Y-78371302D01*
X77774410Y-78407550D01*
X77885974Y-78443799D01*
X78117695Y-78480500D01*
X78117696Y-78480500D01*
X78352304Y-78480500D01*
X78352305Y-78480500D01*
X78584026Y-78443799D01*
X78807153Y-78371301D01*
X79016192Y-78264790D01*
X79205996Y-78126890D01*
X79371890Y-77960996D01*
X79509790Y-77771192D01*
X79616301Y-77562153D01*
X79688799Y-77339026D01*
X79725500Y-77107305D01*
X79725500Y-74892695D01*
X79688799Y-74660974D01*
X79635761Y-74497738D01*
X79616302Y-74437849D01*
X79581825Y-74370184D01*
X79509790Y-74228808D01*
X79454406Y-74152578D01*
X79371895Y-74039010D01*
X79371891Y-74039005D01*
X79205994Y-73873108D01*
X79205989Y-73873104D01*
X79016195Y-73735212D01*
X79016194Y-73735211D01*
X79016192Y-73735210D01*
X78884662Y-73668192D01*
X78807150Y-73628697D01*
X78584027Y-73556201D01*
X78468165Y-73537850D01*
X78352305Y-73519500D01*
X78117695Y-73519500D01*
X78040454Y-73531733D01*
X77885972Y-73556201D01*
X77662849Y-73628697D01*
X77453804Y-73735212D01*
X77264010Y-73873104D01*
X77264005Y-73873108D01*
X77098108Y-74039005D01*
X77098104Y-74039010D01*
X76960212Y-74228804D01*
X76853697Y-74437849D01*
X76781201Y-74660972D01*
X76776420Y-74691157D01*
X76744500Y-74892695D01*
X74725000Y-74892695D01*
X74725000Y-73972172D01*
X74724999Y-73972155D01*
X74718598Y-73912627D01*
X74718596Y-73912620D01*
X74668354Y-73777913D01*
X74668350Y-73777906D01*
X74582190Y-73662812D01*
X74582187Y-73662809D01*
X74467093Y-73576649D01*
X74467086Y-73576645D01*
X74332379Y-73526403D01*
X74332372Y-73526401D01*
X74272844Y-73520000D01*
X73485000Y-73520000D01*
X73485000Y-75389175D01*
X73427515Y-75365364D01*
X73300004Y-75340000D01*
X73169996Y-75340000D01*
X73042485Y-75365364D01*
X72985000Y-75389175D01*
X72985000Y-73520000D01*
X72197155Y-73520000D01*
X72137627Y-73526401D01*
X72137620Y-73526403D01*
X72002913Y-73576645D01*
X72002906Y-73576649D01*
X71887812Y-73662809D01*
X71887809Y-73662812D01*
X71801649Y-73777906D01*
X71801645Y-73777913D01*
X71751403Y-73912620D01*
X71751401Y-73912627D01*
X71745000Y-73972155D01*
X70700500Y-73972155D01*
X70700500Y-68999996D01*
X74194435Y-68999996D01*
X74194435Y-69000003D01*
X74214630Y-69179249D01*
X74214631Y-69179254D01*
X74274211Y-69349523D01*
X74366544Y-69496469D01*
X74370184Y-69502262D01*
X74497738Y-69629816D01*
X74538251Y-69655272D01*
X74650474Y-69725787D01*
X74650478Y-69725789D01*
X74780695Y-69771354D01*
X74820745Y-69785368D01*
X74820750Y-69785369D01*
X74999996Y-69805565D01*
X75000000Y-69805565D01*
X75000004Y-69805565D01*
X75179249Y-69785369D01*
X75179252Y-69785368D01*
X75179255Y-69785368D01*
X75349522Y-69725789D01*
X75350488Y-69725181D01*
X75359523Y-69719506D01*
X75425494Y-69700500D01*
X79574506Y-69700500D01*
X79640477Y-69719506D01*
X79650474Y-69725787D01*
X79650475Y-69725787D01*
X79650478Y-69725789D01*
X79820745Y-69785368D01*
X79820750Y-69785369D01*
X79999996Y-69805565D01*
X80000000Y-69805565D01*
X80000004Y-69805565D01*
X80179249Y-69785369D01*
X80179252Y-69785368D01*
X80179255Y-69785368D01*
X80349522Y-69725789D01*
X80502262Y-69629816D01*
X80629816Y-69502262D01*
X80725789Y-69349522D01*
X80785368Y-69179255D01*
X80785369Y-69179249D01*
X80805565Y-69000003D01*
X80805565Y-68999996D01*
X80785369Y-68820750D01*
X80785368Y-68820745D01*
X80765003Y-68762546D01*
X80725789Y-68650478D01*
X80714386Y-68632331D01*
X80636328Y-68508102D01*
X80629816Y-68497738D01*
X80502262Y-68370184D01*
X80466603Y-68347778D01*
X80349523Y-68274211D01*
X80179254Y-68214631D01*
X80179249Y-68214630D01*
X80000004Y-68194435D01*
X79999996Y-68194435D01*
X79820750Y-68214630D01*
X79820745Y-68214631D01*
X79650474Y-68274212D01*
X79640477Y-68280494D01*
X79574506Y-68299500D01*
X75425494Y-68299500D01*
X75359523Y-68280494D01*
X75349525Y-68274212D01*
X75179254Y-68214631D01*
X75179249Y-68214630D01*
X75000004Y-68194435D01*
X74999996Y-68194435D01*
X74820750Y-68214630D01*
X74820745Y-68214631D01*
X74650476Y-68274211D01*
X74497737Y-68370184D01*
X74370184Y-68497737D01*
X74274211Y-68650476D01*
X74214631Y-68820745D01*
X74214630Y-68820750D01*
X74194435Y-68999996D01*
X70700500Y-68999996D01*
X70700500Y-57990519D01*
X70720185Y-57923480D01*
X70772989Y-57877725D01*
X70842147Y-57867781D01*
X70905703Y-57896806D01*
X70912181Y-57902838D01*
X73001070Y-59991727D01*
X73034555Y-60053050D01*
X73029571Y-60122742D01*
X72987699Y-60178675D01*
X72927273Y-60202628D01*
X72820749Y-60214630D01*
X72820745Y-60214631D01*
X72650476Y-60274211D01*
X72497737Y-60370184D01*
X72370184Y-60497737D01*
X72274211Y-60650476D01*
X72214631Y-60820745D01*
X72214630Y-60820750D01*
X72194435Y-60999996D01*
X72194435Y-61000003D01*
X72214630Y-61179249D01*
X72214631Y-61179254D01*
X72274211Y-61349523D01*
X72334310Y-61445169D01*
X72370184Y-61502262D01*
X72497738Y-61629816D01*
X72588080Y-61686582D01*
X72638051Y-61717981D01*
X72650478Y-61725789D01*
X72753984Y-61762007D01*
X72800710Y-61791367D01*
X74110726Y-63101383D01*
X74144211Y-63162706D01*
X74139227Y-63232398D01*
X74097355Y-63288331D01*
X74031891Y-63312748D01*
X74023045Y-63313064D01*
X73105983Y-63313064D01*
X73038944Y-63293379D01*
X72993189Y-63240575D01*
X72988942Y-63230019D01*
X72969946Y-63175732D01*
X72873970Y-63022989D01*
X72746417Y-62895436D01*
X72593678Y-62799463D01*
X72423409Y-62739883D01*
X72423404Y-62739882D01*
X72244159Y-62719687D01*
X72244151Y-62719687D01*
X72064905Y-62739882D01*
X72064900Y-62739883D01*
X71894631Y-62799463D01*
X71741892Y-62895436D01*
X71614339Y-63022989D01*
X71518366Y-63175728D01*
X71458786Y-63345997D01*
X71458785Y-63346002D01*
X71438590Y-63525248D01*
X71438590Y-63525255D01*
X71458785Y-63704501D01*
X71458786Y-63704506D01*
X71518366Y-63874775D01*
X71582290Y-63976508D01*
X71614339Y-64027514D01*
X71741893Y-64155068D01*
X71894633Y-64251041D01*
X71964738Y-64275572D01*
X71998138Y-64287259D01*
X72044865Y-64316619D01*
X72188353Y-64460106D01*
X72239870Y-64511623D01*
X72285926Y-64557679D01*
X72400649Y-64634335D01*
X72400653Y-64634337D01*
X72400656Y-64634339D01*
X72475333Y-64665271D01*
X72475334Y-64665271D01*
X72475336Y-64665273D01*
X72533765Y-64689475D01*
X72532780Y-64691851D01*
X72581846Y-64723986D01*
X72610321Y-64787789D01*
X72599780Y-64856860D01*
X72561747Y-64903642D01*
X72448452Y-64988455D01*
X72362206Y-65103664D01*
X72362202Y-65103671D01*
X72311908Y-65238517D01*
X72305501Y-65298116D01*
X72305500Y-65298135D01*
X72305500Y-66701870D01*
X72305501Y-66701876D01*
X72311908Y-66761483D01*
X72362202Y-66896328D01*
X72362206Y-66896335D01*
X72448452Y-67011544D01*
X72448455Y-67011547D01*
X72563664Y-67097793D01*
X72563671Y-67097797D01*
X72698517Y-67148091D01*
X72698516Y-67148091D01*
X72705444Y-67148835D01*
X72758127Y-67154500D01*
X74161872Y-67154499D01*
X74221483Y-67148091D01*
X74356331Y-67097796D01*
X74471546Y-67011546D01*
X74557796Y-66896331D01*
X74608091Y-66761483D01*
X74614500Y-66701873D01*
X74614499Y-65340881D01*
X74634184Y-65273843D01*
X74686987Y-65228088D01*
X74756146Y-65218144D01*
X74819702Y-65247169D01*
X74826180Y-65253201D01*
X75283611Y-65710633D01*
X75283612Y-65710634D01*
X75398350Y-65787299D01*
X75518213Y-65836947D01*
X75525830Y-65840102D01*
X75525834Y-65840102D01*
X75525835Y-65840103D01*
X75661161Y-65867022D01*
X75661164Y-65867022D01*
X77155574Y-65867022D01*
X77234335Y-65851355D01*
X77303927Y-65857582D01*
X77359104Y-65900445D01*
X77382349Y-65966334D01*
X77381998Y-65984412D01*
X77380554Y-65999997D01*
X77380554Y-66000000D01*
X77400295Y-66213047D01*
X77400296Y-66213050D01*
X77458846Y-66418835D01*
X77458849Y-66418841D01*
X77547819Y-66597517D01*
X77554219Y-66610370D01*
X77683159Y-66781114D01*
X77841278Y-66925258D01*
X77841283Y-66925261D01*
X77841286Y-66925263D01*
X78023186Y-67037891D01*
X78023187Y-67037891D01*
X78023190Y-67037893D01*
X78222703Y-67115185D01*
X78433020Y-67154500D01*
X78433022Y-67154500D01*
X78646978Y-67154500D01*
X78646980Y-67154500D01*
X78857297Y-67115185D01*
X79056810Y-67037893D01*
X79238722Y-66925258D01*
X79396841Y-66781114D01*
X79525781Y-66610370D01*
X79621151Y-66418840D01*
X79621151Y-66418837D01*
X79621153Y-66418835D01*
X79666002Y-66261204D01*
X79679704Y-66213048D01*
X79699446Y-66000000D01*
X79688919Y-65886402D01*
X79679704Y-65786952D01*
X79679703Y-65786949D01*
X79621153Y-65581164D01*
X79621150Y-65581158D01*
X79579612Y-65497738D01*
X79525781Y-65389630D01*
X79396841Y-65218886D01*
X79238722Y-65074742D01*
X79238716Y-65074738D01*
X79238713Y-65074736D01*
X79056813Y-64962108D01*
X79056807Y-64962106D01*
X78857297Y-64884815D01*
X78668666Y-64849553D01*
X78606386Y-64817886D01*
X78571113Y-64757573D01*
X78574047Y-64687765D01*
X78603769Y-64639986D01*
X79103473Y-64140282D01*
X79150196Y-64110924D01*
X79253705Y-64074706D01*
X79406445Y-63978733D01*
X79533999Y-63851179D01*
X79629972Y-63698439D01*
X79689551Y-63528172D01*
X79689880Y-63525252D01*
X79709748Y-63348920D01*
X79709748Y-63348913D01*
X79689552Y-63169667D01*
X79689551Y-63169662D01*
X79684832Y-63156177D01*
X79629972Y-62999395D01*
X79629971Y-62999393D01*
X79629970Y-62999390D01*
X79575131Y-62912115D01*
X79556130Y-62844879D01*
X79576497Y-62778044D01*
X79629765Y-62732829D01*
X79699021Y-62723591D01*
X79762278Y-62753263D01*
X79767805Y-62758462D01*
X80208630Y-63199287D01*
X80237990Y-63246013D01*
X80274209Y-63349519D01*
X80274211Y-63349522D01*
X80370184Y-63502262D01*
X80497738Y-63629816D01*
X80553633Y-63664937D01*
X80620882Y-63707193D01*
X80650478Y-63725789D01*
X80807396Y-63780697D01*
X80820745Y-63785368D01*
X80820750Y-63785369D01*
X80999996Y-63805565D01*
X81000000Y-63805565D01*
X81000004Y-63805565D01*
X81179249Y-63785369D01*
X81179252Y-63785368D01*
X81179255Y-63785368D01*
X81349522Y-63725789D01*
X81502262Y-63629816D01*
X81629816Y-63502262D01*
X81725789Y-63349522D01*
X81785368Y-63179255D01*
X81785765Y-63175730D01*
X81805565Y-63000003D01*
X81805565Y-62999996D01*
X81785369Y-62820750D01*
X81785368Y-62820745D01*
X81725676Y-62650155D01*
X81722115Y-62580376D01*
X81756844Y-62519748D01*
X81818837Y-62487521D01*
X81888412Y-62493926D01*
X81930399Y-62521519D01*
X82560557Y-63151677D01*
X82594042Y-63213000D01*
X82589058Y-63282692D01*
X82547186Y-63338625D01*
X82538850Y-63344351D01*
X82497736Y-63370185D01*
X82370184Y-63497737D01*
X82274211Y-63650476D01*
X82214631Y-63820745D01*
X82214630Y-63820750D01*
X82194435Y-63999996D01*
X82194435Y-64000003D01*
X82214630Y-64179249D01*
X82214631Y-64179254D01*
X82274212Y-64349525D01*
X82280492Y-64359519D01*
X82299500Y-64425493D01*
X82299500Y-79574507D01*
X82280494Y-79640478D01*
X82274209Y-79650479D01*
X82214633Y-79820737D01*
X82214630Y-79820750D01*
X82194435Y-79999996D01*
X82194435Y-80000003D01*
X82214630Y-80179249D01*
X82214631Y-80179254D01*
X82274211Y-80349523D01*
X82370184Y-80502262D01*
X82497738Y-80629816D01*
X82650478Y-80725789D01*
X82820745Y-80785368D01*
X82820750Y-80785369D01*
X82999996Y-80805565D01*
X83000000Y-80805565D01*
X83000004Y-80805565D01*
X83179249Y-80785369D01*
X83179252Y-80785368D01*
X83179255Y-80785368D01*
X83349522Y-80725789D01*
X83502262Y-80629816D01*
X83629816Y-80502262D01*
X83725789Y-80349522D01*
X83785368Y-80179255D01*
X83805565Y-80000000D01*
X83794917Y-79905499D01*
X83785369Y-79820750D01*
X83785366Y-79820737D01*
X83725790Y-79650479D01*
X83719506Y-79640478D01*
X83700500Y-79574507D01*
X83700500Y-64590981D01*
X83720185Y-64523942D01*
X83772989Y-64478187D01*
X83842147Y-64468243D01*
X83905703Y-64497268D01*
X83912171Y-64503290D01*
X84038696Y-64629815D01*
X84263181Y-64854300D01*
X84296666Y-64915623D01*
X84299500Y-64941981D01*
X84299500Y-65931006D01*
X84299500Y-66068994D01*
X84299500Y-66068996D01*
X84299499Y-66068996D01*
X84326418Y-66204322D01*
X84326421Y-66204332D01*
X84379222Y-66331807D01*
X84455887Y-66446545D01*
X86108454Y-68099112D01*
X86223192Y-68175777D01*
X86316998Y-68214632D01*
X86350672Y-68228580D01*
X86481875Y-68254678D01*
X86543786Y-68287062D01*
X86578360Y-68347778D01*
X86574621Y-68417548D01*
X86545365Y-68463976D01*
X84455887Y-70553454D01*
X84419188Y-70608380D01*
X84379223Y-70668191D01*
X84326421Y-70795667D01*
X84326418Y-70795677D01*
X84299500Y-70931004D01*
X84299500Y-70931006D01*
X84299500Y-70931007D01*
X84299500Y-75486006D01*
X84299500Y-75623994D01*
X84299500Y-75623996D01*
X84299499Y-75623996D01*
X84326418Y-75759322D01*
X84326421Y-75759332D01*
X84379222Y-75886807D01*
X84455887Y-76001545D01*
X84455888Y-76001546D01*
X86613181Y-78158838D01*
X86646666Y-78220161D01*
X86649500Y-78246519D01*
X86649500Y-79452870D01*
X86649501Y-79452876D01*
X86655908Y-79512483D01*
X86706202Y-79647328D01*
X86706206Y-79647335D01*
X86792452Y-79762544D01*
X86792455Y-79762547D01*
X86907664Y-79848793D01*
X86907671Y-79848797D01*
X87042517Y-79899091D01*
X87042516Y-79899091D01*
X87049444Y-79899835D01*
X87102127Y-79905500D01*
X88897872Y-79905499D01*
X88957483Y-79899091D01*
X89092331Y-79848796D01*
X89207546Y-79762546D01*
X89293796Y-79647331D01*
X89344091Y-79512483D01*
X89350500Y-79452873D01*
X89350499Y-77657128D01*
X89344091Y-77597517D01*
X89308563Y-77502262D01*
X89293797Y-77462671D01*
X89293793Y-77462664D01*
X89207547Y-77347455D01*
X89207544Y-77347452D01*
X89092335Y-77261206D01*
X89092328Y-77261202D01*
X88960917Y-77212189D01*
X88904983Y-77170318D01*
X88880566Y-77104853D01*
X88895418Y-77036580D01*
X88916563Y-77008332D01*
X89038495Y-76886401D01*
X89174035Y-76692830D01*
X89273903Y-76478663D01*
X89335063Y-76250408D01*
X89355659Y-76015000D01*
X89335063Y-75779592D01*
X89273903Y-75551337D01*
X89174035Y-75337171D01*
X89153028Y-75307169D01*
X89038494Y-75143597D01*
X88871402Y-74976506D01*
X88871401Y-74976505D01*
X88685405Y-74846269D01*
X88641781Y-74791692D01*
X88634588Y-74722193D01*
X88666110Y-74659839D01*
X88685405Y-74643119D01*
X88871082Y-74513105D01*
X89038105Y-74346082D01*
X89173600Y-74152578D01*
X89273429Y-73938492D01*
X89273432Y-73938486D01*
X89330636Y-73725000D01*
X88433012Y-73725000D01*
X88465925Y-73667993D01*
X88500000Y-73540826D01*
X88500000Y-73409174D01*
X88465925Y-73282007D01*
X88433012Y-73225000D01*
X89330636Y-73225000D01*
X89330635Y-73224999D01*
X89273432Y-73011513D01*
X89273429Y-73011507D01*
X89173600Y-72797422D01*
X89173599Y-72797420D01*
X89038113Y-72603926D01*
X89038108Y-72603920D01*
X88871082Y-72436894D01*
X88677578Y-72301399D01*
X88463492Y-72201570D01*
X88463486Y-72201567D01*
X88250000Y-72144364D01*
X88250000Y-73041988D01*
X88192993Y-73009075D01*
X88065826Y-72975000D01*
X87934174Y-72975000D01*
X87807007Y-73009075D01*
X87750000Y-73041988D01*
X87750000Y-72144364D01*
X87749999Y-72144364D01*
X87536513Y-72201567D01*
X87536507Y-72201570D01*
X87322422Y-72301399D01*
X87322420Y-72301400D01*
X87128926Y-72436886D01*
X87128920Y-72436891D01*
X86961891Y-72603920D01*
X86961886Y-72603926D01*
X86826400Y-72797420D01*
X86826399Y-72797422D01*
X86726570Y-73011507D01*
X86726567Y-73011513D01*
X86669364Y-73224999D01*
X86669364Y-73225000D01*
X87566988Y-73225000D01*
X87534075Y-73282007D01*
X87500000Y-73409174D01*
X87500000Y-73540826D01*
X87534075Y-73667993D01*
X87566988Y-73725000D01*
X86669364Y-73725000D01*
X86726567Y-73938486D01*
X86726570Y-73938492D01*
X86826399Y-74152578D01*
X86961894Y-74346082D01*
X87128917Y-74513105D01*
X87314595Y-74643119D01*
X87358219Y-74697696D01*
X87365412Y-74767195D01*
X87333890Y-74829549D01*
X87314595Y-74846269D01*
X87128594Y-74976508D01*
X86961505Y-75143597D01*
X86825965Y-75337169D01*
X86825964Y-75337171D01*
X86726098Y-75551335D01*
X86726094Y-75551344D01*
X86664938Y-75779586D01*
X86664936Y-75779596D01*
X86651935Y-75928196D01*
X86626482Y-75993265D01*
X86569891Y-76034243D01*
X86500129Y-76038121D01*
X86440726Y-76005069D01*
X85736819Y-75301162D01*
X85703334Y-75239839D01*
X85700500Y-75213481D01*
X85700500Y-71341518D01*
X85720185Y-71274479D01*
X85736814Y-71253842D01*
X88048838Y-68941817D01*
X88110161Y-68908333D01*
X88136519Y-68905499D01*
X88897871Y-68905499D01*
X88897872Y-68905499D01*
X88957483Y-68899091D01*
X89092331Y-68848796D01*
X89207546Y-68762546D01*
X89293796Y-68647331D01*
X89344091Y-68512483D01*
X89350500Y-68452873D01*
X89350499Y-66657128D01*
X89344091Y-66597517D01*
X89338496Y-66582517D01*
X89293797Y-66462671D01*
X89293793Y-66462664D01*
X89207547Y-66347455D01*
X89207544Y-66347452D01*
X89092335Y-66261206D01*
X89092328Y-66261202D01*
X88960917Y-66212189D01*
X88904983Y-66170318D01*
X88880566Y-66104853D01*
X88895418Y-66036580D01*
X88916563Y-66008332D01*
X89038495Y-65886401D01*
X89174035Y-65692830D01*
X89273903Y-65478663D01*
X89335063Y-65250408D01*
X89355659Y-65015000D01*
X89353336Y-64988454D01*
X89351031Y-64962106D01*
X89335063Y-64779592D01*
X89273903Y-64551337D01*
X89174035Y-64337171D01*
X89171629Y-64333734D01*
X89038494Y-64143597D01*
X88871402Y-63976506D01*
X88871401Y-63976505D01*
X88685405Y-63846269D01*
X88641781Y-63791692D01*
X88634588Y-63722193D01*
X88666110Y-63659839D01*
X88685405Y-63643119D01*
X88871082Y-63513105D01*
X89038105Y-63346082D01*
X89173600Y-63152578D01*
X89273429Y-62938492D01*
X89273432Y-62938486D01*
X89330636Y-62725000D01*
X88433012Y-62725000D01*
X88465925Y-62667993D01*
X88500000Y-62540826D01*
X88500000Y-62409174D01*
X88465925Y-62282007D01*
X88433012Y-62225000D01*
X89330636Y-62225000D01*
X89330635Y-62224999D01*
X89273432Y-62011513D01*
X89273429Y-62011507D01*
X89173600Y-61797422D01*
X89173599Y-61797420D01*
X89038113Y-61603926D01*
X89038108Y-61603920D01*
X88871082Y-61436894D01*
X88677578Y-61301399D01*
X88463492Y-61201570D01*
X88463486Y-61201567D01*
X88250000Y-61144364D01*
X88250000Y-62041988D01*
X88192993Y-62009075D01*
X88065826Y-61975000D01*
X87934174Y-61975000D01*
X87807007Y-62009075D01*
X87750000Y-62041988D01*
X87750000Y-61144364D01*
X87749999Y-61144364D01*
X87536513Y-61201567D01*
X87536507Y-61201570D01*
X87322422Y-61301399D01*
X87322420Y-61301400D01*
X87128926Y-61436886D01*
X87128920Y-61436891D01*
X86961891Y-61603920D01*
X86961886Y-61603926D01*
X86826400Y-61797420D01*
X86826399Y-61797422D01*
X86726570Y-62011507D01*
X86726567Y-62011513D01*
X86669364Y-62224999D01*
X86669364Y-62225000D01*
X87566988Y-62225000D01*
X87534075Y-62282007D01*
X87500000Y-62409174D01*
X87500000Y-62540826D01*
X87534075Y-62667993D01*
X87566988Y-62725000D01*
X86669364Y-62725000D01*
X86726567Y-62938486D01*
X86726570Y-62938492D01*
X86826399Y-63152578D01*
X86961894Y-63346082D01*
X87128917Y-63513105D01*
X87314595Y-63643119D01*
X87358219Y-63697696D01*
X87365412Y-63767195D01*
X87333890Y-63829549D01*
X87314595Y-63846269D01*
X87128594Y-63976508D01*
X86961505Y-64143597D01*
X86825965Y-64337169D01*
X86825964Y-64337171D01*
X86726098Y-64551335D01*
X86726094Y-64551344D01*
X86664938Y-64779586D01*
X86664936Y-64779596D01*
X86644341Y-65014999D01*
X86644341Y-65015000D01*
X86664936Y-65250403D01*
X86664938Y-65250413D01*
X86726094Y-65478655D01*
X86726096Y-65478659D01*
X86726097Y-65478663D01*
X86773894Y-65581164D01*
X86825965Y-65692830D01*
X86825967Y-65692834D01*
X86926877Y-65836947D01*
X86961501Y-65886396D01*
X86961506Y-65886402D01*
X87083430Y-66008326D01*
X87116915Y-66069649D01*
X87111931Y-66139341D01*
X87070059Y-66195274D01*
X87039083Y-66212189D01*
X86907669Y-66261203D01*
X86907664Y-66261206D01*
X86792455Y-66347452D01*
X86792452Y-66347455D01*
X86706206Y-66462664D01*
X86706200Y-66462676D01*
X86704931Y-66466078D01*
X86702758Y-66468980D01*
X86701953Y-66470454D01*
X86701741Y-66470338D01*
X86663055Y-66522007D01*
X86597588Y-66546419D01*
X86529317Y-66531561D01*
X86501072Y-66510415D01*
X85736819Y-65746162D01*
X85703334Y-65684839D01*
X85700500Y-65658481D01*
X85700500Y-64531467D01*
X85673581Y-64396139D01*
X85673580Y-64396138D01*
X85673580Y-64396135D01*
X85665744Y-64377218D01*
X85642549Y-64321220D01*
X85640643Y-64316619D01*
X85632354Y-64296607D01*
X85620775Y-64268652D01*
X85620773Y-64268650D01*
X85620773Y-64268648D01*
X85544115Y-64153922D01*
X85501116Y-64110923D01*
X85446542Y-64056349D01*
X83774010Y-62383817D01*
X82075172Y-60684978D01*
X82041687Y-60623655D01*
X82046671Y-60553963D01*
X82088543Y-60498030D01*
X82148969Y-60474077D01*
X82179255Y-60470665D01*
X82349522Y-60411086D01*
X82502262Y-60315113D01*
X82629816Y-60187559D01*
X82725789Y-60034819D01*
X82743136Y-59985243D01*
X82783857Y-59928467D01*
X82848809Y-59902719D01*
X82917371Y-59916175D01*
X82947859Y-59938516D01*
X83208630Y-60199287D01*
X83237990Y-60246013D01*
X83274209Y-60349519D01*
X83344927Y-60462066D01*
X83370184Y-60502262D01*
X83497738Y-60629816D01*
X83650478Y-60725789D01*
X83807396Y-60780697D01*
X83820745Y-60785368D01*
X83820750Y-60785369D01*
X83999996Y-60805565D01*
X84000000Y-60805565D01*
X84000004Y-60805565D01*
X84179249Y-60785369D01*
X84179252Y-60785368D01*
X84179255Y-60785368D01*
X84349522Y-60725789D01*
X84502262Y-60629816D01*
X84629816Y-60502262D01*
X84725789Y-60349522D01*
X84785368Y-60179255D01*
X84785369Y-60179249D01*
X84805565Y-60000003D01*
X84805565Y-59999996D01*
X84785369Y-59820750D01*
X84785368Y-59820745D01*
X84784878Y-59819344D01*
X84725789Y-59650478D01*
X84629816Y-59497738D01*
X84502262Y-59370184D01*
X84447502Y-59335776D01*
X84349519Y-59274209D01*
X84246013Y-59237990D01*
X84199287Y-59208630D01*
X83736819Y-58746162D01*
X83703334Y-58684839D01*
X83700500Y-58658481D01*
X83700500Y-38425493D01*
X83719508Y-38359519D01*
X83725787Y-38349525D01*
X83725788Y-38349523D01*
X83725789Y-38349522D01*
X83785368Y-38179255D01*
X83785956Y-38174035D01*
X83805565Y-38000003D01*
X83805565Y-37999996D01*
X83785369Y-37820750D01*
X83785368Y-37820745D01*
X83755034Y-37734055D01*
X83725789Y-37650478D01*
X83629816Y-37497738D01*
X83502262Y-37370184D01*
X83485289Y-37359519D01*
X83349523Y-37274211D01*
X83179254Y-37214631D01*
X83179249Y-37214630D01*
X83000004Y-37194435D01*
X82999996Y-37194435D01*
X82838383Y-37212644D01*
X82769561Y-37200589D01*
X82718182Y-37153240D01*
X82700500Y-37089424D01*
X82700500Y-35931005D01*
X82688401Y-35870185D01*
X82688401Y-35870184D01*
X82673580Y-35795672D01*
X82620775Y-35668189D01*
X82544114Y-35553457D01*
X82544112Y-35553454D01*
X82544111Y-35553453D01*
X82182838Y-35192181D01*
X82149353Y-35130858D01*
X82154337Y-35061167D01*
X82196208Y-35005233D01*
X82261673Y-34980816D01*
X82270519Y-34980500D01*
X86446638Y-34980500D01*
X86513677Y-35000185D01*
X86559432Y-35052989D01*
X86569376Y-35122147D01*
X86540351Y-35185703D01*
X86534319Y-35192181D01*
X84300540Y-37425958D01*
X84300537Y-37425961D01*
X84277315Y-37460717D01*
X84201990Y-37573447D01*
X84201985Y-37573456D01*
X84170083Y-37650477D01*
X84170083Y-37650478D01*
X84134105Y-37737333D01*
X84132349Y-37746161D01*
X84101650Y-37900500D01*
X84099500Y-37911309D01*
X84099500Y-37911310D01*
X84099500Y-42628696D01*
X84134103Y-42802659D01*
X84134105Y-42802665D01*
X84153514Y-42849522D01*
X84153513Y-42849522D01*
X84153514Y-42849523D01*
X84201984Y-42966542D01*
X84201985Y-42966544D01*
X84250584Y-43039278D01*
X84250585Y-43039279D01*
X84250588Y-43039283D01*
X84286784Y-43093455D01*
X84300537Y-43114038D01*
X84300538Y-43114039D01*
X86613181Y-45426680D01*
X86646666Y-45488003D01*
X86649500Y-45514361D01*
X86649500Y-46437870D01*
X86649501Y-46437876D01*
X86655908Y-46497483D01*
X86706202Y-46632328D01*
X86706203Y-46632329D01*
X86706204Y-46632331D01*
X86719789Y-46650478D01*
X86792456Y-46747549D01*
X86798022Y-46753115D01*
X86831507Y-46814438D01*
X86826523Y-46884130D01*
X86798022Y-46928477D01*
X84300533Y-49425966D01*
X84286788Y-49446540D01*
X84286786Y-49446543D01*
X84201990Y-49573447D01*
X84201985Y-49573456D01*
X84183107Y-49619034D01*
X84134105Y-49737333D01*
X84134103Y-49737341D01*
X84099500Y-49911303D01*
X84099500Y-53613696D01*
X84134103Y-53787658D01*
X84134105Y-53787666D01*
X84157101Y-53843183D01*
X84201985Y-53951544D01*
X84261063Y-54039960D01*
X84261064Y-54039961D01*
X84300534Y-54099034D01*
X84300535Y-54099035D01*
X86613181Y-56411680D01*
X86646666Y-56473003D01*
X86649500Y-56499361D01*
X86649500Y-57422870D01*
X86649501Y-57422876D01*
X86655908Y-57482483D01*
X86706202Y-57617328D01*
X86706206Y-57617335D01*
X86792452Y-57732544D01*
X86792455Y-57732547D01*
X86907664Y-57818793D01*
X86907671Y-57818797D01*
X87042517Y-57869091D01*
X87042516Y-57869091D01*
X87049444Y-57869835D01*
X87102127Y-57875500D01*
X88897872Y-57875499D01*
X88957483Y-57869091D01*
X89092331Y-57818796D01*
X89207546Y-57732546D01*
X89293796Y-57617331D01*
X89344091Y-57482483D01*
X89350500Y-57422873D01*
X89350499Y-55627128D01*
X89344091Y-55567517D01*
X89312513Y-55482853D01*
X89293797Y-55432671D01*
X89293793Y-55432664D01*
X89207547Y-55317455D01*
X89207544Y-55317452D01*
X89092335Y-55231206D01*
X89092328Y-55231202D01*
X88960917Y-55182189D01*
X88904983Y-55140318D01*
X88880566Y-55074853D01*
X88895418Y-55006580D01*
X88916563Y-54978332D01*
X89038495Y-54856401D01*
X89174035Y-54662830D01*
X89273903Y-54448663D01*
X89335063Y-54220408D01*
X89355659Y-53985000D01*
X89335063Y-53749592D01*
X89273903Y-53521337D01*
X89174035Y-53307171D01*
X89146687Y-53268113D01*
X89038494Y-53113597D01*
X88871402Y-52946506D01*
X88871396Y-52946501D01*
X88685842Y-52816575D01*
X88642217Y-52761998D01*
X88635023Y-52692500D01*
X88666546Y-52630145D01*
X88685842Y-52613425D01*
X88708026Y-52597891D01*
X88871401Y-52483495D01*
X89038495Y-52316401D01*
X89174035Y-52122830D01*
X89273903Y-51908663D01*
X89335063Y-51680408D01*
X89355659Y-51445000D01*
X89335063Y-51209592D01*
X89273903Y-50981337D01*
X89174035Y-50767171D01*
X89159356Y-50746206D01*
X89038494Y-50573597D01*
X88871402Y-50406506D01*
X88871395Y-50406501D01*
X88677834Y-50270967D01*
X88677830Y-50270965D01*
X88599877Y-50234615D01*
X88463663Y-50171097D01*
X88463659Y-50171096D01*
X88463655Y-50171094D01*
X88235413Y-50109938D01*
X88235403Y-50109936D01*
X88000001Y-50089341D01*
X87999999Y-50089341D01*
X87764596Y-50109936D01*
X87764586Y-50109938D01*
X87536344Y-50171094D01*
X87536335Y-50171098D01*
X87322171Y-50270964D01*
X87322169Y-50270965D01*
X87128597Y-50406505D01*
X86961505Y-50573597D01*
X86825965Y-50767169D01*
X86825964Y-50767171D01*
X86726098Y-50981335D01*
X86726094Y-50981344D01*
X86664938Y-51209586D01*
X86664936Y-51209596D01*
X86644341Y-51444999D01*
X86644341Y-51445000D01*
X86664936Y-51680403D01*
X86664938Y-51680413D01*
X86726094Y-51908655D01*
X86726096Y-51908659D01*
X86726097Y-51908663D01*
X86768690Y-52000003D01*
X86825965Y-52122830D01*
X86825967Y-52122834D01*
X86961501Y-52316395D01*
X86961506Y-52316402D01*
X87128597Y-52483493D01*
X87128603Y-52483498D01*
X87314158Y-52613425D01*
X87357783Y-52668002D01*
X87364977Y-52737500D01*
X87333454Y-52799855D01*
X87314158Y-52816575D01*
X87128597Y-52946505D01*
X86961505Y-53113597D01*
X86825965Y-53307169D01*
X86825964Y-53307171D01*
X86726098Y-53521335D01*
X86726095Y-53521341D01*
X86685265Y-53673723D01*
X86648900Y-53733383D01*
X86586053Y-53763912D01*
X86516677Y-53755617D01*
X86477809Y-53729310D01*
X86269843Y-53521344D01*
X85936819Y-53188319D01*
X85903334Y-53126996D01*
X85900500Y-53100638D01*
X85900500Y-50424361D01*
X85920185Y-50357322D01*
X85936819Y-50336680D01*
X88699460Y-47574039D01*
X88699464Y-47574035D01*
X88722685Y-47539283D01*
X88798013Y-47426547D01*
X88821359Y-47370184D01*
X88865895Y-47262666D01*
X88900500Y-47088691D01*
X88900500Y-46991439D01*
X88920185Y-46924400D01*
X88972989Y-46878645D01*
X88981168Y-46875257D01*
X88983638Y-46874336D01*
X89092331Y-46833796D01*
X89207546Y-46747546D01*
X89293796Y-46632331D01*
X89344091Y-46497483D01*
X89350500Y-46437873D01*
X89350499Y-44642128D01*
X89344091Y-44582517D01*
X89310588Y-44492692D01*
X89293797Y-44447671D01*
X89293793Y-44447664D01*
X89207547Y-44332455D01*
X89207544Y-44332452D01*
X89092335Y-44246206D01*
X89092328Y-44246202D01*
X88960917Y-44197189D01*
X88904983Y-44155318D01*
X88880566Y-44089853D01*
X88895418Y-44021580D01*
X88916563Y-43993332D01*
X89038495Y-43871401D01*
X89174035Y-43677830D01*
X89273903Y-43463663D01*
X89335063Y-43235408D01*
X89355659Y-43000000D01*
X89335063Y-42764592D01*
X89273903Y-42536337D01*
X89174035Y-42322171D01*
X89126290Y-42253983D01*
X89038494Y-42128597D01*
X88871402Y-41961506D01*
X88871396Y-41961501D01*
X88685842Y-41831575D01*
X88642217Y-41776998D01*
X88635023Y-41707500D01*
X88666546Y-41645145D01*
X88685842Y-41628425D01*
X88817678Y-41536112D01*
X88871401Y-41498495D01*
X89038495Y-41331401D01*
X89174035Y-41137830D01*
X89273903Y-40923663D01*
X89335063Y-40695408D01*
X89355659Y-40460000D01*
X89335063Y-40224592D01*
X89288626Y-40051285D01*
X89273905Y-39996344D01*
X89273904Y-39996343D01*
X89273903Y-39996337D01*
X89174035Y-39782171D01*
X89132568Y-39722949D01*
X89038494Y-39588597D01*
X88871402Y-39421506D01*
X88871395Y-39421501D01*
X88858320Y-39412346D01*
X88768599Y-39349522D01*
X88677834Y-39285967D01*
X88677830Y-39285965D01*
X88611093Y-39254845D01*
X88463663Y-39186097D01*
X88463659Y-39186096D01*
X88463655Y-39186094D01*
X88235413Y-39124938D01*
X88235403Y-39124936D01*
X88000001Y-39104341D01*
X87999999Y-39104341D01*
X87764596Y-39124936D01*
X87764586Y-39124938D01*
X87536344Y-39186094D01*
X87536335Y-39186098D01*
X87322171Y-39285964D01*
X87322169Y-39285965D01*
X87128597Y-39421505D01*
X86961505Y-39588597D01*
X86825965Y-39782169D01*
X86825964Y-39782171D01*
X86726098Y-39996335D01*
X86726094Y-39996344D01*
X86664938Y-40224586D01*
X86664936Y-40224596D01*
X86644341Y-40459999D01*
X86644341Y-40460000D01*
X86664936Y-40695403D01*
X86664938Y-40695413D01*
X86726094Y-40923655D01*
X86726096Y-40923659D01*
X86726097Y-40923663D01*
X86807288Y-41097778D01*
X86825965Y-41137830D01*
X86825967Y-41137834D01*
X86961501Y-41331395D01*
X86961506Y-41331402D01*
X87128597Y-41498493D01*
X87128603Y-41498498D01*
X87314158Y-41628425D01*
X87357783Y-41683002D01*
X87364977Y-41752500D01*
X87333454Y-41814855D01*
X87314158Y-41831575D01*
X87128597Y-41961505D01*
X86961505Y-42128597D01*
X86825965Y-42322169D01*
X86825964Y-42322171D01*
X86726098Y-42536335D01*
X86726095Y-42536341D01*
X86685265Y-42688723D01*
X86648900Y-42748383D01*
X86586053Y-42778912D01*
X86516677Y-42770617D01*
X86477809Y-42744310D01*
X86269843Y-42536344D01*
X85936819Y-42203319D01*
X85903334Y-42141996D01*
X85900500Y-42115638D01*
X85900500Y-38424361D01*
X85920185Y-38357322D01*
X85936819Y-38336680D01*
X88699464Y-35574035D01*
X88757585Y-35487051D01*
X88758543Y-35485617D01*
X88812151Y-35440807D01*
X88861651Y-35430499D01*
X88897871Y-35430499D01*
X88897872Y-35430499D01*
X88957483Y-35424091D01*
X89092331Y-35373796D01*
X89207546Y-35287546D01*
X89293796Y-35172331D01*
X89344091Y-35037483D01*
X89350500Y-34977873D01*
X89350499Y-33182128D01*
X89344091Y-33122517D01*
X89335257Y-33098833D01*
X89293797Y-32987671D01*
X89293793Y-32987664D01*
X89207547Y-32872455D01*
X89207544Y-32872452D01*
X89092335Y-32786206D01*
X89092328Y-32786202D01*
X88960917Y-32737189D01*
X88904983Y-32695318D01*
X88880566Y-32629853D01*
X88895418Y-32561580D01*
X88916563Y-32533332D01*
X89038495Y-32411401D01*
X89174035Y-32217830D01*
X89273903Y-32003663D01*
X89335063Y-31775408D01*
X89355659Y-31540000D01*
X89335063Y-31304592D01*
X89273903Y-31076337D01*
X89174035Y-30862171D01*
X89142109Y-30816575D01*
X89038494Y-30668597D01*
X88871402Y-30501506D01*
X88871396Y-30501501D01*
X88685842Y-30371575D01*
X88642217Y-30316998D01*
X88635023Y-30247500D01*
X88666546Y-30185145D01*
X88685842Y-30168425D01*
X88708026Y-30152891D01*
X88871401Y-30038495D01*
X89038495Y-29871401D01*
X89174035Y-29677830D01*
X89273903Y-29463663D01*
X89335063Y-29235408D01*
X89355659Y-29000000D01*
X89335063Y-28764592D01*
X89273903Y-28536337D01*
X89174035Y-28322171D01*
X89138181Y-28270965D01*
X89038494Y-28128597D01*
X88871402Y-27961506D01*
X88871395Y-27961501D01*
X88677834Y-27825967D01*
X88677830Y-27825965D01*
X88677828Y-27825964D01*
X88463663Y-27726097D01*
X88463659Y-27726096D01*
X88463655Y-27726094D01*
X88235413Y-27664938D01*
X88235403Y-27664936D01*
X88000001Y-27644341D01*
X87999999Y-27644341D01*
X87764596Y-27664936D01*
X87764586Y-27664938D01*
X87536344Y-27726094D01*
X87536335Y-27726098D01*
X87322171Y-27825964D01*
X87322169Y-27825965D01*
X87128597Y-27961505D01*
X86961505Y-28128597D01*
X86825965Y-28322169D01*
X86825964Y-28322171D01*
X86726098Y-28536335D01*
X86726094Y-28536344D01*
X86664938Y-28764586D01*
X86664936Y-28764596D01*
X86644341Y-28999999D01*
X86644341Y-29000000D01*
X86664936Y-29235403D01*
X86664938Y-29235413D01*
X86726094Y-29463655D01*
X86726096Y-29463659D01*
X86726097Y-29463663D01*
X86825965Y-29677830D01*
X86825967Y-29677834D01*
X86961501Y-29871395D01*
X86961506Y-29871402D01*
X87128597Y-30038493D01*
X87128603Y-30038498D01*
X87314158Y-30168425D01*
X87357783Y-30223002D01*
X87364977Y-30292500D01*
X87333454Y-30354855D01*
X87314158Y-30371575D01*
X87128597Y-30501505D01*
X86961505Y-30668597D01*
X86825965Y-30862169D01*
X86825964Y-30862171D01*
X86726098Y-31076335D01*
X86726094Y-31076344D01*
X86664938Y-31304586D01*
X86664936Y-31304596D01*
X86644341Y-31539999D01*
X86644341Y-31540000D01*
X86664936Y-31775403D01*
X86664938Y-31775413D01*
X86726094Y-32003655D01*
X86726096Y-32003659D01*
X86726097Y-32003663D01*
X86770570Y-32099035D01*
X86825965Y-32217830D01*
X86825967Y-32217834D01*
X86865443Y-32274211D01*
X86961501Y-32411396D01*
X86961506Y-32411402D01*
X87083430Y-32533326D01*
X87116915Y-32594649D01*
X87111931Y-32664341D01*
X87070059Y-32720274D01*
X87039083Y-32737189D01*
X86907669Y-32786203D01*
X86907664Y-32786206D01*
X86792455Y-32872452D01*
X86792452Y-32872455D01*
X86706206Y-32987664D01*
X86706202Y-32987671D01*
X86664742Y-33098833D01*
X86622871Y-33154767D01*
X86557407Y-33179184D01*
X86548560Y-33179500D01*
X78624500Y-33179500D01*
X78557461Y-33159815D01*
X78511706Y-33107011D01*
X78500500Y-33055500D01*
X78500500Y-23893713D01*
X86649500Y-23893713D01*
X86649500Y-24106287D01*
X86682754Y-24316243D01*
X86730654Y-24463664D01*
X86748444Y-24518414D01*
X86844951Y-24707820D01*
X86969890Y-24879786D01*
X87120213Y-25030109D01*
X87292179Y-25155048D01*
X87292181Y-25155049D01*
X87292184Y-25155051D01*
X87481588Y-25251557D01*
X87683757Y-25317246D01*
X87893713Y-25350500D01*
X87893714Y-25350500D01*
X88106286Y-25350500D01*
X88106287Y-25350500D01*
X88316243Y-25317246D01*
X88518412Y-25251557D01*
X88707816Y-25155051D01*
X88794138Y-25092335D01*
X88879786Y-25030109D01*
X88879788Y-25030106D01*
X88879792Y-25030104D01*
X89030104Y-24879792D01*
X89030106Y-24879788D01*
X89030109Y-24879786D01*
X89155048Y-24707820D01*
X89155047Y-24707820D01*
X89155051Y-24707816D01*
X89251557Y-24518412D01*
X89317246Y-24316243D01*
X89350500Y-24106287D01*
X89350500Y-23893713D01*
X89317246Y-23683757D01*
X89251557Y-23481588D01*
X89155051Y-23292184D01*
X89155049Y-23292181D01*
X89155048Y-23292179D01*
X89030109Y-23120213D01*
X88879786Y-22969890D01*
X88707820Y-22844951D01*
X88518414Y-22748444D01*
X88518413Y-22748443D01*
X88518412Y-22748443D01*
X88316243Y-22682754D01*
X88316241Y-22682753D01*
X88316240Y-22682753D01*
X88154957Y-22657208D01*
X88106287Y-22649500D01*
X87893713Y-22649500D01*
X87845042Y-22657208D01*
X87683760Y-22682753D01*
X87481585Y-22748444D01*
X87292179Y-22844951D01*
X87120213Y-22969890D01*
X86969890Y-23120213D01*
X86844951Y-23292179D01*
X86748444Y-23481585D01*
X86682753Y-23683760D01*
X86669952Y-23764586D01*
X86649500Y-23893713D01*
X78500500Y-23893713D01*
X78500500Y-20624500D01*
X78520185Y-20557461D01*
X78572989Y-20511706D01*
X78624500Y-20500500D01*
X91375500Y-20500500D01*
X91442539Y-20520185D01*
X91488294Y-20572989D01*
X91499500Y-20624500D01*
X91499500Y-105375500D01*
X91479815Y-105442539D01*
X91427011Y-105488294D01*
X91375500Y-105499500D01*
X86624500Y-105499500D01*
X86557461Y-105479815D01*
X86511706Y-105427011D01*
X86500500Y-105375500D01*
X86500500Y-102538226D01*
X86520185Y-102471187D01*
X86572989Y-102425432D01*
X86642147Y-102415488D01*
X86705703Y-102444513D01*
X86742431Y-102499908D01*
X86748444Y-102518414D01*
X86844951Y-102707820D01*
X86969890Y-102879786D01*
X87120213Y-103030109D01*
X87292179Y-103155048D01*
X87292181Y-103155049D01*
X87292184Y-103155051D01*
X87481588Y-103251557D01*
X87683757Y-103317246D01*
X87893713Y-103350500D01*
X87893714Y-103350500D01*
X88106286Y-103350500D01*
X88106287Y-103350500D01*
X88316243Y-103317246D01*
X88518412Y-103251557D01*
X88707816Y-103155051D01*
X88729789Y-103139086D01*
X88879786Y-103030109D01*
X88879788Y-103030106D01*
X88879792Y-103030104D01*
X89030104Y-102879792D01*
X89030106Y-102879788D01*
X89030109Y-102879786D01*
X89155048Y-102707820D01*
X89155047Y-102707820D01*
X89155051Y-102707816D01*
X89251557Y-102518412D01*
X89317246Y-102316243D01*
X89350500Y-102106287D01*
X89350500Y-101893713D01*
X89317246Y-101683757D01*
X89251557Y-101481588D01*
X89155051Y-101292184D01*
X89155049Y-101292181D01*
X89155048Y-101292179D01*
X89030109Y-101120213D01*
X88879786Y-100969890D01*
X88707820Y-100844951D01*
X88518414Y-100748444D01*
X88518413Y-100748443D01*
X88518412Y-100748443D01*
X88316243Y-100682754D01*
X88316241Y-100682753D01*
X88316240Y-100682753D01*
X88154957Y-100657208D01*
X88106287Y-100649500D01*
X87893713Y-100649500D01*
X87845042Y-100657208D01*
X87683760Y-100682753D01*
X87481585Y-100748444D01*
X87292179Y-100844951D01*
X87120213Y-100969890D01*
X86969890Y-101120213D01*
X86844951Y-101292179D01*
X86748445Y-101481582D01*
X86748443Y-101481587D01*
X86748443Y-101481588D01*
X86742429Y-101500094D01*
X86702992Y-101557768D01*
X86638633Y-101584965D01*
X86569787Y-101573050D01*
X86518312Y-101525805D01*
X86500500Y-101461773D01*
X86500500Y-88934110D01*
X86500500Y-88934108D01*
X86466392Y-88806814D01*
X86400500Y-88692686D01*
X86307314Y-88599500D01*
X86250250Y-88566554D01*
X86193187Y-88533608D01*
X86129539Y-88516554D01*
X86065892Y-88499500D01*
X28065892Y-88499500D01*
X27934108Y-88499500D01*
X27806812Y-88533608D01*
X27692686Y-88599500D01*
X27692683Y-88599502D01*
X27599502Y-88692683D01*
X27599500Y-88692686D01*
X27533608Y-88806812D01*
X27499500Y-88934108D01*
X27499500Y-101461773D01*
X27479815Y-101528812D01*
X27427011Y-101574567D01*
X27357853Y-101584511D01*
X27294297Y-101555486D01*
X27257570Y-101500094D01*
X27251557Y-101481588D01*
X27155051Y-101292184D01*
X27155049Y-101292181D01*
X27155048Y-101292179D01*
X27030109Y-101120213D01*
X26879786Y-100969890D01*
X26707820Y-100844951D01*
X26518414Y-100748444D01*
X26518413Y-100748443D01*
X26518412Y-100748443D01*
X26316243Y-100682754D01*
X26316241Y-100682753D01*
X26316240Y-100682753D01*
X26154957Y-100657208D01*
X26106287Y-100649500D01*
X25893713Y-100649500D01*
X25845042Y-100657208D01*
X25683760Y-100682753D01*
X25481585Y-100748444D01*
X25292179Y-100844951D01*
X25120213Y-100969890D01*
X24969890Y-101120213D01*
X24844951Y-101292179D01*
X24748444Y-101481585D01*
X24682753Y-101683760D01*
X24649500Y-101893713D01*
X24649500Y-102106287D01*
X24682754Y-102316243D01*
X24734075Y-102474193D01*
X24748444Y-102518414D01*
X24844951Y-102707820D01*
X24969890Y-102879786D01*
X25120213Y-103030109D01*
X25292179Y-103155048D01*
X25292181Y-103155049D01*
X25292184Y-103155051D01*
X25481588Y-103251557D01*
X25683757Y-103317246D01*
X25893713Y-103350500D01*
X25893714Y-103350500D01*
X26106286Y-103350500D01*
X26106287Y-103350500D01*
X26316243Y-103317246D01*
X26518412Y-103251557D01*
X26707816Y-103155051D01*
X26729789Y-103139086D01*
X26879786Y-103030109D01*
X26879788Y-103030106D01*
X26879792Y-103030104D01*
X27030104Y-102879792D01*
X27030106Y-102879788D01*
X27030109Y-102879786D01*
X27155048Y-102707820D01*
X27155047Y-102707820D01*
X27155051Y-102707816D01*
X27251557Y-102518412D01*
X27257569Y-102499907D01*
X27297006Y-102442232D01*
X27361365Y-102415034D01*
X27430211Y-102426949D01*
X27481687Y-102474193D01*
X27499500Y-102538226D01*
X27499500Y-105375500D01*
X27479815Y-105442539D01*
X27427011Y-105488294D01*
X27375500Y-105499500D01*
X22624500Y-105499500D01*
X22557461Y-105479815D01*
X22511706Y-105427011D01*
X22500500Y-105375500D01*
X22500500Y-64999999D01*
X24644341Y-64999999D01*
X24644341Y-65000000D01*
X24664936Y-65235403D01*
X24664938Y-65235413D01*
X24726094Y-65463655D01*
X24726096Y-65463659D01*
X24726097Y-65463663D01*
X24780886Y-65581158D01*
X24825965Y-65677830D01*
X24825967Y-65677834D01*
X24961501Y-65871395D01*
X24961506Y-65871402D01*
X25083430Y-65993326D01*
X25116915Y-66054649D01*
X25111931Y-66124341D01*
X25070059Y-66180274D01*
X25039083Y-66197189D01*
X24907669Y-66246203D01*
X24907664Y-66246206D01*
X24792455Y-66332452D01*
X24792452Y-66332455D01*
X24706206Y-66447664D01*
X24706202Y-66447671D01*
X24655908Y-66582517D01*
X24649501Y-66642116D01*
X24649500Y-66642135D01*
X24649500Y-68437870D01*
X24649501Y-68437876D01*
X24655908Y-68497483D01*
X24706202Y-68632328D01*
X24706206Y-68632335D01*
X24792452Y-68747544D01*
X24792455Y-68747547D01*
X24907664Y-68833793D01*
X24907671Y-68833797D01*
X24947878Y-68848793D01*
X25042517Y-68884091D01*
X25102127Y-68890500D01*
X25175500Y-68890499D01*
X25242538Y-68910183D01*
X25288294Y-68962986D01*
X25299500Y-69014499D01*
X25299500Y-70931006D01*
X25299500Y-71068994D01*
X25299500Y-71068996D01*
X25299499Y-71068996D01*
X25326418Y-71204322D01*
X25326421Y-71204332D01*
X25379222Y-71331807D01*
X25455887Y-71446545D01*
X25455888Y-71446546D01*
X25903173Y-71893830D01*
X25936658Y-71955153D01*
X25931674Y-72024844D01*
X25889803Y-72080778D01*
X25826301Y-72105039D01*
X25764683Y-72110430D01*
X25764673Y-72110432D01*
X25536516Y-72171566D01*
X25536507Y-72171570D01*
X25322422Y-72271399D01*
X25322420Y-72271400D01*
X25128926Y-72406886D01*
X25128920Y-72406891D01*
X24961891Y-72573920D01*
X24961886Y-72573926D01*
X24826400Y-72767420D01*
X24826399Y-72767422D01*
X24726570Y-72981507D01*
X24726567Y-72981513D01*
X24669364Y-73194999D01*
X24669364Y-73195000D01*
X25566988Y-73195000D01*
X25534075Y-73252007D01*
X25500000Y-73379174D01*
X25500000Y-73510826D01*
X25534075Y-73637993D01*
X25566988Y-73695000D01*
X24669364Y-73695000D01*
X24726567Y-73908486D01*
X24726570Y-73908492D01*
X24826399Y-74122578D01*
X24961894Y-74316082D01*
X25128917Y-74483105D01*
X25314595Y-74613119D01*
X25358219Y-74667696D01*
X25365412Y-74737195D01*
X25333890Y-74799549D01*
X25314595Y-74816269D01*
X25128594Y-74946508D01*
X24961505Y-75113597D01*
X24825965Y-75307169D01*
X24825964Y-75307171D01*
X24726098Y-75521335D01*
X24726094Y-75521344D01*
X24664938Y-75749586D01*
X24664936Y-75749596D01*
X24644341Y-75984999D01*
X24644341Y-75985000D01*
X24664936Y-76220403D01*
X24664938Y-76220413D01*
X24726094Y-76448655D01*
X24726096Y-76448659D01*
X24726097Y-76448663D01*
X24755937Y-76512655D01*
X24825965Y-76662830D01*
X24825967Y-76662834D01*
X24961501Y-76856395D01*
X24961506Y-76856402D01*
X25083430Y-76978326D01*
X25116915Y-77039649D01*
X25111931Y-77109341D01*
X25070059Y-77165274D01*
X25039083Y-77182189D01*
X24907669Y-77231203D01*
X24907664Y-77231206D01*
X24792455Y-77317452D01*
X24792452Y-77317455D01*
X24706206Y-77432664D01*
X24706202Y-77432671D01*
X24655908Y-77567517D01*
X24649501Y-77627116D01*
X24649500Y-77627135D01*
X24649500Y-79422870D01*
X24649501Y-79422876D01*
X24655908Y-79482483D01*
X24706202Y-79617328D01*
X24706206Y-79617335D01*
X24792452Y-79732544D01*
X24792455Y-79732547D01*
X24907664Y-79818793D01*
X24907671Y-79818797D01*
X25042517Y-79869091D01*
X25042516Y-79869091D01*
X25049444Y-79869835D01*
X25102127Y-79875500D01*
X26897872Y-79875499D01*
X26957483Y-79869091D01*
X27092331Y-79818796D01*
X27207546Y-79732546D01*
X27293796Y-79617331D01*
X27344091Y-79482483D01*
X27350500Y-79422873D01*
X27350499Y-78216517D01*
X27370184Y-78149479D01*
X27386813Y-78128842D01*
X29544114Y-75971543D01*
X29620775Y-75856811D01*
X29626274Y-75843537D01*
X29652760Y-75779592D01*
X29673580Y-75729328D01*
X29682389Y-75685040D01*
X29700500Y-75593996D01*
X29700500Y-73931006D01*
X29691108Y-73883794D01*
X29691108Y-73883791D01*
X29677385Y-73814801D01*
X29673580Y-73795672D01*
X29620775Y-73668189D01*
X29544114Y-73553457D01*
X29544112Y-73553454D01*
X26736819Y-70746161D01*
X26703334Y-70684838D01*
X26700500Y-70658480D01*
X26700500Y-69014499D01*
X26720185Y-68947460D01*
X26772989Y-68901705D01*
X26824500Y-68890499D01*
X26897871Y-68890499D01*
X26897872Y-68890499D01*
X26957483Y-68884091D01*
X27092331Y-68833796D01*
X27207546Y-68747546D01*
X27293796Y-68632331D01*
X27344091Y-68497483D01*
X27350500Y-68437873D01*
X27350499Y-66691517D01*
X27370184Y-66624479D01*
X27386813Y-66603842D01*
X29199290Y-64791365D01*
X29246013Y-64762007D01*
X29349522Y-64725789D01*
X29502262Y-64629816D01*
X29629816Y-64502262D01*
X29725789Y-64349522D01*
X29785368Y-64179255D01*
X29785369Y-64179249D01*
X29805565Y-64000003D01*
X29805565Y-63999996D01*
X29785369Y-63820750D01*
X29785368Y-63820745D01*
X29745634Y-63707193D01*
X29725789Y-63650478D01*
X29629816Y-63497738D01*
X29502262Y-63370184D01*
X29468416Y-63348917D01*
X29349523Y-63274211D01*
X29179254Y-63214631D01*
X29179249Y-63214630D01*
X29000004Y-63194435D01*
X28999996Y-63194435D01*
X28820750Y-63214630D01*
X28820745Y-63214631D01*
X28650476Y-63274211D01*
X28497737Y-63370184D01*
X28370184Y-63497737D01*
X28274212Y-63650475D01*
X28274211Y-63650476D01*
X28237992Y-63753984D01*
X28208632Y-63800709D01*
X27462441Y-64546900D01*
X27401118Y-64580385D01*
X27331426Y-64575401D01*
X27275493Y-64533529D01*
X27262380Y-64511627D01*
X27189483Y-64355300D01*
X27174037Y-64322175D01*
X27174034Y-64322169D01*
X27038494Y-64128597D01*
X26871402Y-63961506D01*
X26871401Y-63961505D01*
X26685405Y-63831269D01*
X26641781Y-63776692D01*
X26634588Y-63707193D01*
X26666110Y-63644839D01*
X26685405Y-63628119D01*
X26871082Y-63498105D01*
X27038105Y-63331082D01*
X27173600Y-63137578D01*
X27273429Y-62923492D01*
X27273432Y-62923486D01*
X27330636Y-62710000D01*
X26433012Y-62710000D01*
X26465925Y-62652993D01*
X26500000Y-62525826D01*
X26500000Y-62394174D01*
X26465925Y-62267007D01*
X26433012Y-62210000D01*
X27330636Y-62210000D01*
X27330635Y-62209999D01*
X27273432Y-61996513D01*
X27273429Y-61996507D01*
X27173600Y-61782422D01*
X27173599Y-61782420D01*
X27038113Y-61588926D01*
X27038108Y-61588920D01*
X26871082Y-61421894D01*
X26677578Y-61286399D01*
X26463492Y-61186570D01*
X26463486Y-61186567D01*
X26250000Y-61129364D01*
X26250000Y-62026988D01*
X26192993Y-61994075D01*
X26065826Y-61960000D01*
X25934174Y-61960000D01*
X25807007Y-61994075D01*
X25750000Y-62026988D01*
X25750000Y-61129364D01*
X25749999Y-61129364D01*
X25536513Y-61186567D01*
X25536507Y-61186570D01*
X25322422Y-61286399D01*
X25322420Y-61286400D01*
X25128926Y-61421886D01*
X25128920Y-61421891D01*
X24961891Y-61588920D01*
X24961886Y-61588926D01*
X24826400Y-61782420D01*
X24826399Y-61782422D01*
X24726570Y-61996507D01*
X24726567Y-61996513D01*
X24669364Y-62209999D01*
X24669364Y-62210000D01*
X25566988Y-62210000D01*
X25534075Y-62267007D01*
X25500000Y-62394174D01*
X25500000Y-62525826D01*
X25534075Y-62652993D01*
X25566988Y-62710000D01*
X24669364Y-62710000D01*
X24726567Y-62923486D01*
X24726570Y-62923492D01*
X24826399Y-63137578D01*
X24961894Y-63331082D01*
X25128917Y-63498105D01*
X25314595Y-63628119D01*
X25358219Y-63682696D01*
X25365412Y-63752195D01*
X25333890Y-63814549D01*
X25314595Y-63831269D01*
X25128594Y-63961508D01*
X24961505Y-64128597D01*
X24825965Y-64322169D01*
X24825964Y-64322171D01*
X24726098Y-64536335D01*
X24726094Y-64536344D01*
X24664938Y-64764586D01*
X24664936Y-64764596D01*
X24644341Y-64999999D01*
X22500500Y-64999999D01*
X22500500Y-23893713D01*
X24649500Y-23893713D01*
X24649500Y-24106287D01*
X24682754Y-24316243D01*
X24730654Y-24463664D01*
X24748444Y-24518414D01*
X24844951Y-24707820D01*
X24969890Y-24879786D01*
X25120213Y-25030109D01*
X25292179Y-25155048D01*
X25292181Y-25155049D01*
X25292184Y-25155051D01*
X25481588Y-25251557D01*
X25683757Y-25317246D01*
X25893713Y-25350500D01*
X25893714Y-25350500D01*
X26106286Y-25350500D01*
X26106287Y-25350500D01*
X26316243Y-25317246D01*
X26518412Y-25251557D01*
X26707816Y-25155051D01*
X26794138Y-25092335D01*
X26879786Y-25030109D01*
X26879788Y-25030106D01*
X26879792Y-25030104D01*
X27030104Y-24879792D01*
X27030106Y-24879788D01*
X27030109Y-24879786D01*
X27155048Y-24707820D01*
X27155047Y-24707820D01*
X27155051Y-24707816D01*
X27251557Y-24518412D01*
X27317246Y-24316243D01*
X27350500Y-24106287D01*
X27350500Y-23893713D01*
X27317246Y-23683757D01*
X27251557Y-23481588D01*
X27155051Y-23292184D01*
X27155049Y-23292181D01*
X27155048Y-23292179D01*
X27030109Y-23120213D01*
X26879786Y-22969890D01*
X26707820Y-22844951D01*
X26518414Y-22748444D01*
X26518413Y-22748443D01*
X26518412Y-22748443D01*
X26316243Y-22682754D01*
X26316241Y-22682753D01*
X26316240Y-22682753D01*
X26154957Y-22657208D01*
X26106287Y-22649500D01*
X25893713Y-22649500D01*
X25845042Y-22657208D01*
X25683760Y-22682753D01*
X25481585Y-22748444D01*
X25292179Y-22844951D01*
X25120213Y-22969890D01*
X24969890Y-23120213D01*
X24844951Y-23292179D01*
X24748444Y-23481585D01*
X24682753Y-23683760D01*
X24669952Y-23764586D01*
X24649500Y-23893713D01*
X22500500Y-23893713D01*
X22500500Y-20624500D01*
X22520185Y-20557461D01*
X22572989Y-20511706D01*
X22624500Y-20500500D01*
X43375500Y-20500500D01*
X43442539Y-20520185D01*
G37*
%TD.AperFunction*%
%TA.AperFunction,Conductor*%
G36*
X65243598Y-64193654D02*
G01*
X65288813Y-64246921D01*
X65299500Y-64297281D01*
X65299500Y-67574507D01*
X65280494Y-67640478D01*
X65274209Y-67650479D01*
X65214633Y-67820737D01*
X65214630Y-67820750D01*
X65194435Y-67999996D01*
X65194435Y-68000003D01*
X65214630Y-68179249D01*
X65214631Y-68179254D01*
X65274211Y-68349523D01*
X65329732Y-68437883D01*
X65370184Y-68502262D01*
X65497738Y-68629816D01*
X65588080Y-68686582D01*
X65595361Y-68691157D01*
X65650478Y-68725789D01*
X65807396Y-68780697D01*
X65820745Y-68785368D01*
X65820750Y-68785369D01*
X65927271Y-68797371D01*
X65991685Y-68824437D01*
X66031240Y-68882032D01*
X66033378Y-68951869D01*
X66001069Y-69008272D01*
X61931362Y-73077981D01*
X61870039Y-73111466D01*
X61843681Y-73114300D01*
X61791673Y-73114300D01*
X61724634Y-73094615D01*
X61690098Y-73061423D01*
X61630045Y-72975658D01*
X61469141Y-72814754D01*
X61282734Y-72684232D01*
X61282728Y-72684229D01*
X61224725Y-72657182D01*
X61172285Y-72611010D01*
X61153133Y-72543817D01*
X61173348Y-72476935D01*
X61224725Y-72432418D01*
X61282734Y-72405368D01*
X61469139Y-72274847D01*
X61630047Y-72113939D01*
X61760568Y-71927534D01*
X61856739Y-71721296D01*
X61915635Y-71501492D01*
X61935468Y-71274800D01*
X61935416Y-71274211D01*
X61927108Y-71179249D01*
X61915635Y-71048108D01*
X61856739Y-70828304D01*
X61760568Y-70622066D01*
X61630047Y-70435661D01*
X61630045Y-70435658D01*
X61469141Y-70274754D01*
X61282734Y-70144232D01*
X61282728Y-70144229D01*
X61255038Y-70131317D01*
X61224724Y-70117181D01*
X61172285Y-70071010D01*
X61153133Y-70003817D01*
X61173348Y-69936935D01*
X61224725Y-69892418D01*
X61282734Y-69865368D01*
X61469139Y-69734847D01*
X61630047Y-69573939D01*
X61760568Y-69387534D01*
X61856739Y-69181296D01*
X61915635Y-68961492D01*
X61935468Y-68734800D01*
X61915635Y-68508108D01*
X61856739Y-68288304D01*
X61760568Y-68082066D01*
X61630047Y-67895661D01*
X61630045Y-67895658D01*
X61469141Y-67734754D01*
X61282734Y-67604232D01*
X61282728Y-67604229D01*
X61224725Y-67577182D01*
X61172285Y-67531010D01*
X61153133Y-67463817D01*
X61173348Y-67396935D01*
X61224725Y-67352418D01*
X61282734Y-67325368D01*
X61469139Y-67194847D01*
X61630047Y-67033939D01*
X61690098Y-66948177D01*
X61744675Y-66904552D01*
X61791673Y-66895300D01*
X62090866Y-66895300D01*
X62181910Y-66877189D01*
X62226198Y-66868380D01*
X62305218Y-66835649D01*
X62353677Y-66815577D01*
X62353678Y-66815576D01*
X62353681Y-66815575D01*
X62468413Y-66738914D01*
X64932835Y-64274490D01*
X64979558Y-64245132D01*
X65083067Y-64208914D01*
X65109528Y-64192287D01*
X65176763Y-64173287D01*
X65243598Y-64193654D01*
G37*
%TD.AperFunction*%
%TA.AperFunction,Conductor*%
G36*
X56081719Y-65714985D02*
G01*
X56127474Y-65767789D01*
X56137418Y-65836947D01*
X56108393Y-65900503D01*
X56102361Y-65906981D01*
X55351362Y-66657981D01*
X55290039Y-66691466D01*
X55263681Y-66694300D01*
X46764137Y-66694300D01*
X46697098Y-66674615D01*
X46651343Y-66621811D01*
X46641399Y-66552653D01*
X46644362Y-66538207D01*
X46664601Y-66462671D01*
X46675635Y-66421492D01*
X46694635Y-66204322D01*
X46695468Y-66194801D01*
X46695468Y-66194798D01*
X46684519Y-66069649D01*
X46675635Y-65968108D01*
X46659256Y-65906981D01*
X46644362Y-65851393D01*
X46646025Y-65781543D01*
X46685188Y-65723681D01*
X46749417Y-65696177D01*
X46764137Y-65695300D01*
X56014680Y-65695300D01*
X56081719Y-65714985D01*
G37*
%TD.AperFunction*%
%TA.AperFunction,Conductor*%
G36*
X59247893Y-61050075D02*
G01*
X59303827Y-61091946D01*
X59328088Y-61155449D01*
X59330171Y-61179254D01*
X59344364Y-61341486D01*
X59344819Y-61346680D01*
X59331052Y-61415180D01*
X59308972Y-61445169D01*
X56496162Y-64257981D01*
X56434839Y-64291466D01*
X56408481Y-64294300D01*
X46721381Y-64294300D01*
X46654342Y-64274615D01*
X46608587Y-64221811D01*
X46598643Y-64152653D01*
X46608998Y-64117897D01*
X46612250Y-64110923D01*
X46616739Y-64101296D01*
X46675635Y-63881492D01*
X46695468Y-63654800D01*
X46675635Y-63428108D01*
X46660114Y-63370184D01*
X46644362Y-63311393D01*
X46646025Y-63241543D01*
X46685188Y-63183681D01*
X46749417Y-63156177D01*
X46764137Y-63155300D01*
X56818996Y-63155300D01*
X56910040Y-63137189D01*
X56954328Y-63128380D01*
X57035200Y-63094882D01*
X57081807Y-63075577D01*
X57081808Y-63075576D01*
X57081811Y-63075575D01*
X57196543Y-62998914D01*
X59116881Y-61078574D01*
X59178202Y-61045091D01*
X59247893Y-61050075D01*
G37*
%TD.AperFunction*%
%TA.AperFunction,Conductor*%
G36*
X33535599Y-24920185D02*
G01*
X33581354Y-24972989D01*
X33584742Y-24981167D01*
X33626202Y-25092328D01*
X33626206Y-25092335D01*
X33712452Y-25207544D01*
X33712455Y-25207547D01*
X33827664Y-25293793D01*
X33827673Y-25293798D01*
X33938832Y-25335257D01*
X33994766Y-25377127D01*
X34019184Y-25442592D01*
X34019500Y-25451439D01*
X34019500Y-27008696D01*
X34054103Y-27182658D01*
X34054105Y-27182666D01*
X34087243Y-27262667D01*
X34121984Y-27346541D01*
X34121985Y-27346544D01*
X34121987Y-27346547D01*
X34173981Y-27424361D01*
X34175441Y-27426545D01*
X34175441Y-27426546D01*
X34220537Y-27494038D01*
X34220540Y-27494041D01*
X42300536Y-35574035D01*
X42425965Y-35699464D01*
X42573453Y-35798013D01*
X42621452Y-35817895D01*
X42737334Y-35865895D01*
X42884578Y-35895183D01*
X42911304Y-35900499D01*
X42911308Y-35900500D01*
X42911309Y-35900500D01*
X43088692Y-35900500D01*
X45575638Y-35900500D01*
X45642677Y-35920185D01*
X45663319Y-35936819D01*
X46515971Y-36789471D01*
X46549456Y-36850794D01*
X46544472Y-36920486D01*
X46502600Y-36976419D01*
X46437136Y-37000836D01*
X46384957Y-36993334D01*
X46297482Y-36960708D01*
X46297483Y-36960708D01*
X46237883Y-36954301D01*
X46237881Y-36954300D01*
X46237873Y-36954300D01*
X46237864Y-36954300D01*
X44542129Y-36954300D01*
X44542123Y-36954301D01*
X44482516Y-36960708D01*
X44347671Y-37011002D01*
X44347664Y-37011006D01*
X44232455Y-37097252D01*
X44232452Y-37097255D01*
X44146206Y-37212464D01*
X44146202Y-37212471D01*
X44095908Y-37347317D01*
X44090325Y-37399250D01*
X44089501Y-37406923D01*
X44089500Y-37406935D01*
X44089500Y-39102670D01*
X44089501Y-39102676D01*
X44095908Y-39162283D01*
X44146202Y-39297128D01*
X44146206Y-39297135D01*
X44232452Y-39412344D01*
X44232455Y-39412347D01*
X44347664Y-39498593D01*
X44347671Y-39498597D01*
X44357498Y-39502262D01*
X44482517Y-39548891D01*
X44517596Y-39552662D01*
X44582144Y-39579399D01*
X44621993Y-39636791D01*
X44624488Y-39706616D01*
X44588836Y-39766705D01*
X44575464Y-39777525D01*
X44550858Y-39794754D01*
X44389954Y-39955658D01*
X44259432Y-40142065D01*
X44259431Y-40142067D01*
X44163261Y-40348302D01*
X44163258Y-40348311D01*
X44104366Y-40568102D01*
X44104364Y-40568113D01*
X44084532Y-40794798D01*
X44084532Y-40794801D01*
X44104364Y-41021486D01*
X44104366Y-41021497D01*
X44163258Y-41241288D01*
X44163261Y-41241297D01*
X44259431Y-41447532D01*
X44259432Y-41447534D01*
X44389954Y-41633941D01*
X44550858Y-41794845D01*
X44550861Y-41794847D01*
X44737266Y-41925368D01*
X44773727Y-41942370D01*
X44795275Y-41952418D01*
X44847714Y-41998591D01*
X44866866Y-42065784D01*
X44846650Y-42132665D01*
X44795275Y-42177182D01*
X44737267Y-42204231D01*
X44737265Y-42204232D01*
X44550858Y-42334754D01*
X44389954Y-42495658D01*
X44259432Y-42682065D01*
X44259431Y-42682067D01*
X44163261Y-42888302D01*
X44163258Y-42888311D01*
X44104366Y-43108102D01*
X44104364Y-43108113D01*
X44084532Y-43334798D01*
X44084532Y-43334801D01*
X44104364Y-43561486D01*
X44104366Y-43561497D01*
X44163258Y-43781288D01*
X44163261Y-43781297D01*
X44259431Y-43987532D01*
X44259432Y-43987534D01*
X44389954Y-44173941D01*
X44550858Y-44334845D01*
X44550861Y-44334847D01*
X44737266Y-44465368D01*
X44795865Y-44492693D01*
X44848305Y-44538865D01*
X44867457Y-44606058D01*
X44847242Y-44672939D01*
X44795867Y-44717457D01*
X44737515Y-44744667D01*
X44551179Y-44875142D01*
X44390342Y-45035979D01*
X44259865Y-45222317D01*
X44163734Y-45428473D01*
X44163730Y-45428482D01*
X44111127Y-45624799D01*
X44111128Y-45624800D01*
X44956988Y-45624800D01*
X44924075Y-45681807D01*
X44890000Y-45808974D01*
X44890000Y-45940626D01*
X44924075Y-46067793D01*
X44956988Y-46124800D01*
X44142019Y-46124800D01*
X44074980Y-46105115D01*
X44054338Y-46088481D01*
X43736819Y-45770962D01*
X43703334Y-45709639D01*
X43700500Y-45683281D01*
X43700500Y-37425493D01*
X43719508Y-37359519D01*
X43725787Y-37349525D01*
X43725786Y-37349525D01*
X43725789Y-37349522D01*
X43785368Y-37179255D01*
X43788299Y-37153240D01*
X43805565Y-37000003D01*
X43805565Y-36999996D01*
X43785369Y-36820750D01*
X43785368Y-36820745D01*
X43765719Y-36764592D01*
X43725789Y-36650478D01*
X43629816Y-36497738D01*
X43502262Y-36370184D01*
X43425850Y-36322171D01*
X43349523Y-36274211D01*
X43179254Y-36214631D01*
X43179249Y-36214630D01*
X43000004Y-36194435D01*
X42999996Y-36194435D01*
X42820750Y-36214630D01*
X42820745Y-36214631D01*
X42650476Y-36274211D01*
X42497737Y-36370184D01*
X42370184Y-36497737D01*
X42274211Y-36650476D01*
X42214631Y-36820745D01*
X42214630Y-36820750D01*
X42194435Y-36999996D01*
X42194435Y-37000003D01*
X42214630Y-37179249D01*
X42214631Y-37179254D01*
X42274212Y-37349525D01*
X42280492Y-37359519D01*
X42299500Y-37425493D01*
X42299500Y-45955806D01*
X42299500Y-46093794D01*
X42299500Y-46093796D01*
X42299499Y-46093796D01*
X42326418Y-46229122D01*
X42326421Y-46229132D01*
X42379222Y-46356607D01*
X42455887Y-46471345D01*
X42455888Y-46471346D01*
X44068972Y-48084428D01*
X44102457Y-48145751D01*
X44104819Y-48182916D01*
X44084532Y-48414798D01*
X44084532Y-48414801D01*
X44104364Y-48641486D01*
X44104366Y-48641497D01*
X44163258Y-48861288D01*
X44163261Y-48861297D01*
X44259431Y-49067532D01*
X44259432Y-49067534D01*
X44389954Y-49253941D01*
X44550858Y-49414845D01*
X44550861Y-49414847D01*
X44737266Y-49545368D01*
X44795275Y-49572418D01*
X44847714Y-49618591D01*
X44866866Y-49685784D01*
X44846650Y-49752665D01*
X44795275Y-49797181D01*
X44787818Y-49800659D01*
X44737267Y-49824231D01*
X44737265Y-49824232D01*
X44550858Y-49954754D01*
X44389954Y-50115658D01*
X44329902Y-50201423D01*
X44275325Y-50245048D01*
X44228327Y-50254300D01*
X39296319Y-50254300D01*
X39229280Y-50234615D01*
X39208638Y-50217981D01*
X38998929Y-50008272D01*
X38965444Y-49946949D01*
X38970428Y-49877257D01*
X39012300Y-49821324D01*
X39072727Y-49797371D01*
X39179249Y-49785369D01*
X39179252Y-49785368D01*
X39179255Y-49785368D01*
X39349522Y-49725789D01*
X39502262Y-49629816D01*
X39629816Y-49502262D01*
X39725789Y-49349522D01*
X39785368Y-49179255D01*
X39802045Y-49031242D01*
X39805565Y-49000003D01*
X39805565Y-48999996D01*
X39785369Y-48820750D01*
X39785366Y-48820737D01*
X39725790Y-48650479D01*
X39719506Y-48640478D01*
X39700500Y-48574507D01*
X39700500Y-37365916D01*
X39720185Y-37298877D01*
X39772989Y-37253122D01*
X39783547Y-37248874D01*
X39849522Y-37225789D01*
X40002262Y-37129816D01*
X40083369Y-37048708D01*
X40144688Y-37015226D01*
X40214380Y-37020210D01*
X40270314Y-37062081D01*
X40294731Y-37127545D01*
X40279880Y-37195818D01*
X40276045Y-37202358D01*
X40274211Y-37205276D01*
X40214631Y-37375545D01*
X40214630Y-37375550D01*
X40194435Y-37554796D01*
X40194435Y-37554803D01*
X40214630Y-37734049D01*
X40214631Y-37734054D01*
X40274212Y-37904325D01*
X40280492Y-37914319D01*
X40299500Y-37980293D01*
X40299500Y-47931006D01*
X40299500Y-48068994D01*
X40299500Y-48068996D01*
X40299499Y-48068996D01*
X40326418Y-48204322D01*
X40326421Y-48204332D01*
X40379222Y-48331807D01*
X40455887Y-48446545D01*
X40455888Y-48446546D01*
X41208630Y-49199287D01*
X41237990Y-49246013D01*
X41274209Y-49349519D01*
X41335173Y-49446543D01*
X41370184Y-49502262D01*
X41497738Y-49629816D01*
X41650478Y-49725789D01*
X41754826Y-49762302D01*
X41820745Y-49785368D01*
X41820750Y-49785369D01*
X41999996Y-49805565D01*
X42000000Y-49805565D01*
X42000004Y-49805565D01*
X42179249Y-49785369D01*
X42179252Y-49785368D01*
X42179255Y-49785368D01*
X42349522Y-49725789D01*
X42502262Y-49629816D01*
X42629816Y-49502262D01*
X42725789Y-49349522D01*
X42785368Y-49179255D01*
X42802045Y-49031242D01*
X42805565Y-49000003D01*
X42805565Y-48999996D01*
X42785369Y-48820750D01*
X42785368Y-48820745D01*
X42761297Y-48751953D01*
X42725789Y-48650478D01*
X42700499Y-48610230D01*
X42629815Y-48497737D01*
X42502262Y-48370184D01*
X42349519Y-48274209D01*
X42246013Y-48237990D01*
X42199287Y-48208630D01*
X41736819Y-47746162D01*
X41703334Y-47684839D01*
X41700500Y-47658481D01*
X41700500Y-37980293D01*
X41719508Y-37914319D01*
X41725787Y-37904325D01*
X41725786Y-37904325D01*
X41725789Y-37904322D01*
X41785368Y-37734055D01*
X41788096Y-37709843D01*
X41805565Y-37554803D01*
X41805565Y-37554796D01*
X41785369Y-37375550D01*
X41785368Y-37375545D01*
X41775490Y-37347316D01*
X41725789Y-37205278D01*
X41713343Y-37185471D01*
X41659844Y-37100327D01*
X41629816Y-37052538D01*
X41502262Y-36924984D01*
X41502260Y-36924983D01*
X41349523Y-36829011D01*
X41179254Y-36769431D01*
X41179249Y-36769430D01*
X41000004Y-36749235D01*
X40999996Y-36749235D01*
X40820750Y-36769430D01*
X40820745Y-36769431D01*
X40650476Y-36829011D01*
X40497739Y-36924983D01*
X40416633Y-37006089D01*
X40355309Y-37039573D01*
X40285618Y-37034589D01*
X40229684Y-36992717D01*
X40205268Y-36927252D01*
X40220120Y-36858979D01*
X40223953Y-36852442D01*
X40225789Y-36849522D01*
X40285368Y-36679255D01*
X40285369Y-36679249D01*
X40305565Y-36500003D01*
X40305565Y-36499996D01*
X40285369Y-36320750D01*
X40285368Y-36320745D01*
X40225788Y-36150476D01*
X40137930Y-36010652D01*
X40129816Y-35997738D01*
X40002262Y-35870184D01*
X39934188Y-35827410D01*
X39849523Y-35774211D01*
X39679254Y-35714631D01*
X39679249Y-35714630D01*
X39500004Y-35694435D01*
X39499996Y-35694435D01*
X39320750Y-35714630D01*
X39320745Y-35714631D01*
X39150476Y-35774211D01*
X38997737Y-35870184D01*
X38912181Y-35955741D01*
X38850858Y-35989226D01*
X38781166Y-35984242D01*
X38725233Y-35942370D01*
X38700816Y-35876906D01*
X38700500Y-35868060D01*
X38700500Y-33425493D01*
X38719508Y-33359519D01*
X38725787Y-33349525D01*
X38725786Y-33349525D01*
X38725789Y-33349522D01*
X38785368Y-33179255D01*
X38785904Y-33174500D01*
X38805565Y-33000003D01*
X38805565Y-32999996D01*
X38785369Y-32820750D01*
X38785368Y-32820745D01*
X38756130Y-32737189D01*
X38725789Y-32650478D01*
X38712829Y-32629853D01*
X38629815Y-32497737D01*
X38502262Y-32370184D01*
X38349523Y-32274211D01*
X38179254Y-32214631D01*
X38179249Y-32214630D01*
X38000004Y-32194435D01*
X37999996Y-32194435D01*
X37820750Y-32214630D01*
X37820745Y-32214631D01*
X37650476Y-32274211D01*
X37497737Y-32370184D01*
X37370184Y-32497737D01*
X37274211Y-32650476D01*
X37214631Y-32820745D01*
X37214630Y-32820750D01*
X37194435Y-32999996D01*
X37194435Y-33000003D01*
X37214630Y-33179249D01*
X37214631Y-33179254D01*
X37274212Y-33349525D01*
X37280492Y-33359519D01*
X37299500Y-33425493D01*
X37299500Y-45658480D01*
X37279815Y-45725519D01*
X37263181Y-45746161D01*
X37008272Y-46001070D01*
X36946949Y-46034555D01*
X36877257Y-46029571D01*
X36821324Y-45987699D01*
X36797371Y-45927272D01*
X36785369Y-45820750D01*
X36785366Y-45820737D01*
X36725790Y-45650479D01*
X36719506Y-45640478D01*
X36700500Y-45574507D01*
X36700500Y-38931005D01*
X36698158Y-38919234D01*
X36698157Y-38919231D01*
X36698156Y-38919225D01*
X36673580Y-38795672D01*
X36634489Y-38701297D01*
X36620777Y-38668192D01*
X36544112Y-38553454D01*
X35736819Y-37746161D01*
X35703334Y-37684838D01*
X35700500Y-37658480D01*
X35700500Y-33425493D01*
X35719508Y-33359519D01*
X35725787Y-33349525D01*
X35725786Y-33349525D01*
X35725789Y-33349522D01*
X35785368Y-33179255D01*
X35785904Y-33174500D01*
X35805565Y-33000003D01*
X35805565Y-32999996D01*
X35785369Y-32820750D01*
X35785368Y-32820745D01*
X35756130Y-32737189D01*
X35725789Y-32650478D01*
X35712829Y-32629853D01*
X35629815Y-32497737D01*
X35502262Y-32370184D01*
X35349523Y-32274211D01*
X35179254Y-32214631D01*
X35179249Y-32214630D01*
X35000004Y-32194435D01*
X34999996Y-32194435D01*
X34820750Y-32214630D01*
X34820745Y-32214631D01*
X34650476Y-32274211D01*
X34497737Y-32370184D01*
X34370184Y-32497737D01*
X34274211Y-32650476D01*
X34214631Y-32820745D01*
X34214630Y-32820750D01*
X34194435Y-32999996D01*
X34194435Y-33000003D01*
X34214630Y-33179249D01*
X34214631Y-33179254D01*
X34274212Y-33349525D01*
X34280492Y-33359519D01*
X34299500Y-33425493D01*
X34299500Y-37931006D01*
X34299500Y-38068994D01*
X34299500Y-38068996D01*
X34299499Y-38068996D01*
X34326418Y-38204322D01*
X34326421Y-38204332D01*
X34379222Y-38331807D01*
X34455887Y-38446545D01*
X34455888Y-38446546D01*
X35263181Y-39253838D01*
X35296666Y-39315161D01*
X35299500Y-39341519D01*
X35299500Y-40089424D01*
X35279815Y-40156463D01*
X35227011Y-40202218D01*
X35161617Y-40212644D01*
X35000004Y-40194435D01*
X34999996Y-40194435D01*
X34820750Y-40214630D01*
X34820745Y-40214631D01*
X34650476Y-40274211D01*
X34497737Y-40370184D01*
X34370184Y-40497737D01*
X34274211Y-40650476D01*
X34214631Y-40820745D01*
X34214630Y-40820750D01*
X34194435Y-40999996D01*
X34194435Y-41000003D01*
X34214630Y-41179249D01*
X34214631Y-41179254D01*
X34274212Y-41349525D01*
X34280492Y-41359519D01*
X34299500Y-41425493D01*
X34299500Y-42658481D01*
X34279815Y-42725520D01*
X34263181Y-42746162D01*
X31455885Y-45553457D01*
X31455883Y-45553459D01*
X31436172Y-45582962D01*
X31436170Y-45582965D01*
X31379228Y-45668183D01*
X31379221Y-45668195D01*
X31326421Y-45795667D01*
X31326418Y-45795677D01*
X31299500Y-45931004D01*
X31299500Y-56656972D01*
X31279815Y-56724011D01*
X31227011Y-56769766D01*
X31157853Y-56779710D01*
X31094297Y-56750685D01*
X31056523Y-56691907D01*
X31056234Y-56690907D01*
X31055274Y-56687532D01*
X31030582Y-56600750D01*
X30939673Y-56418179D01*
X30825267Y-56266681D01*
X30816762Y-56255418D01*
X30666041Y-56118019D01*
X30666039Y-56118017D01*
X30492642Y-56010655D01*
X30492635Y-56010651D01*
X30302457Y-55936976D01*
X30302450Y-55936974D01*
X30227070Y-55922882D01*
X30164789Y-55891213D01*
X30162176Y-55888675D01*
X30099039Y-55825538D01*
X30099034Y-55825534D01*
X30038921Y-55785369D01*
X30038920Y-55785368D01*
X29951552Y-55726990D01*
X29951540Y-55726983D01*
X29869607Y-55693046D01*
X29869606Y-55693046D01*
X29787666Y-55659105D01*
X29787658Y-55659103D01*
X29613696Y-55624500D01*
X29613692Y-55624500D01*
X29613691Y-55624500D01*
X28473361Y-55624500D01*
X28406322Y-55604815D01*
X28360567Y-55552011D01*
X28350623Y-55482853D01*
X28379648Y-55419297D01*
X28385680Y-55412819D01*
X29699464Y-54099035D01*
X29719537Y-54068994D01*
X29738938Y-54039959D01*
X29798013Y-53951547D01*
X29842899Y-53843182D01*
X29865895Y-53787666D01*
X29900500Y-53613691D01*
X29900500Y-53436308D01*
X29900500Y-48451309D01*
X29899245Y-48445000D01*
X29865895Y-48277334D01*
X29800339Y-48119071D01*
X29798695Y-48114474D01*
X29699465Y-47965966D01*
X29656979Y-47923480D01*
X29574035Y-47840536D01*
X27386818Y-45653318D01*
X27353333Y-45591995D01*
X27350499Y-45565637D01*
X27350499Y-45514362D01*
X27370184Y-45447323D01*
X27386818Y-45426681D01*
X29699458Y-43114041D01*
X29699464Y-43114035D01*
X29713214Y-43093457D01*
X29798013Y-42966547D01*
X29846486Y-42849522D01*
X29865895Y-42802666D01*
X29900500Y-42628691D01*
X29900500Y-42451308D01*
X29900500Y-37911309D01*
X29898350Y-37900500D01*
X29865895Y-37737334D01*
X29800339Y-37579071D01*
X29798695Y-37574474D01*
X29699465Y-37425966D01*
X29639415Y-37365916D01*
X29574035Y-37300536D01*
X27386818Y-35113319D01*
X27353333Y-35051996D01*
X27350499Y-35025638D01*
X27350499Y-34499362D01*
X27370184Y-34432323D01*
X27386818Y-34411681D01*
X29699462Y-32099037D01*
X29699464Y-32099035D01*
X29775660Y-31985000D01*
X29798013Y-31951547D01*
X29847599Y-31831835D01*
X29865895Y-31787666D01*
X29900500Y-31613691D01*
X29900500Y-31436308D01*
X29900500Y-27424361D01*
X29920185Y-27357322D01*
X29936819Y-27336680D01*
X32336680Y-24936819D01*
X32398003Y-24903334D01*
X32424361Y-24900500D01*
X33468560Y-24900500D01*
X33535599Y-24920185D01*
G37*
%TD.AperFunction*%
%TA.AperFunction,Conductor*%
G36*
X76814855Y-40206546D02*
G01*
X76831575Y-40225842D01*
X76961500Y-40411395D01*
X76961505Y-40411401D01*
X77128599Y-40578495D01*
X77160500Y-40600832D01*
X77322165Y-40714032D01*
X77322167Y-40714033D01*
X77322170Y-40714035D01*
X77536337Y-40813903D01*
X77536343Y-40813904D01*
X77536344Y-40813905D01*
X77591285Y-40828626D01*
X77764592Y-40875063D01*
X77937388Y-40890181D01*
X77999999Y-40895659D01*
X78000000Y-40895659D01*
X78164695Y-40881249D01*
X78233192Y-40895015D01*
X78283375Y-40943630D01*
X78299500Y-41004777D01*
X78299500Y-53009480D01*
X78279815Y-53076519D01*
X78227011Y-53122274D01*
X78157853Y-53132218D01*
X78094297Y-53103193D01*
X78087819Y-53097161D01*
X77971545Y-52980887D01*
X77856807Y-52904222D01*
X77729332Y-52851421D01*
X77729322Y-52851418D01*
X77593996Y-52824500D01*
X77593994Y-52824500D01*
X77593993Y-52824500D01*
X76474499Y-52824500D01*
X76407460Y-52804815D01*
X76361705Y-52752011D01*
X76350499Y-52700500D01*
X76350499Y-52627129D01*
X76350498Y-52627123D01*
X76348682Y-52610230D01*
X76344091Y-52567517D01*
X76293796Y-52432669D01*
X76293795Y-52432668D01*
X76293793Y-52432664D01*
X76207547Y-52317455D01*
X76207544Y-52317452D01*
X76092335Y-52231206D01*
X76092328Y-52231202D01*
X75960401Y-52181997D01*
X75904467Y-52140126D01*
X75880050Y-52074662D01*
X75894902Y-52006389D01*
X75916053Y-51978133D01*
X76038108Y-51856078D01*
X76173600Y-51662578D01*
X76273429Y-51448492D01*
X76273432Y-51448486D01*
X76330636Y-51235000D01*
X75433012Y-51235000D01*
X75465925Y-51177993D01*
X75500000Y-51050826D01*
X75500000Y-50919174D01*
X75465925Y-50792007D01*
X75433012Y-50735000D01*
X76330636Y-50735000D01*
X76330635Y-50734999D01*
X76273432Y-50521513D01*
X76273429Y-50521507D01*
X76173600Y-50307422D01*
X76173599Y-50307420D01*
X76038113Y-50113926D01*
X76038108Y-50113920D01*
X75871078Y-49946890D01*
X75685405Y-49816879D01*
X75641780Y-49762302D01*
X75634588Y-49692804D01*
X75666110Y-49630449D01*
X75685406Y-49613730D01*
X75742923Y-49573456D01*
X75871401Y-49483495D01*
X76038495Y-49316401D01*
X76174035Y-49122830D01*
X76273903Y-48908663D01*
X76335063Y-48680408D01*
X76355659Y-48445000D01*
X76335063Y-48209592D01*
X76273903Y-47981337D01*
X76174035Y-47767171D01*
X76170462Y-47762067D01*
X76038494Y-47573597D01*
X75871402Y-47406506D01*
X75871395Y-47406501D01*
X75677834Y-47270967D01*
X75677830Y-47270965D01*
X75597859Y-47233674D01*
X75463663Y-47171097D01*
X75463659Y-47171096D01*
X75463655Y-47171094D01*
X75235413Y-47109938D01*
X75235403Y-47109936D01*
X75000001Y-47089341D01*
X74999999Y-47089341D01*
X74764596Y-47109936D01*
X74764586Y-47109938D01*
X74536344Y-47171094D01*
X74536335Y-47171098D01*
X74322171Y-47270964D01*
X74322169Y-47270965D01*
X74128597Y-47406505D01*
X73961508Y-47573594D01*
X73852442Y-47729357D01*
X73797865Y-47772981D01*
X73728366Y-47780174D01*
X73666012Y-47748652D01*
X73636307Y-47705687D01*
X73620775Y-47668189D01*
X73558950Y-47575661D01*
X73544114Y-47553457D01*
X73544112Y-47553454D01*
X73544109Y-47553451D01*
X72791367Y-46800710D01*
X72762006Y-46753983D01*
X72761702Y-46753115D01*
X72725789Y-46650478D01*
X72714386Y-46632331D01*
X72648537Y-46527532D01*
X72629816Y-46497738D01*
X72502262Y-46370184D01*
X72480654Y-46356607D01*
X72349523Y-46274211D01*
X72179254Y-46214631D01*
X72179249Y-46214630D01*
X72000004Y-46194435D01*
X71999996Y-46194435D01*
X71838383Y-46212644D01*
X71769561Y-46200589D01*
X71718182Y-46153240D01*
X71700500Y-46089424D01*
X71700500Y-41801518D01*
X71720185Y-41734479D01*
X71736815Y-41713841D01*
X72548006Y-40902649D01*
X72609327Y-40869166D01*
X72667778Y-40870557D01*
X72684592Y-40875063D01*
X72857388Y-40890181D01*
X72919999Y-40895659D01*
X72920000Y-40895659D01*
X72920001Y-40895659D01*
X72982612Y-40890181D01*
X73155408Y-40875063D01*
X73383663Y-40813903D01*
X73597830Y-40714035D01*
X73791401Y-40578495D01*
X73958495Y-40411401D01*
X74088425Y-40225842D01*
X74143002Y-40182217D01*
X74212500Y-40175023D01*
X74274855Y-40206546D01*
X74291575Y-40225842D01*
X74421501Y-40411396D01*
X74421506Y-40411402D01*
X74588597Y-40578494D01*
X74706623Y-40661136D01*
X74750248Y-40715713D01*
X74759500Y-40762711D01*
X74759500Y-43198480D01*
X74739815Y-43265519D01*
X74723181Y-43286161D01*
X73800709Y-44208632D01*
X73753984Y-44237992D01*
X73650476Y-44274211D01*
X73650475Y-44274212D01*
X73497737Y-44370184D01*
X73370184Y-44497737D01*
X73274211Y-44650476D01*
X73214631Y-44820745D01*
X73214630Y-44820750D01*
X73194435Y-44999996D01*
X73194435Y-45000003D01*
X73214630Y-45179249D01*
X73214631Y-45179254D01*
X73274211Y-45349523D01*
X73345513Y-45462999D01*
X73370184Y-45502262D01*
X73497738Y-45629816D01*
X73650478Y-45725789D01*
X73708698Y-45746161D01*
X73820745Y-45785368D01*
X73820750Y-45785369D01*
X73999996Y-45805565D01*
X74000000Y-45805565D01*
X74000004Y-45805565D01*
X74179249Y-45785369D01*
X74179252Y-45785368D01*
X74179255Y-45785368D01*
X74349522Y-45725789D01*
X74502262Y-45629816D01*
X74629816Y-45502262D01*
X74725789Y-45349522D01*
X74762007Y-45246013D01*
X74791365Y-45199290D01*
X76004114Y-43986543D01*
X76080775Y-43871811D01*
X76080945Y-43871402D01*
X76133578Y-43744332D01*
X76133580Y-43744328D01*
X76146807Y-43677834D01*
X76160500Y-43608996D01*
X76160500Y-40762711D01*
X76180185Y-40695672D01*
X76213377Y-40661136D01*
X76299500Y-40600832D01*
X76331401Y-40578495D01*
X76498495Y-40411401D01*
X76628425Y-40225842D01*
X76683002Y-40182217D01*
X76752500Y-40175023D01*
X76814855Y-40206546D01*
G37*
%TD.AperFunction*%
%TD*%
M02*
