%TF.GenerationSoftware,KiCad,Pcbnew,8.0.4*%
%TF.CreationDate,2025-01-16T20:27:30-05:00*%
%TF.ProjectId,eclipseControlPCB,65636c69-7073-4654-936f-6e74726f6c50,rev?*%
%TF.SameCoordinates,Original*%
%TF.FileFunction,Drillmap*%
%TF.FilePolarity,Positive*%
%FSLAX45Y45*%
G04 Gerber Fmt 4.5, Leading zero omitted, Abs format (unit mm)*
G04 Created by KiCad (PCBNEW 8.0.4) date 2025-01-16 20:27:30*
%MOMM*%
%LPD*%
G01*
G04 APERTURE LIST*
%ADD10C,0.050000*%
%ADD11C,0.200000*%
%ADD12C,0.100000*%
%ADD13C,0.132000*%
G04 APERTURE END LIST*
D10*
X2200000Y-10600000D02*
X2200000Y-2000000D01*
X7800000Y-3300000D02*
X7800000Y-2000000D01*
X2800000Y-10600000D02*
X2800000Y-8900000D01*
X9200000Y-2000000D02*
X9200000Y-10600000D01*
X2800000Y-10600000D02*
X2200000Y-10600000D01*
X2200000Y-2000000D02*
X4400000Y-2000000D01*
X4400000Y-2000000D02*
X4400000Y-3300000D01*
X8600000Y-10600000D02*
X8600000Y-8900000D01*
X8600000Y-8900000D02*
X2800000Y-8900000D01*
X7800000Y-2000000D02*
X9200000Y-2000000D01*
X9200000Y-10600000D02*
X8600000Y-10600000D01*
X4400000Y-3300000D02*
X7800000Y-3300000D01*
D11*
D12*
X2435736Y-8156458D02*
X2465736Y-8186458D01*
X2465736Y-8156458D02*
X2435736Y-8186458D01*
X2757306Y-8156458D02*
X2787306Y-8186458D01*
X2787306Y-8156458D02*
X2757306Y-8186458D01*
X2885000Y-6385000D02*
X2915000Y-6415000D01*
X2915000Y-6385000D02*
X2885000Y-6415000D01*
X3285000Y-4685000D02*
X3315000Y-4715000D01*
X3315000Y-4685000D02*
X3285000Y-4715000D01*
X3385000Y-4785000D02*
X3415000Y-4815000D01*
X3415000Y-4785000D02*
X3385000Y-4815000D01*
X3485000Y-3285000D02*
X3515000Y-3315000D01*
X3515000Y-3285000D02*
X3485000Y-3315000D01*
X3485000Y-4085000D02*
X3515000Y-4115000D01*
X3515000Y-4085000D02*
X3485000Y-4115000D01*
X3485000Y-4385000D02*
X3515000Y-4415000D01*
X3515000Y-4385000D02*
X3485000Y-4415000D01*
X3485000Y-4885000D02*
X3515000Y-4915000D01*
X3515000Y-4885000D02*
X3485000Y-4915000D01*
X3485000Y-5485000D02*
X3515000Y-5515000D01*
X3515000Y-5485000D02*
X3485000Y-5515000D01*
X3485000Y-7685000D02*
X3515000Y-7715000D01*
X3515000Y-7685000D02*
X3485000Y-7715000D01*
X3585000Y-4585000D02*
X3615000Y-4615000D01*
X3615000Y-4585000D02*
X3585000Y-4615000D01*
X3585000Y-7485000D02*
X3615000Y-7515000D01*
X3615000Y-7485000D02*
X3585000Y-7515000D01*
X3685000Y-4685000D02*
X3715000Y-4715000D01*
X3715000Y-4685000D02*
X3685000Y-4715000D01*
X3785000Y-3285000D02*
X3815000Y-3315000D01*
X3815000Y-3285000D02*
X3785000Y-3315000D01*
X3885000Y-4885000D02*
X3915000Y-4915000D01*
X3915000Y-4885000D02*
X3885000Y-4915000D01*
X3935000Y-3635000D02*
X3965000Y-3665000D01*
X3965000Y-3635000D02*
X3935000Y-3665000D01*
X3985000Y-5185000D02*
X4015000Y-5215000D01*
X4015000Y-5185000D02*
X3985000Y-5215000D01*
X4085000Y-3740480D02*
X4115000Y-3770480D01*
X4115000Y-3740480D02*
X4085000Y-3770480D01*
X4185000Y-4885000D02*
X4215000Y-4915000D01*
X4215000Y-4885000D02*
X4185000Y-4915000D01*
X4285000Y-3685000D02*
X4315000Y-3715000D01*
X4315000Y-3685000D02*
X4285000Y-3715000D01*
X4285000Y-6280480D02*
X4315000Y-6310480D01*
X4315000Y-6280480D02*
X4285000Y-6310480D01*
X4285000Y-6585000D02*
X4315000Y-6615000D01*
X4315000Y-6585000D02*
X4285000Y-6615000D01*
X4285000Y-6885000D02*
X4315000Y-6915000D01*
X4315000Y-6885000D02*
X4285000Y-6915000D01*
X4285000Y-7185000D02*
X4315000Y-7215000D01*
X4315000Y-7185000D02*
X4285000Y-7215000D01*
X4730734Y-5570765D02*
X4760734Y-5600765D01*
X4760734Y-5570765D02*
X4730734Y-5600765D01*
X4733132Y-5465221D02*
X4763132Y-5495221D01*
X4763132Y-5465221D02*
X4733132Y-5495221D01*
X4741225Y-5205601D02*
X4771225Y-5235601D01*
X4771225Y-5205601D02*
X4741225Y-5235601D01*
X4785000Y-4185000D02*
X4815000Y-4215000D01*
X4815000Y-4185000D02*
X4785000Y-4215000D01*
X4861677Y-6024943D02*
X4891677Y-6054943D01*
X4891677Y-6024943D02*
X4861677Y-6054943D01*
X4863638Y-5816702D02*
X4893638Y-5846702D01*
X4893638Y-5816702D02*
X4863638Y-5846702D01*
X5066341Y-6024943D02*
X5096341Y-6054943D01*
X5096341Y-6024943D02*
X5066341Y-6054943D01*
X5066532Y-5819872D02*
X5096532Y-5849872D01*
X5096532Y-5819872D02*
X5066532Y-5849872D01*
X5085000Y-4185000D02*
X5115000Y-4215000D01*
X5115000Y-4185000D02*
X5085000Y-4215000D01*
X5124127Y-5472417D02*
X5154127Y-5502417D01*
X5154127Y-5472417D02*
X5124127Y-5502417D01*
X5433564Y-5803443D02*
X5463564Y-5833443D01*
X5463564Y-5803443D02*
X5433564Y-5833443D01*
X5446323Y-6139786D02*
X5476323Y-6169786D01*
X5476323Y-6139786D02*
X5446323Y-6169786D01*
X5446598Y-6593870D02*
X5476598Y-6623870D01*
X5476598Y-6593870D02*
X5446598Y-6623870D01*
X5485000Y-4185000D02*
X5515000Y-4215000D01*
X5515000Y-4185000D02*
X5485000Y-4215000D01*
X5581048Y-5654301D02*
X5611048Y-5684301D01*
X5611048Y-5654301D02*
X5581048Y-5684301D01*
X5585000Y-5285000D02*
X5615000Y-5315000D01*
X5615000Y-5285000D02*
X5585000Y-5315000D01*
X5585000Y-5485000D02*
X5615000Y-5515000D01*
X5615000Y-5485000D02*
X5585000Y-5515000D01*
X5618802Y-6351198D02*
X5648802Y-6381198D01*
X5648802Y-6351198D02*
X5618802Y-6381198D01*
X5685000Y-6585000D02*
X5715000Y-6615000D01*
X5715000Y-6585000D02*
X5685000Y-6615000D01*
X5685000Y-6885000D02*
X5715000Y-6915000D01*
X5715000Y-6885000D02*
X5685000Y-6915000D01*
X5785000Y-4185000D02*
X5815000Y-4215000D01*
X5815000Y-4185000D02*
X5785000Y-4215000D01*
X5785000Y-4785000D02*
X5815000Y-4815000D01*
X5815000Y-4785000D02*
X5785000Y-4815000D01*
X6285000Y-3885000D02*
X6315000Y-3915000D01*
X6315000Y-3885000D02*
X6285000Y-3915000D01*
X6285000Y-6285000D02*
X6315000Y-6315000D01*
X6315000Y-6285000D02*
X6285000Y-6315000D01*
X6285000Y-6785000D02*
X6315000Y-6815000D01*
X6315000Y-6785000D02*
X6285000Y-6815000D01*
X6285000Y-6985000D02*
X6315000Y-7015000D01*
X6315000Y-6985000D02*
X6285000Y-7015000D01*
X6458354Y-6333312D02*
X6488354Y-6363312D01*
X6488354Y-6333312D02*
X6458354Y-6363312D01*
X6585000Y-6785000D02*
X6615000Y-6815000D01*
X6615000Y-6785000D02*
X6585000Y-6815000D01*
X6685000Y-3785000D02*
X6715000Y-3815000D01*
X6715000Y-3785000D02*
X6685000Y-3815000D01*
X6685000Y-7085000D02*
X6715000Y-7115000D01*
X6715000Y-7085000D02*
X6685000Y-7115000D01*
X6685000Y-7785000D02*
X6715000Y-7815000D01*
X6715000Y-7785000D02*
X6685000Y-7815000D01*
X6735000Y-4235000D02*
X6765000Y-4265000D01*
X6765000Y-4235000D02*
X6735000Y-4265000D01*
X6785000Y-5185000D02*
X6815000Y-5215000D01*
X6815000Y-5185000D02*
X6785000Y-5215000D01*
X6785000Y-7485000D02*
X6815000Y-7515000D01*
X6815000Y-7485000D02*
X6785000Y-7515000D01*
X6885000Y-4585000D02*
X6915000Y-4615000D01*
X6915000Y-4585000D02*
X6885000Y-4615000D01*
X6985000Y-5285000D02*
X7015000Y-5315000D01*
X7015000Y-5285000D02*
X6985000Y-5315000D01*
X6985000Y-7885000D02*
X7015000Y-7915000D01*
X7015000Y-7885000D02*
X6985000Y-7915000D01*
X7085000Y-5685000D02*
X7115000Y-5715000D01*
X7115000Y-5685000D02*
X7085000Y-5715000D01*
X7185000Y-4685000D02*
X7215000Y-4715000D01*
X7215000Y-4685000D02*
X7185000Y-4715000D01*
X7209415Y-6337525D02*
X7239415Y-6367525D01*
X7239415Y-6337525D02*
X7209415Y-6367525D01*
X7285000Y-6085000D02*
X7315000Y-6115000D01*
X7315000Y-6085000D02*
X7285000Y-6115000D01*
X7385000Y-4485000D02*
X7415000Y-4515000D01*
X7415000Y-4485000D02*
X7385000Y-4515000D01*
X7485000Y-6885000D02*
X7515000Y-6915000D01*
X7515000Y-6885000D02*
X7485000Y-6915000D01*
X7585000Y-6385000D02*
X7615000Y-6415000D01*
X7615000Y-6385000D02*
X7585000Y-6415000D01*
X7785000Y-5585000D02*
X7815000Y-5615000D01*
X7815000Y-5585000D02*
X7785000Y-5615000D01*
X7785000Y-5785000D02*
X7815000Y-5815000D01*
X7815000Y-5785000D02*
X7785000Y-5815000D01*
X7875418Y-6319892D02*
X7905418Y-6349892D01*
X7905418Y-6319892D02*
X7875418Y-6349892D01*
X7885000Y-5385000D02*
X7915000Y-5415000D01*
X7915000Y-5385000D02*
X7885000Y-5415000D01*
X7985000Y-6885000D02*
X8015000Y-6915000D01*
X8015000Y-6885000D02*
X7985000Y-6915000D01*
X8085000Y-6285000D02*
X8115000Y-6315000D01*
X8115000Y-6285000D02*
X8085000Y-6315000D01*
X8185000Y-5953530D02*
X8215000Y-5983530D01*
X8215000Y-5953530D02*
X8185000Y-5983530D01*
X8285000Y-3785000D02*
X8315000Y-3815000D01*
X8315000Y-3785000D02*
X8285000Y-3815000D01*
X8285000Y-6385000D02*
X8315000Y-6415000D01*
X8315000Y-6385000D02*
X8285000Y-6415000D01*
X8285000Y-7985000D02*
X8315000Y-8015000D01*
X8315000Y-7985000D02*
X8285000Y-8015000D01*
X8385000Y-5985000D02*
X8415000Y-6015000D01*
X8415000Y-5985000D02*
X8385000Y-6015000D01*
X8985000Y-8185000D02*
X9015000Y-8215000D01*
X9015000Y-8185000D02*
X8985000Y-8215000D01*
X8985211Y-8338896D02*
X9015211Y-8368896D01*
X9015211Y-8338896D02*
X8985211Y-8368896D01*
X3030000Y-5700000D02*
G75*
G02*
X2970000Y-5700000I-30000J0D01*
G01*
X2970000Y-5700000D02*
G75*
G02*
X3030000Y-5700000I30000J0D01*
G01*
X4830000Y-3700000D02*
G75*
G02*
X4770000Y-3700000I-30000J0D01*
G01*
X4770000Y-3700000D02*
G75*
G02*
X4830000Y-3700000I30000J0D01*
G01*
X6430000Y-5800000D02*
G75*
G02*
X6370000Y-5800000I-30000J0D01*
G01*
X6370000Y-5800000D02*
G75*
G02*
X6430000Y-5800000I30000J0D01*
G01*
X7346000Y-6560000D02*
X7346000Y-6640000D01*
X7306000Y-6600000D02*
X7386000Y-6600000D01*
X7854000Y-6560000D02*
X7854000Y-6640000D01*
X7814000Y-6600000D02*
X7894000Y-6600000D01*
X2635356Y-2979856D02*
X2635356Y-2909144D01*
X2564644Y-2909144D01*
X2564644Y-2979856D01*
X2635356Y-2979856D01*
X2635356Y-3233856D02*
X2635356Y-3163144D01*
X2564644Y-3163144D01*
X2564644Y-3233856D01*
X2635356Y-3233856D01*
X2635356Y-3487856D02*
X2635356Y-3417144D01*
X2564644Y-3417144D01*
X2564644Y-3487856D01*
X2635356Y-3487856D01*
X2635356Y-4081356D02*
X2635356Y-4010644D01*
X2564644Y-4010644D01*
X2564644Y-4081356D01*
X2635356Y-4081356D01*
X2635356Y-4335356D02*
X2635356Y-4264644D01*
X2564644Y-4264644D01*
X2564644Y-4335356D01*
X2635356Y-4335356D01*
X2635356Y-4589356D02*
X2635356Y-4518644D01*
X2564644Y-4518644D01*
X2564644Y-4589356D01*
X2635356Y-4589356D01*
X2635356Y-5179856D02*
X2635356Y-5109144D01*
X2564644Y-5109144D01*
X2564644Y-5179856D01*
X2635356Y-5179856D01*
X2635356Y-5433856D02*
X2635356Y-5363144D01*
X2564644Y-5363144D01*
X2564644Y-5433856D01*
X2635356Y-5433856D01*
X2635356Y-5687856D02*
X2635356Y-5617144D01*
X2564644Y-5617144D01*
X2564644Y-5687856D01*
X2635356Y-5687856D01*
X2635356Y-6281356D02*
X2635356Y-6210644D01*
X2564644Y-6210644D01*
X2564644Y-6281356D01*
X2635356Y-6281356D01*
X2635356Y-6535356D02*
X2635356Y-6464644D01*
X2564644Y-6464644D01*
X2564644Y-6535356D01*
X2635356Y-6535356D01*
X2635356Y-6789356D02*
X2635356Y-6718644D01*
X2564644Y-6718644D01*
X2564644Y-6789356D01*
X2635356Y-6789356D01*
X2635356Y-7379856D02*
X2635356Y-7309144D01*
X2564644Y-7309144D01*
X2564644Y-7379856D01*
X2635356Y-7379856D01*
X2635356Y-7633856D02*
X2635356Y-7563144D01*
X2564644Y-7563144D01*
X2564644Y-7633856D01*
X2635356Y-7633856D01*
X2635356Y-7887856D02*
X2635356Y-7817144D01*
X2564644Y-7817144D01*
X2564644Y-7887856D01*
X2635356Y-7887856D01*
X3527356Y-2435356D02*
X3527356Y-2364644D01*
X3456644Y-2364644D01*
X3456644Y-2435356D01*
X3527356Y-2435356D01*
X3781356Y-2435356D02*
X3781356Y-2364644D01*
X3710644Y-2364644D01*
X3710644Y-2435356D01*
X3781356Y-2435356D01*
X4035356Y-2435356D02*
X4035356Y-2364644D01*
X3964644Y-2364644D01*
X3964644Y-2435356D01*
X4035356Y-2435356D01*
X4574356Y-3860836D02*
X4574356Y-3790124D01*
X4503644Y-3790124D01*
X4503644Y-3860836D01*
X4574356Y-3860836D01*
X4574356Y-4114836D02*
X4574356Y-4044124D01*
X4503644Y-4044124D01*
X4503644Y-4114836D01*
X4574356Y-4114836D01*
X4574356Y-4368836D02*
X4574356Y-4298124D01*
X4503644Y-4298124D01*
X4503644Y-4368836D01*
X4574356Y-4368836D01*
X4574356Y-4622836D02*
X4574356Y-4552124D01*
X4503644Y-4552124D01*
X4503644Y-4622836D01*
X4574356Y-4622836D01*
X4574356Y-4876836D02*
X4574356Y-4806124D01*
X4503644Y-4806124D01*
X4503644Y-4876836D01*
X4574356Y-4876836D01*
X4574356Y-5130836D02*
X4574356Y-5060124D01*
X4503644Y-5060124D01*
X4503644Y-5130836D01*
X4574356Y-5130836D01*
X4574356Y-5384836D02*
X4574356Y-5314124D01*
X4503644Y-5314124D01*
X4503644Y-5384836D01*
X4574356Y-5384836D01*
X4574356Y-5638836D02*
X4574356Y-5568124D01*
X4503644Y-5568124D01*
X4503644Y-5638836D01*
X4574356Y-5638836D01*
X4574356Y-5892836D02*
X4574356Y-5822124D01*
X4503644Y-5822124D01*
X4503644Y-5892836D01*
X4574356Y-5892836D01*
X4574356Y-6146836D02*
X4574356Y-6076124D01*
X4503644Y-6076124D01*
X4503644Y-6146836D01*
X4574356Y-6146836D01*
X4574356Y-6400836D02*
X4574356Y-6330124D01*
X4503644Y-6330124D01*
X4503644Y-6400836D01*
X4574356Y-6400836D01*
X4574356Y-6654836D02*
X4574356Y-6584124D01*
X4503644Y-6584124D01*
X4503644Y-6654836D01*
X4574356Y-6654836D01*
X4574356Y-6908836D02*
X4574356Y-6838124D01*
X4503644Y-6838124D01*
X4503644Y-6908836D01*
X4574356Y-6908836D01*
X4574356Y-7162836D02*
X4574356Y-7092124D01*
X4503644Y-7092124D01*
X4503644Y-7162836D01*
X4574356Y-7162836D01*
X4574356Y-7416836D02*
X4574356Y-7346124D01*
X4503644Y-7346124D01*
X4503644Y-7416836D01*
X4574356Y-7416836D01*
X6098356Y-3860836D02*
X6098356Y-3790124D01*
X6027644Y-3790124D01*
X6027644Y-3860836D01*
X6098356Y-3860836D01*
X6098356Y-4114836D02*
X6098356Y-4044124D01*
X6027644Y-4044124D01*
X6027644Y-4114836D01*
X6098356Y-4114836D01*
X6098356Y-4368836D02*
X6098356Y-4298124D01*
X6027644Y-4298124D01*
X6027644Y-4368836D01*
X6098356Y-4368836D01*
X6098356Y-4622836D02*
X6098356Y-4552124D01*
X6027644Y-4552124D01*
X6027644Y-4622836D01*
X6098356Y-4622836D01*
X6098356Y-4876836D02*
X6098356Y-4806124D01*
X6027644Y-4806124D01*
X6027644Y-4876836D01*
X6098356Y-4876836D01*
X6098356Y-5130836D02*
X6098356Y-5060124D01*
X6027644Y-5060124D01*
X6027644Y-5130836D01*
X6098356Y-5130836D01*
X6098356Y-5384836D02*
X6098356Y-5314124D01*
X6027644Y-5314124D01*
X6027644Y-5384836D01*
X6098356Y-5384836D01*
X6098356Y-5638836D02*
X6098356Y-5568124D01*
X6027644Y-5568124D01*
X6027644Y-5638836D01*
X6098356Y-5638836D01*
X6098356Y-5892836D02*
X6098356Y-5822124D01*
X6027644Y-5822124D01*
X6027644Y-5892836D01*
X6098356Y-5892836D01*
X6098356Y-6146836D02*
X6098356Y-6076124D01*
X6027644Y-6076124D01*
X6027644Y-6146836D01*
X6098356Y-6146836D01*
X6098356Y-6400836D02*
X6098356Y-6330124D01*
X6027644Y-6330124D01*
X6027644Y-6400836D01*
X6098356Y-6400836D01*
X6098356Y-6654836D02*
X6098356Y-6584124D01*
X6027644Y-6584124D01*
X6027644Y-6654836D01*
X6098356Y-6654836D01*
X6098356Y-6908836D02*
X6098356Y-6838124D01*
X6027644Y-6838124D01*
X6027644Y-6908836D01*
X6098356Y-6908836D01*
X6098356Y-7162836D02*
X6098356Y-7092124D01*
X6027644Y-7092124D01*
X6027644Y-7162836D01*
X6098356Y-7162836D01*
X6098356Y-7416836D02*
X6098356Y-7346124D01*
X6027644Y-7346124D01*
X6027644Y-7416836D01*
X6098356Y-7416836D01*
X7073356Y-3735356D02*
X7073356Y-3664644D01*
X7002644Y-3664644D01*
X7002644Y-3735356D01*
X7073356Y-3735356D01*
X7073356Y-3989356D02*
X7073356Y-3918644D01*
X7002644Y-3918644D01*
X7002644Y-3989356D01*
X7073356Y-3989356D01*
X7327356Y-3735356D02*
X7327356Y-3664644D01*
X7256644Y-3664644D01*
X7256644Y-3735356D01*
X7327356Y-3735356D01*
X7327356Y-3989356D02*
X7327356Y-3918644D01*
X7256644Y-3918644D01*
X7256644Y-3989356D01*
X7327356Y-3989356D01*
X7535356Y-4879856D02*
X7535356Y-4809144D01*
X7464644Y-4809144D01*
X7464644Y-4879856D01*
X7535356Y-4879856D01*
X7535356Y-5133856D02*
X7535356Y-5063144D01*
X7464644Y-5063144D01*
X7464644Y-5133856D01*
X7535356Y-5133856D01*
X7535356Y-5387856D02*
X7535356Y-5317144D01*
X7464644Y-5317144D01*
X7464644Y-5387856D01*
X7535356Y-5387856D01*
X7581356Y-3735356D02*
X7581356Y-3664644D01*
X7510644Y-3664644D01*
X7510644Y-3735356D01*
X7581356Y-3735356D01*
X7581356Y-3989356D02*
X7581356Y-3918644D01*
X7510644Y-3918644D01*
X7510644Y-3989356D01*
X7581356Y-3989356D01*
X7835356Y-3735356D02*
X7835356Y-3664644D01*
X7764644Y-3664644D01*
X7764644Y-3735356D01*
X7835356Y-3735356D01*
X7835356Y-3989356D02*
X7835356Y-3918644D01*
X7764644Y-3918644D01*
X7764644Y-3989356D01*
X7835356Y-3989356D01*
X8089356Y-3735356D02*
X8089356Y-3664644D01*
X8018644Y-3664644D01*
X8018644Y-3735356D01*
X8089356Y-3735356D01*
X8089356Y-3989356D02*
X8089356Y-3918644D01*
X8018644Y-3918644D01*
X8018644Y-3989356D01*
X8089356Y-3989356D01*
X8835356Y-2935356D02*
X8835356Y-2864644D01*
X8764644Y-2864644D01*
X8764644Y-2935356D01*
X8835356Y-2935356D01*
X8835356Y-3189356D02*
X8835356Y-3118644D01*
X8764644Y-3118644D01*
X8764644Y-3189356D01*
X8835356Y-3189356D01*
X8835356Y-3443356D02*
X8835356Y-3372644D01*
X8764644Y-3372644D01*
X8764644Y-3443356D01*
X8835356Y-3443356D01*
X8835356Y-4081356D02*
X8835356Y-4010644D01*
X8764644Y-4010644D01*
X8764644Y-4081356D01*
X8835356Y-4081356D01*
X8835356Y-4335356D02*
X8835356Y-4264644D01*
X8764644Y-4264644D01*
X8764644Y-4335356D01*
X8835356Y-4335356D01*
X8835356Y-4589356D02*
X8835356Y-4518644D01*
X8764644Y-4518644D01*
X8764644Y-4589356D01*
X8835356Y-4589356D01*
X8835356Y-5179856D02*
X8835356Y-5109144D01*
X8764644Y-5109144D01*
X8764644Y-5179856D01*
X8835356Y-5179856D01*
X8835356Y-5433856D02*
X8835356Y-5363144D01*
X8764644Y-5363144D01*
X8764644Y-5433856D01*
X8835356Y-5433856D01*
X8835356Y-5687856D02*
X8835356Y-5617144D01*
X8764644Y-5617144D01*
X8764644Y-5687856D01*
X8835356Y-5687856D01*
X8835356Y-6282856D02*
X8835356Y-6212144D01*
X8764644Y-6212144D01*
X8764644Y-6282856D01*
X8835356Y-6282856D01*
X8835356Y-6536856D02*
X8835356Y-6466144D01*
X8764644Y-6466144D01*
X8764644Y-6536856D01*
X8835356Y-6536856D01*
X8835356Y-6790856D02*
X8835356Y-6720144D01*
X8764644Y-6720144D01*
X8764644Y-6790856D01*
X8835356Y-6790856D01*
X8835356Y-7382856D02*
X8835356Y-7312144D01*
X8764644Y-7312144D01*
X8764644Y-7382856D01*
X8835356Y-7382856D01*
X8835356Y-7636856D02*
X8835356Y-7566144D01*
X8764644Y-7566144D01*
X8764644Y-7636856D01*
X8835356Y-7636856D01*
X8835356Y-7890856D02*
X8835356Y-7820144D01*
X8764644Y-7820144D01*
X8764644Y-7890856D01*
X8835356Y-7890856D01*
D13*
X7323500Y-7666000D02*
X7389500Y-7600000D01*
X7323500Y-7534000D01*
X7257500Y-7600000D01*
X7323500Y-7666000D01*
X7823500Y-7666000D02*
X7889500Y-7600000D01*
X7823500Y-7534000D01*
X7757500Y-7600000D01*
X7823500Y-7666000D01*
D11*
X2458277Y-10913984D02*
X2458277Y-10713984D01*
X2458277Y-10713984D02*
X2505896Y-10713984D01*
X2505896Y-10713984D02*
X2534467Y-10723508D01*
X2534467Y-10723508D02*
X2553515Y-10742555D01*
X2553515Y-10742555D02*
X2563039Y-10761603D01*
X2563039Y-10761603D02*
X2572563Y-10799698D01*
X2572563Y-10799698D02*
X2572563Y-10828270D01*
X2572563Y-10828270D02*
X2563039Y-10866365D01*
X2563039Y-10866365D02*
X2553515Y-10885412D01*
X2553515Y-10885412D02*
X2534467Y-10904460D01*
X2534467Y-10904460D02*
X2505896Y-10913984D01*
X2505896Y-10913984D02*
X2458277Y-10913984D01*
X2658277Y-10913984D02*
X2658277Y-10780650D01*
X2658277Y-10818746D02*
X2667801Y-10799698D01*
X2667801Y-10799698D02*
X2677324Y-10790174D01*
X2677324Y-10790174D02*
X2696372Y-10780650D01*
X2696372Y-10780650D02*
X2715420Y-10780650D01*
X2782086Y-10913984D02*
X2782086Y-10780650D01*
X2782086Y-10713984D02*
X2772563Y-10723508D01*
X2772563Y-10723508D02*
X2782086Y-10733031D01*
X2782086Y-10733031D02*
X2791610Y-10723508D01*
X2791610Y-10723508D02*
X2782086Y-10713984D01*
X2782086Y-10713984D02*
X2782086Y-10733031D01*
X2905896Y-10913984D02*
X2886848Y-10904460D01*
X2886848Y-10904460D02*
X2877324Y-10885412D01*
X2877324Y-10885412D02*
X2877324Y-10713984D01*
X3010658Y-10913984D02*
X2991610Y-10904460D01*
X2991610Y-10904460D02*
X2982086Y-10885412D01*
X2982086Y-10885412D02*
X2982086Y-10713984D01*
X3239229Y-10913984D02*
X3239229Y-10713984D01*
X3239229Y-10713984D02*
X3305896Y-10856841D01*
X3305896Y-10856841D02*
X3372562Y-10713984D01*
X3372562Y-10713984D02*
X3372562Y-10913984D01*
X3553515Y-10913984D02*
X3553515Y-10809222D01*
X3553515Y-10809222D02*
X3543991Y-10790174D01*
X3543991Y-10790174D02*
X3524943Y-10780650D01*
X3524943Y-10780650D02*
X3486848Y-10780650D01*
X3486848Y-10780650D02*
X3467801Y-10790174D01*
X3553515Y-10904460D02*
X3534467Y-10913984D01*
X3534467Y-10913984D02*
X3486848Y-10913984D01*
X3486848Y-10913984D02*
X3467801Y-10904460D01*
X3467801Y-10904460D02*
X3458277Y-10885412D01*
X3458277Y-10885412D02*
X3458277Y-10866365D01*
X3458277Y-10866365D02*
X3467801Y-10847317D01*
X3467801Y-10847317D02*
X3486848Y-10837793D01*
X3486848Y-10837793D02*
X3534467Y-10837793D01*
X3534467Y-10837793D02*
X3553515Y-10828270D01*
X3648753Y-10780650D02*
X3648753Y-10980650D01*
X3648753Y-10790174D02*
X3667801Y-10780650D01*
X3667801Y-10780650D02*
X3705896Y-10780650D01*
X3705896Y-10780650D02*
X3724943Y-10790174D01*
X3724943Y-10790174D02*
X3734467Y-10799698D01*
X3734467Y-10799698D02*
X3743991Y-10818746D01*
X3743991Y-10818746D02*
X3743991Y-10875889D01*
X3743991Y-10875889D02*
X3734467Y-10894936D01*
X3734467Y-10894936D02*
X3724943Y-10904460D01*
X3724943Y-10904460D02*
X3705896Y-10913984D01*
X3705896Y-10913984D02*
X3667801Y-10913984D01*
X3667801Y-10913984D02*
X3648753Y-10904460D01*
X3829705Y-10894936D02*
X3839229Y-10904460D01*
X3839229Y-10904460D02*
X3829705Y-10913984D01*
X3829705Y-10913984D02*
X3820182Y-10904460D01*
X3820182Y-10904460D02*
X3829705Y-10894936D01*
X3829705Y-10894936D02*
X3829705Y-10913984D01*
X3829705Y-10790174D02*
X3839229Y-10799698D01*
X3839229Y-10799698D02*
X3829705Y-10809222D01*
X3829705Y-10809222D02*
X3820182Y-10799698D01*
X3820182Y-10799698D02*
X3829705Y-10790174D01*
X3829705Y-10790174D02*
X3829705Y-10809222D01*
D12*
X2167500Y-11227500D02*
X2197500Y-11257500D01*
X2197500Y-11227500D02*
X2167500Y-11257500D01*
D11*
X2496372Y-11133984D02*
X2515420Y-11133984D01*
X2515420Y-11133984D02*
X2534467Y-11143508D01*
X2534467Y-11143508D02*
X2543991Y-11153031D01*
X2543991Y-11153031D02*
X2553515Y-11172079D01*
X2553515Y-11172079D02*
X2563039Y-11210174D01*
X2563039Y-11210174D02*
X2563039Y-11257793D01*
X2563039Y-11257793D02*
X2553515Y-11295888D01*
X2553515Y-11295888D02*
X2543991Y-11314936D01*
X2543991Y-11314936D02*
X2534467Y-11324460D01*
X2534467Y-11324460D02*
X2515420Y-11333984D01*
X2515420Y-11333984D02*
X2496372Y-11333984D01*
X2496372Y-11333984D02*
X2477324Y-11324460D01*
X2477324Y-11324460D02*
X2467801Y-11314936D01*
X2467801Y-11314936D02*
X2458277Y-11295888D01*
X2458277Y-11295888D02*
X2448753Y-11257793D01*
X2448753Y-11257793D02*
X2448753Y-11210174D01*
X2448753Y-11210174D02*
X2458277Y-11172079D01*
X2458277Y-11172079D02*
X2467801Y-11153031D01*
X2467801Y-11153031D02*
X2477324Y-11143508D01*
X2477324Y-11143508D02*
X2496372Y-11133984D01*
X2648753Y-11314936D02*
X2658277Y-11324460D01*
X2658277Y-11324460D02*
X2648753Y-11333984D01*
X2648753Y-11333984D02*
X2639229Y-11324460D01*
X2639229Y-11324460D02*
X2648753Y-11314936D01*
X2648753Y-11314936D02*
X2648753Y-11333984D01*
X2724944Y-11133984D02*
X2848753Y-11133984D01*
X2848753Y-11133984D02*
X2782086Y-11210174D01*
X2782086Y-11210174D02*
X2810658Y-11210174D01*
X2810658Y-11210174D02*
X2829705Y-11219698D01*
X2829705Y-11219698D02*
X2839229Y-11229222D01*
X2839229Y-11229222D02*
X2848753Y-11248269D01*
X2848753Y-11248269D02*
X2848753Y-11295888D01*
X2848753Y-11295888D02*
X2839229Y-11314936D01*
X2839229Y-11314936D02*
X2829705Y-11324460D01*
X2829705Y-11324460D02*
X2810658Y-11333984D01*
X2810658Y-11333984D02*
X2753515Y-11333984D01*
X2753515Y-11333984D02*
X2734467Y-11324460D01*
X2734467Y-11324460D02*
X2724944Y-11314936D01*
X2972562Y-11133984D02*
X2991610Y-11133984D01*
X2991610Y-11133984D02*
X3010658Y-11143508D01*
X3010658Y-11143508D02*
X3020182Y-11153031D01*
X3020182Y-11153031D02*
X3029705Y-11172079D01*
X3029705Y-11172079D02*
X3039229Y-11210174D01*
X3039229Y-11210174D02*
X3039229Y-11257793D01*
X3039229Y-11257793D02*
X3029705Y-11295888D01*
X3029705Y-11295888D02*
X3020182Y-11314936D01*
X3020182Y-11314936D02*
X3010658Y-11324460D01*
X3010658Y-11324460D02*
X2991610Y-11333984D01*
X2991610Y-11333984D02*
X2972562Y-11333984D01*
X2972562Y-11333984D02*
X2953515Y-11324460D01*
X2953515Y-11324460D02*
X2943991Y-11314936D01*
X2943991Y-11314936D02*
X2934467Y-11295888D01*
X2934467Y-11295888D02*
X2924943Y-11257793D01*
X2924943Y-11257793D02*
X2924943Y-11210174D01*
X2924943Y-11210174D02*
X2934467Y-11172079D01*
X2934467Y-11172079D02*
X2943991Y-11153031D01*
X2943991Y-11153031D02*
X2953515Y-11143508D01*
X2953515Y-11143508D02*
X2972562Y-11133984D01*
X3163039Y-11133984D02*
X3182086Y-11133984D01*
X3182086Y-11133984D02*
X3201134Y-11143508D01*
X3201134Y-11143508D02*
X3210658Y-11153031D01*
X3210658Y-11153031D02*
X3220182Y-11172079D01*
X3220182Y-11172079D02*
X3229705Y-11210174D01*
X3229705Y-11210174D02*
X3229705Y-11257793D01*
X3229705Y-11257793D02*
X3220182Y-11295888D01*
X3220182Y-11295888D02*
X3210658Y-11314936D01*
X3210658Y-11314936D02*
X3201134Y-11324460D01*
X3201134Y-11324460D02*
X3182086Y-11333984D01*
X3182086Y-11333984D02*
X3163039Y-11333984D01*
X3163039Y-11333984D02*
X3143991Y-11324460D01*
X3143991Y-11324460D02*
X3134467Y-11314936D01*
X3134467Y-11314936D02*
X3124943Y-11295888D01*
X3124943Y-11295888D02*
X3115420Y-11257793D01*
X3115420Y-11257793D02*
X3115420Y-11210174D01*
X3115420Y-11210174D02*
X3124943Y-11172079D01*
X3124943Y-11172079D02*
X3134467Y-11153031D01*
X3134467Y-11153031D02*
X3143991Y-11143508D01*
X3143991Y-11143508D02*
X3163039Y-11133984D01*
X3315420Y-11333984D02*
X3315420Y-11200650D01*
X3315420Y-11219698D02*
X3324943Y-11210174D01*
X3324943Y-11210174D02*
X3343991Y-11200650D01*
X3343991Y-11200650D02*
X3372563Y-11200650D01*
X3372563Y-11200650D02*
X3391610Y-11210174D01*
X3391610Y-11210174D02*
X3401134Y-11229222D01*
X3401134Y-11229222D02*
X3401134Y-11333984D01*
X3401134Y-11229222D02*
X3410658Y-11210174D01*
X3410658Y-11210174D02*
X3429705Y-11200650D01*
X3429705Y-11200650D02*
X3458277Y-11200650D01*
X3458277Y-11200650D02*
X3477324Y-11210174D01*
X3477324Y-11210174D02*
X3486848Y-11229222D01*
X3486848Y-11229222D02*
X3486848Y-11333984D01*
X3582086Y-11333984D02*
X3582086Y-11200650D01*
X3582086Y-11219698D02*
X3591610Y-11210174D01*
X3591610Y-11210174D02*
X3610658Y-11200650D01*
X3610658Y-11200650D02*
X3639229Y-11200650D01*
X3639229Y-11200650D02*
X3658277Y-11210174D01*
X3658277Y-11210174D02*
X3667801Y-11229222D01*
X3667801Y-11229222D02*
X3667801Y-11333984D01*
X3667801Y-11229222D02*
X3677324Y-11210174D01*
X3677324Y-11210174D02*
X3696372Y-11200650D01*
X3696372Y-11200650D02*
X3724943Y-11200650D01*
X3724943Y-11200650D02*
X3743991Y-11210174D01*
X3743991Y-11210174D02*
X3753515Y-11229222D01*
X3753515Y-11229222D02*
X3753515Y-11333984D01*
X4143991Y-11124460D02*
X3972563Y-11381603D01*
X4401134Y-11133984D02*
X4420182Y-11133984D01*
X4420182Y-11133984D02*
X4439229Y-11143508D01*
X4439229Y-11143508D02*
X4448753Y-11153031D01*
X4448753Y-11153031D02*
X4458277Y-11172079D01*
X4458277Y-11172079D02*
X4467801Y-11210174D01*
X4467801Y-11210174D02*
X4467801Y-11257793D01*
X4467801Y-11257793D02*
X4458277Y-11295888D01*
X4458277Y-11295888D02*
X4448753Y-11314936D01*
X4448753Y-11314936D02*
X4439229Y-11324460D01*
X4439229Y-11324460D02*
X4420182Y-11333984D01*
X4420182Y-11333984D02*
X4401134Y-11333984D01*
X4401134Y-11333984D02*
X4382087Y-11324460D01*
X4382087Y-11324460D02*
X4372563Y-11314936D01*
X4372563Y-11314936D02*
X4363039Y-11295888D01*
X4363039Y-11295888D02*
X4353515Y-11257793D01*
X4353515Y-11257793D02*
X4353515Y-11210174D01*
X4353515Y-11210174D02*
X4363039Y-11172079D01*
X4363039Y-11172079D02*
X4372563Y-11153031D01*
X4372563Y-11153031D02*
X4382087Y-11143508D01*
X4382087Y-11143508D02*
X4401134Y-11133984D01*
X4553515Y-11314936D02*
X4563039Y-11324460D01*
X4563039Y-11324460D02*
X4553515Y-11333984D01*
X4553515Y-11333984D02*
X4543991Y-11324460D01*
X4543991Y-11324460D02*
X4553515Y-11314936D01*
X4553515Y-11314936D02*
X4553515Y-11333984D01*
X4686848Y-11133984D02*
X4705896Y-11133984D01*
X4705896Y-11133984D02*
X4724944Y-11143508D01*
X4724944Y-11143508D02*
X4734468Y-11153031D01*
X4734468Y-11153031D02*
X4743991Y-11172079D01*
X4743991Y-11172079D02*
X4753515Y-11210174D01*
X4753515Y-11210174D02*
X4753515Y-11257793D01*
X4753515Y-11257793D02*
X4743991Y-11295888D01*
X4743991Y-11295888D02*
X4734468Y-11314936D01*
X4734468Y-11314936D02*
X4724944Y-11324460D01*
X4724944Y-11324460D02*
X4705896Y-11333984D01*
X4705896Y-11333984D02*
X4686848Y-11333984D01*
X4686848Y-11333984D02*
X4667801Y-11324460D01*
X4667801Y-11324460D02*
X4658277Y-11314936D01*
X4658277Y-11314936D02*
X4648753Y-11295888D01*
X4648753Y-11295888D02*
X4639229Y-11257793D01*
X4639229Y-11257793D02*
X4639229Y-11210174D01*
X4639229Y-11210174D02*
X4648753Y-11172079D01*
X4648753Y-11172079D02*
X4658277Y-11153031D01*
X4658277Y-11153031D02*
X4667801Y-11143508D01*
X4667801Y-11143508D02*
X4686848Y-11133984D01*
X4943991Y-11333984D02*
X4829706Y-11333984D01*
X4886848Y-11333984D02*
X4886848Y-11133984D01*
X4886848Y-11133984D02*
X4867801Y-11162555D01*
X4867801Y-11162555D02*
X4848753Y-11181603D01*
X4848753Y-11181603D02*
X4829706Y-11191127D01*
X5134468Y-11333984D02*
X5020182Y-11333984D01*
X5077325Y-11333984D02*
X5077325Y-11133984D01*
X5077325Y-11133984D02*
X5058277Y-11162555D01*
X5058277Y-11162555D02*
X5039229Y-11181603D01*
X5039229Y-11181603D02*
X5020182Y-11191127D01*
X5248753Y-11219698D02*
X5229706Y-11210174D01*
X5229706Y-11210174D02*
X5220182Y-11200650D01*
X5220182Y-11200650D02*
X5210658Y-11181603D01*
X5210658Y-11181603D02*
X5210658Y-11172079D01*
X5210658Y-11172079D02*
X5220182Y-11153031D01*
X5220182Y-11153031D02*
X5229706Y-11143508D01*
X5229706Y-11143508D02*
X5248753Y-11133984D01*
X5248753Y-11133984D02*
X5286849Y-11133984D01*
X5286849Y-11133984D02*
X5305896Y-11143508D01*
X5305896Y-11143508D02*
X5315420Y-11153031D01*
X5315420Y-11153031D02*
X5324944Y-11172079D01*
X5324944Y-11172079D02*
X5324944Y-11181603D01*
X5324944Y-11181603D02*
X5315420Y-11200650D01*
X5315420Y-11200650D02*
X5305896Y-11210174D01*
X5305896Y-11210174D02*
X5286849Y-11219698D01*
X5286849Y-11219698D02*
X5248753Y-11219698D01*
X5248753Y-11219698D02*
X5229706Y-11229222D01*
X5229706Y-11229222D02*
X5220182Y-11238746D01*
X5220182Y-11238746D02*
X5210658Y-11257793D01*
X5210658Y-11257793D02*
X5210658Y-11295888D01*
X5210658Y-11295888D02*
X5220182Y-11314936D01*
X5220182Y-11314936D02*
X5229706Y-11324460D01*
X5229706Y-11324460D02*
X5248753Y-11333984D01*
X5248753Y-11333984D02*
X5286849Y-11333984D01*
X5286849Y-11333984D02*
X5305896Y-11324460D01*
X5305896Y-11324460D02*
X5315420Y-11314936D01*
X5315420Y-11314936D02*
X5324944Y-11295888D01*
X5324944Y-11295888D02*
X5324944Y-11257793D01*
X5324944Y-11257793D02*
X5315420Y-11238746D01*
X5315420Y-11238746D02*
X5305896Y-11229222D01*
X5305896Y-11229222D02*
X5286849Y-11219698D01*
X5401134Y-11133984D02*
X5401134Y-11172079D01*
X5477325Y-11133984D02*
X5477325Y-11172079D01*
X5772563Y-11410174D02*
X5763039Y-11400650D01*
X5763039Y-11400650D02*
X5743991Y-11372079D01*
X5743991Y-11372079D02*
X5734468Y-11353031D01*
X5734468Y-11353031D02*
X5724944Y-11324460D01*
X5724944Y-11324460D02*
X5715420Y-11276841D01*
X5715420Y-11276841D02*
X5715420Y-11238746D01*
X5715420Y-11238746D02*
X5724944Y-11191127D01*
X5724944Y-11191127D02*
X5734468Y-11162555D01*
X5734468Y-11162555D02*
X5743991Y-11143508D01*
X5743991Y-11143508D02*
X5763039Y-11114936D01*
X5763039Y-11114936D02*
X5772563Y-11105412D01*
X5877325Y-11219698D02*
X5858277Y-11210174D01*
X5858277Y-11210174D02*
X5848753Y-11200650D01*
X5848753Y-11200650D02*
X5839229Y-11181603D01*
X5839229Y-11181603D02*
X5839229Y-11172079D01*
X5839229Y-11172079D02*
X5848753Y-11153031D01*
X5848753Y-11153031D02*
X5858277Y-11143508D01*
X5858277Y-11143508D02*
X5877325Y-11133984D01*
X5877325Y-11133984D02*
X5915420Y-11133984D01*
X5915420Y-11133984D02*
X5934468Y-11143508D01*
X5934468Y-11143508D02*
X5943991Y-11153031D01*
X5943991Y-11153031D02*
X5953515Y-11172079D01*
X5953515Y-11172079D02*
X5953515Y-11181603D01*
X5953515Y-11181603D02*
X5943991Y-11200650D01*
X5943991Y-11200650D02*
X5934468Y-11210174D01*
X5934468Y-11210174D02*
X5915420Y-11219698D01*
X5915420Y-11219698D02*
X5877325Y-11219698D01*
X5877325Y-11219698D02*
X5858277Y-11229222D01*
X5858277Y-11229222D02*
X5848753Y-11238746D01*
X5848753Y-11238746D02*
X5839229Y-11257793D01*
X5839229Y-11257793D02*
X5839229Y-11295888D01*
X5839229Y-11295888D02*
X5848753Y-11314936D01*
X5848753Y-11314936D02*
X5858277Y-11324460D01*
X5858277Y-11324460D02*
X5877325Y-11333984D01*
X5877325Y-11333984D02*
X5915420Y-11333984D01*
X5915420Y-11333984D02*
X5934468Y-11324460D01*
X5934468Y-11324460D02*
X5943991Y-11314936D01*
X5943991Y-11314936D02*
X5953515Y-11295888D01*
X5953515Y-11295888D02*
X5953515Y-11257793D01*
X5953515Y-11257793D02*
X5943991Y-11238746D01*
X5943991Y-11238746D02*
X5934468Y-11229222D01*
X5934468Y-11229222D02*
X5915420Y-11219698D01*
X6029706Y-11153031D02*
X6039229Y-11143508D01*
X6039229Y-11143508D02*
X6058277Y-11133984D01*
X6058277Y-11133984D02*
X6105896Y-11133984D01*
X6105896Y-11133984D02*
X6124944Y-11143508D01*
X6124944Y-11143508D02*
X6134468Y-11153031D01*
X6134468Y-11153031D02*
X6143991Y-11172079D01*
X6143991Y-11172079D02*
X6143991Y-11191127D01*
X6143991Y-11191127D02*
X6134468Y-11219698D01*
X6134468Y-11219698D02*
X6020182Y-11333984D01*
X6020182Y-11333984D02*
X6143991Y-11333984D01*
X6382087Y-11333984D02*
X6382087Y-11133984D01*
X6467801Y-11333984D02*
X6467801Y-11229222D01*
X6467801Y-11229222D02*
X6458277Y-11210174D01*
X6458277Y-11210174D02*
X6439230Y-11200650D01*
X6439230Y-11200650D02*
X6410658Y-11200650D01*
X6410658Y-11200650D02*
X6391610Y-11210174D01*
X6391610Y-11210174D02*
X6382087Y-11219698D01*
X6591610Y-11333984D02*
X6572563Y-11324460D01*
X6572563Y-11324460D02*
X6563039Y-11314936D01*
X6563039Y-11314936D02*
X6553515Y-11295888D01*
X6553515Y-11295888D02*
X6553515Y-11238746D01*
X6553515Y-11238746D02*
X6563039Y-11219698D01*
X6563039Y-11219698D02*
X6572563Y-11210174D01*
X6572563Y-11210174D02*
X6591610Y-11200650D01*
X6591610Y-11200650D02*
X6620182Y-11200650D01*
X6620182Y-11200650D02*
X6639230Y-11210174D01*
X6639230Y-11210174D02*
X6648753Y-11219698D01*
X6648753Y-11219698D02*
X6658277Y-11238746D01*
X6658277Y-11238746D02*
X6658277Y-11295888D01*
X6658277Y-11295888D02*
X6648753Y-11314936D01*
X6648753Y-11314936D02*
X6639230Y-11324460D01*
X6639230Y-11324460D02*
X6620182Y-11333984D01*
X6620182Y-11333984D02*
X6591610Y-11333984D01*
X6772563Y-11333984D02*
X6753515Y-11324460D01*
X6753515Y-11324460D02*
X6743991Y-11305412D01*
X6743991Y-11305412D02*
X6743991Y-11133984D01*
X6924944Y-11324460D02*
X6905896Y-11333984D01*
X6905896Y-11333984D02*
X6867801Y-11333984D01*
X6867801Y-11333984D02*
X6848753Y-11324460D01*
X6848753Y-11324460D02*
X6839230Y-11305412D01*
X6839230Y-11305412D02*
X6839230Y-11229222D01*
X6839230Y-11229222D02*
X6848753Y-11210174D01*
X6848753Y-11210174D02*
X6867801Y-11200650D01*
X6867801Y-11200650D02*
X6905896Y-11200650D01*
X6905896Y-11200650D02*
X6924944Y-11210174D01*
X6924944Y-11210174D02*
X6934468Y-11229222D01*
X6934468Y-11229222D02*
X6934468Y-11248269D01*
X6934468Y-11248269D02*
X6839230Y-11267317D01*
X7010658Y-11324460D02*
X7029706Y-11333984D01*
X7029706Y-11333984D02*
X7067801Y-11333984D01*
X7067801Y-11333984D02*
X7086849Y-11324460D01*
X7086849Y-11324460D02*
X7096372Y-11305412D01*
X7096372Y-11305412D02*
X7096372Y-11295888D01*
X7096372Y-11295888D02*
X7086849Y-11276841D01*
X7086849Y-11276841D02*
X7067801Y-11267317D01*
X7067801Y-11267317D02*
X7039230Y-11267317D01*
X7039230Y-11267317D02*
X7020182Y-11257793D01*
X7020182Y-11257793D02*
X7010658Y-11238746D01*
X7010658Y-11238746D02*
X7010658Y-11229222D01*
X7010658Y-11229222D02*
X7020182Y-11210174D01*
X7020182Y-11210174D02*
X7039230Y-11200650D01*
X7039230Y-11200650D02*
X7067801Y-11200650D01*
X7067801Y-11200650D02*
X7086849Y-11210174D01*
X7163039Y-11410174D02*
X7172563Y-11400650D01*
X7172563Y-11400650D02*
X7191611Y-11372079D01*
X7191611Y-11372079D02*
X7201134Y-11353031D01*
X7201134Y-11353031D02*
X7210658Y-11324460D01*
X7210658Y-11324460D02*
X7220182Y-11276841D01*
X7220182Y-11276841D02*
X7220182Y-11238746D01*
X7220182Y-11238746D02*
X7210658Y-11191127D01*
X7210658Y-11191127D02*
X7201134Y-11162555D01*
X7201134Y-11162555D02*
X7191611Y-11143508D01*
X7191611Y-11143508D02*
X7172563Y-11114936D01*
X7172563Y-11114936D02*
X7163039Y-11105412D01*
D12*
X2197500Y-11506500D02*
G75*
G02*
X2137500Y-11506500I-30000J0D01*
G01*
X2137500Y-11506500D02*
G75*
G02*
X2197500Y-11506500I30000J0D01*
G01*
D11*
X2496372Y-11397984D02*
X2515420Y-11397984D01*
X2515420Y-11397984D02*
X2534467Y-11407508D01*
X2534467Y-11407508D02*
X2543991Y-11417031D01*
X2543991Y-11417031D02*
X2553515Y-11436079D01*
X2553515Y-11436079D02*
X2563039Y-11474174D01*
X2563039Y-11474174D02*
X2563039Y-11521793D01*
X2563039Y-11521793D02*
X2553515Y-11559888D01*
X2553515Y-11559888D02*
X2543991Y-11578936D01*
X2543991Y-11578936D02*
X2534467Y-11588460D01*
X2534467Y-11588460D02*
X2515420Y-11597984D01*
X2515420Y-11597984D02*
X2496372Y-11597984D01*
X2496372Y-11597984D02*
X2477324Y-11588460D01*
X2477324Y-11588460D02*
X2467801Y-11578936D01*
X2467801Y-11578936D02*
X2458277Y-11559888D01*
X2458277Y-11559888D02*
X2448753Y-11521793D01*
X2448753Y-11521793D02*
X2448753Y-11474174D01*
X2448753Y-11474174D02*
X2458277Y-11436079D01*
X2458277Y-11436079D02*
X2467801Y-11417031D01*
X2467801Y-11417031D02*
X2477324Y-11407508D01*
X2477324Y-11407508D02*
X2496372Y-11397984D01*
X2648753Y-11578936D02*
X2658277Y-11588460D01*
X2658277Y-11588460D02*
X2648753Y-11597984D01*
X2648753Y-11597984D02*
X2639229Y-11588460D01*
X2639229Y-11588460D02*
X2648753Y-11578936D01*
X2648753Y-11578936D02*
X2648753Y-11597984D01*
X2829705Y-11397984D02*
X2791610Y-11397984D01*
X2791610Y-11397984D02*
X2772563Y-11407508D01*
X2772563Y-11407508D02*
X2763039Y-11417031D01*
X2763039Y-11417031D02*
X2743991Y-11445603D01*
X2743991Y-11445603D02*
X2734467Y-11483698D01*
X2734467Y-11483698D02*
X2734467Y-11559888D01*
X2734467Y-11559888D02*
X2743991Y-11578936D01*
X2743991Y-11578936D02*
X2753515Y-11588460D01*
X2753515Y-11588460D02*
X2772563Y-11597984D01*
X2772563Y-11597984D02*
X2810658Y-11597984D01*
X2810658Y-11597984D02*
X2829705Y-11588460D01*
X2829705Y-11588460D02*
X2839229Y-11578936D01*
X2839229Y-11578936D02*
X2848753Y-11559888D01*
X2848753Y-11559888D02*
X2848753Y-11512269D01*
X2848753Y-11512269D02*
X2839229Y-11493222D01*
X2839229Y-11493222D02*
X2829705Y-11483698D01*
X2829705Y-11483698D02*
X2810658Y-11474174D01*
X2810658Y-11474174D02*
X2772563Y-11474174D01*
X2772563Y-11474174D02*
X2753515Y-11483698D01*
X2753515Y-11483698D02*
X2743991Y-11493222D01*
X2743991Y-11493222D02*
X2734467Y-11512269D01*
X2972562Y-11397984D02*
X2991610Y-11397984D01*
X2991610Y-11397984D02*
X3010658Y-11407508D01*
X3010658Y-11407508D02*
X3020182Y-11417031D01*
X3020182Y-11417031D02*
X3029705Y-11436079D01*
X3029705Y-11436079D02*
X3039229Y-11474174D01*
X3039229Y-11474174D02*
X3039229Y-11521793D01*
X3039229Y-11521793D02*
X3029705Y-11559888D01*
X3029705Y-11559888D02*
X3020182Y-11578936D01*
X3020182Y-11578936D02*
X3010658Y-11588460D01*
X3010658Y-11588460D02*
X2991610Y-11597984D01*
X2991610Y-11597984D02*
X2972562Y-11597984D01*
X2972562Y-11597984D02*
X2953515Y-11588460D01*
X2953515Y-11588460D02*
X2943991Y-11578936D01*
X2943991Y-11578936D02*
X2934467Y-11559888D01*
X2934467Y-11559888D02*
X2924943Y-11521793D01*
X2924943Y-11521793D02*
X2924943Y-11474174D01*
X2924943Y-11474174D02*
X2934467Y-11436079D01*
X2934467Y-11436079D02*
X2943991Y-11417031D01*
X2943991Y-11417031D02*
X2953515Y-11407508D01*
X2953515Y-11407508D02*
X2972562Y-11397984D01*
X3163039Y-11397984D02*
X3182086Y-11397984D01*
X3182086Y-11397984D02*
X3201134Y-11407508D01*
X3201134Y-11407508D02*
X3210658Y-11417031D01*
X3210658Y-11417031D02*
X3220182Y-11436079D01*
X3220182Y-11436079D02*
X3229705Y-11474174D01*
X3229705Y-11474174D02*
X3229705Y-11521793D01*
X3229705Y-11521793D02*
X3220182Y-11559888D01*
X3220182Y-11559888D02*
X3210658Y-11578936D01*
X3210658Y-11578936D02*
X3201134Y-11588460D01*
X3201134Y-11588460D02*
X3182086Y-11597984D01*
X3182086Y-11597984D02*
X3163039Y-11597984D01*
X3163039Y-11597984D02*
X3143991Y-11588460D01*
X3143991Y-11588460D02*
X3134467Y-11578936D01*
X3134467Y-11578936D02*
X3124943Y-11559888D01*
X3124943Y-11559888D02*
X3115420Y-11521793D01*
X3115420Y-11521793D02*
X3115420Y-11474174D01*
X3115420Y-11474174D02*
X3124943Y-11436079D01*
X3124943Y-11436079D02*
X3134467Y-11417031D01*
X3134467Y-11417031D02*
X3143991Y-11407508D01*
X3143991Y-11407508D02*
X3163039Y-11397984D01*
X3315420Y-11597984D02*
X3315420Y-11464650D01*
X3315420Y-11483698D02*
X3324943Y-11474174D01*
X3324943Y-11474174D02*
X3343991Y-11464650D01*
X3343991Y-11464650D02*
X3372563Y-11464650D01*
X3372563Y-11464650D02*
X3391610Y-11474174D01*
X3391610Y-11474174D02*
X3401134Y-11493222D01*
X3401134Y-11493222D02*
X3401134Y-11597984D01*
X3401134Y-11493222D02*
X3410658Y-11474174D01*
X3410658Y-11474174D02*
X3429705Y-11464650D01*
X3429705Y-11464650D02*
X3458277Y-11464650D01*
X3458277Y-11464650D02*
X3477324Y-11474174D01*
X3477324Y-11474174D02*
X3486848Y-11493222D01*
X3486848Y-11493222D02*
X3486848Y-11597984D01*
X3582086Y-11597984D02*
X3582086Y-11464650D01*
X3582086Y-11483698D02*
X3591610Y-11474174D01*
X3591610Y-11474174D02*
X3610658Y-11464650D01*
X3610658Y-11464650D02*
X3639229Y-11464650D01*
X3639229Y-11464650D02*
X3658277Y-11474174D01*
X3658277Y-11474174D02*
X3667801Y-11493222D01*
X3667801Y-11493222D02*
X3667801Y-11597984D01*
X3667801Y-11493222D02*
X3677324Y-11474174D01*
X3677324Y-11474174D02*
X3696372Y-11464650D01*
X3696372Y-11464650D02*
X3724943Y-11464650D01*
X3724943Y-11464650D02*
X3743991Y-11474174D01*
X3743991Y-11474174D02*
X3753515Y-11493222D01*
X3753515Y-11493222D02*
X3753515Y-11597984D01*
X4143991Y-11388460D02*
X3972563Y-11645603D01*
X4401134Y-11397984D02*
X4420182Y-11397984D01*
X4420182Y-11397984D02*
X4439229Y-11407508D01*
X4439229Y-11407508D02*
X4448753Y-11417031D01*
X4448753Y-11417031D02*
X4458277Y-11436079D01*
X4458277Y-11436079D02*
X4467801Y-11474174D01*
X4467801Y-11474174D02*
X4467801Y-11521793D01*
X4467801Y-11521793D02*
X4458277Y-11559888D01*
X4458277Y-11559888D02*
X4448753Y-11578936D01*
X4448753Y-11578936D02*
X4439229Y-11588460D01*
X4439229Y-11588460D02*
X4420182Y-11597984D01*
X4420182Y-11597984D02*
X4401134Y-11597984D01*
X4401134Y-11597984D02*
X4382087Y-11588460D01*
X4382087Y-11588460D02*
X4372563Y-11578936D01*
X4372563Y-11578936D02*
X4363039Y-11559888D01*
X4363039Y-11559888D02*
X4353515Y-11521793D01*
X4353515Y-11521793D02*
X4353515Y-11474174D01*
X4353515Y-11474174D02*
X4363039Y-11436079D01*
X4363039Y-11436079D02*
X4372563Y-11417031D01*
X4372563Y-11417031D02*
X4382087Y-11407508D01*
X4382087Y-11407508D02*
X4401134Y-11397984D01*
X4553515Y-11578936D02*
X4563039Y-11588460D01*
X4563039Y-11588460D02*
X4553515Y-11597984D01*
X4553515Y-11597984D02*
X4543991Y-11588460D01*
X4543991Y-11588460D02*
X4553515Y-11578936D01*
X4553515Y-11578936D02*
X4553515Y-11597984D01*
X4686848Y-11397984D02*
X4705896Y-11397984D01*
X4705896Y-11397984D02*
X4724944Y-11407508D01*
X4724944Y-11407508D02*
X4734468Y-11417031D01*
X4734468Y-11417031D02*
X4743991Y-11436079D01*
X4743991Y-11436079D02*
X4753515Y-11474174D01*
X4753515Y-11474174D02*
X4753515Y-11521793D01*
X4753515Y-11521793D02*
X4743991Y-11559888D01*
X4743991Y-11559888D02*
X4734468Y-11578936D01*
X4734468Y-11578936D02*
X4724944Y-11588460D01*
X4724944Y-11588460D02*
X4705896Y-11597984D01*
X4705896Y-11597984D02*
X4686848Y-11597984D01*
X4686848Y-11597984D02*
X4667801Y-11588460D01*
X4667801Y-11588460D02*
X4658277Y-11578936D01*
X4658277Y-11578936D02*
X4648753Y-11559888D01*
X4648753Y-11559888D02*
X4639229Y-11521793D01*
X4639229Y-11521793D02*
X4639229Y-11474174D01*
X4639229Y-11474174D02*
X4648753Y-11436079D01*
X4648753Y-11436079D02*
X4658277Y-11417031D01*
X4658277Y-11417031D02*
X4667801Y-11407508D01*
X4667801Y-11407508D02*
X4686848Y-11397984D01*
X4829706Y-11417031D02*
X4839229Y-11407508D01*
X4839229Y-11407508D02*
X4858277Y-11397984D01*
X4858277Y-11397984D02*
X4905896Y-11397984D01*
X4905896Y-11397984D02*
X4924944Y-11407508D01*
X4924944Y-11407508D02*
X4934468Y-11417031D01*
X4934468Y-11417031D02*
X4943991Y-11436079D01*
X4943991Y-11436079D02*
X4943991Y-11455127D01*
X4943991Y-11455127D02*
X4934468Y-11483698D01*
X4934468Y-11483698D02*
X4820182Y-11597984D01*
X4820182Y-11597984D02*
X4943991Y-11597984D01*
X5010658Y-11397984D02*
X5134468Y-11397984D01*
X5134468Y-11397984D02*
X5067801Y-11474174D01*
X5067801Y-11474174D02*
X5096372Y-11474174D01*
X5096372Y-11474174D02*
X5115420Y-11483698D01*
X5115420Y-11483698D02*
X5124944Y-11493222D01*
X5124944Y-11493222D02*
X5134468Y-11512269D01*
X5134468Y-11512269D02*
X5134468Y-11559888D01*
X5134468Y-11559888D02*
X5124944Y-11578936D01*
X5124944Y-11578936D02*
X5115420Y-11588460D01*
X5115420Y-11588460D02*
X5096372Y-11597984D01*
X5096372Y-11597984D02*
X5039229Y-11597984D01*
X5039229Y-11597984D02*
X5020182Y-11588460D01*
X5020182Y-11588460D02*
X5010658Y-11578936D01*
X5305896Y-11397984D02*
X5267801Y-11397984D01*
X5267801Y-11397984D02*
X5248753Y-11407508D01*
X5248753Y-11407508D02*
X5239229Y-11417031D01*
X5239229Y-11417031D02*
X5220182Y-11445603D01*
X5220182Y-11445603D02*
X5210658Y-11483698D01*
X5210658Y-11483698D02*
X5210658Y-11559888D01*
X5210658Y-11559888D02*
X5220182Y-11578936D01*
X5220182Y-11578936D02*
X5229706Y-11588460D01*
X5229706Y-11588460D02*
X5248753Y-11597984D01*
X5248753Y-11597984D02*
X5286849Y-11597984D01*
X5286849Y-11597984D02*
X5305896Y-11588460D01*
X5305896Y-11588460D02*
X5315420Y-11578936D01*
X5315420Y-11578936D02*
X5324944Y-11559888D01*
X5324944Y-11559888D02*
X5324944Y-11512269D01*
X5324944Y-11512269D02*
X5315420Y-11493222D01*
X5315420Y-11493222D02*
X5305896Y-11483698D01*
X5305896Y-11483698D02*
X5286849Y-11474174D01*
X5286849Y-11474174D02*
X5248753Y-11474174D01*
X5248753Y-11474174D02*
X5229706Y-11483698D01*
X5229706Y-11483698D02*
X5220182Y-11493222D01*
X5220182Y-11493222D02*
X5210658Y-11512269D01*
X5401134Y-11397984D02*
X5401134Y-11436079D01*
X5477325Y-11397984D02*
X5477325Y-11436079D01*
X5772563Y-11674174D02*
X5763039Y-11664650D01*
X5763039Y-11664650D02*
X5743991Y-11636079D01*
X5743991Y-11636079D02*
X5734468Y-11617031D01*
X5734468Y-11617031D02*
X5724944Y-11588460D01*
X5724944Y-11588460D02*
X5715420Y-11540841D01*
X5715420Y-11540841D02*
X5715420Y-11502746D01*
X5715420Y-11502746D02*
X5724944Y-11455127D01*
X5724944Y-11455127D02*
X5734468Y-11426555D01*
X5734468Y-11426555D02*
X5743991Y-11407508D01*
X5743991Y-11407508D02*
X5763039Y-11378936D01*
X5763039Y-11378936D02*
X5772563Y-11369412D01*
X5829706Y-11397984D02*
X5953515Y-11397984D01*
X5953515Y-11397984D02*
X5886848Y-11474174D01*
X5886848Y-11474174D02*
X5915420Y-11474174D01*
X5915420Y-11474174D02*
X5934468Y-11483698D01*
X5934468Y-11483698D02*
X5943991Y-11493222D01*
X5943991Y-11493222D02*
X5953515Y-11512269D01*
X5953515Y-11512269D02*
X5953515Y-11559888D01*
X5953515Y-11559888D02*
X5943991Y-11578936D01*
X5943991Y-11578936D02*
X5934468Y-11588460D01*
X5934468Y-11588460D02*
X5915420Y-11597984D01*
X5915420Y-11597984D02*
X5858277Y-11597984D01*
X5858277Y-11597984D02*
X5839229Y-11588460D01*
X5839229Y-11588460D02*
X5829706Y-11578936D01*
X6191610Y-11597984D02*
X6191610Y-11397984D01*
X6277325Y-11597984D02*
X6277325Y-11493222D01*
X6277325Y-11493222D02*
X6267801Y-11474174D01*
X6267801Y-11474174D02*
X6248753Y-11464650D01*
X6248753Y-11464650D02*
X6220182Y-11464650D01*
X6220182Y-11464650D02*
X6201134Y-11474174D01*
X6201134Y-11474174D02*
X6191610Y-11483698D01*
X6401134Y-11597984D02*
X6382087Y-11588460D01*
X6382087Y-11588460D02*
X6372563Y-11578936D01*
X6372563Y-11578936D02*
X6363039Y-11559888D01*
X6363039Y-11559888D02*
X6363039Y-11502746D01*
X6363039Y-11502746D02*
X6372563Y-11483698D01*
X6372563Y-11483698D02*
X6382087Y-11474174D01*
X6382087Y-11474174D02*
X6401134Y-11464650D01*
X6401134Y-11464650D02*
X6429706Y-11464650D01*
X6429706Y-11464650D02*
X6448753Y-11474174D01*
X6448753Y-11474174D02*
X6458277Y-11483698D01*
X6458277Y-11483698D02*
X6467801Y-11502746D01*
X6467801Y-11502746D02*
X6467801Y-11559888D01*
X6467801Y-11559888D02*
X6458277Y-11578936D01*
X6458277Y-11578936D02*
X6448753Y-11588460D01*
X6448753Y-11588460D02*
X6429706Y-11597984D01*
X6429706Y-11597984D02*
X6401134Y-11597984D01*
X6582087Y-11597984D02*
X6563039Y-11588460D01*
X6563039Y-11588460D02*
X6553515Y-11569412D01*
X6553515Y-11569412D02*
X6553515Y-11397984D01*
X6734468Y-11588460D02*
X6715420Y-11597984D01*
X6715420Y-11597984D02*
X6677325Y-11597984D01*
X6677325Y-11597984D02*
X6658277Y-11588460D01*
X6658277Y-11588460D02*
X6648753Y-11569412D01*
X6648753Y-11569412D02*
X6648753Y-11493222D01*
X6648753Y-11493222D02*
X6658277Y-11474174D01*
X6658277Y-11474174D02*
X6677325Y-11464650D01*
X6677325Y-11464650D02*
X6715420Y-11464650D01*
X6715420Y-11464650D02*
X6734468Y-11474174D01*
X6734468Y-11474174D02*
X6743991Y-11493222D01*
X6743991Y-11493222D02*
X6743991Y-11512269D01*
X6743991Y-11512269D02*
X6648753Y-11531317D01*
X6820182Y-11588460D02*
X6839230Y-11597984D01*
X6839230Y-11597984D02*
X6877325Y-11597984D01*
X6877325Y-11597984D02*
X6896372Y-11588460D01*
X6896372Y-11588460D02*
X6905896Y-11569412D01*
X6905896Y-11569412D02*
X6905896Y-11559888D01*
X6905896Y-11559888D02*
X6896372Y-11540841D01*
X6896372Y-11540841D02*
X6877325Y-11531317D01*
X6877325Y-11531317D02*
X6848753Y-11531317D01*
X6848753Y-11531317D02*
X6829706Y-11521793D01*
X6829706Y-11521793D02*
X6820182Y-11502746D01*
X6820182Y-11502746D02*
X6820182Y-11493222D01*
X6820182Y-11493222D02*
X6829706Y-11474174D01*
X6829706Y-11474174D02*
X6848753Y-11464650D01*
X6848753Y-11464650D02*
X6877325Y-11464650D01*
X6877325Y-11464650D02*
X6896372Y-11474174D01*
X6972563Y-11674174D02*
X6982087Y-11664650D01*
X6982087Y-11664650D02*
X7001134Y-11636079D01*
X7001134Y-11636079D02*
X7010658Y-11617031D01*
X7010658Y-11617031D02*
X7020182Y-11588460D01*
X7020182Y-11588460D02*
X7029706Y-11540841D01*
X7029706Y-11540841D02*
X7029706Y-11502746D01*
X7029706Y-11502746D02*
X7020182Y-11455127D01*
X7020182Y-11455127D02*
X7010658Y-11426555D01*
X7010658Y-11426555D02*
X7001134Y-11407508D01*
X7001134Y-11407508D02*
X6982087Y-11378936D01*
X6982087Y-11378936D02*
X6972563Y-11369412D01*
D12*
X2157500Y-11730500D02*
X2157500Y-11810500D01*
X2117500Y-11770500D02*
X2197500Y-11770500D01*
D11*
X2496372Y-11661984D02*
X2515420Y-11661984D01*
X2515420Y-11661984D02*
X2534467Y-11671508D01*
X2534467Y-11671508D02*
X2543991Y-11681031D01*
X2543991Y-11681031D02*
X2553515Y-11700079D01*
X2553515Y-11700079D02*
X2563039Y-11738174D01*
X2563039Y-11738174D02*
X2563039Y-11785793D01*
X2563039Y-11785793D02*
X2553515Y-11823888D01*
X2553515Y-11823888D02*
X2543991Y-11842936D01*
X2543991Y-11842936D02*
X2534467Y-11852460D01*
X2534467Y-11852460D02*
X2515420Y-11861984D01*
X2515420Y-11861984D02*
X2496372Y-11861984D01*
X2496372Y-11861984D02*
X2477324Y-11852460D01*
X2477324Y-11852460D02*
X2467801Y-11842936D01*
X2467801Y-11842936D02*
X2458277Y-11823888D01*
X2458277Y-11823888D02*
X2448753Y-11785793D01*
X2448753Y-11785793D02*
X2448753Y-11738174D01*
X2448753Y-11738174D02*
X2458277Y-11700079D01*
X2458277Y-11700079D02*
X2467801Y-11681031D01*
X2467801Y-11681031D02*
X2477324Y-11671508D01*
X2477324Y-11671508D02*
X2496372Y-11661984D01*
X2648753Y-11842936D02*
X2658277Y-11852460D01*
X2658277Y-11852460D02*
X2648753Y-11861984D01*
X2648753Y-11861984D02*
X2639229Y-11852460D01*
X2639229Y-11852460D02*
X2648753Y-11842936D01*
X2648753Y-11842936D02*
X2648753Y-11861984D01*
X2772563Y-11747698D02*
X2753515Y-11738174D01*
X2753515Y-11738174D02*
X2743991Y-11728650D01*
X2743991Y-11728650D02*
X2734467Y-11709603D01*
X2734467Y-11709603D02*
X2734467Y-11700079D01*
X2734467Y-11700079D02*
X2743991Y-11681031D01*
X2743991Y-11681031D02*
X2753515Y-11671508D01*
X2753515Y-11671508D02*
X2772563Y-11661984D01*
X2772563Y-11661984D02*
X2810658Y-11661984D01*
X2810658Y-11661984D02*
X2829705Y-11671508D01*
X2829705Y-11671508D02*
X2839229Y-11681031D01*
X2839229Y-11681031D02*
X2848753Y-11700079D01*
X2848753Y-11700079D02*
X2848753Y-11709603D01*
X2848753Y-11709603D02*
X2839229Y-11728650D01*
X2839229Y-11728650D02*
X2829705Y-11738174D01*
X2829705Y-11738174D02*
X2810658Y-11747698D01*
X2810658Y-11747698D02*
X2772563Y-11747698D01*
X2772563Y-11747698D02*
X2753515Y-11757222D01*
X2753515Y-11757222D02*
X2743991Y-11766746D01*
X2743991Y-11766746D02*
X2734467Y-11785793D01*
X2734467Y-11785793D02*
X2734467Y-11823888D01*
X2734467Y-11823888D02*
X2743991Y-11842936D01*
X2743991Y-11842936D02*
X2753515Y-11852460D01*
X2753515Y-11852460D02*
X2772563Y-11861984D01*
X2772563Y-11861984D02*
X2810658Y-11861984D01*
X2810658Y-11861984D02*
X2829705Y-11852460D01*
X2829705Y-11852460D02*
X2839229Y-11842936D01*
X2839229Y-11842936D02*
X2848753Y-11823888D01*
X2848753Y-11823888D02*
X2848753Y-11785793D01*
X2848753Y-11785793D02*
X2839229Y-11766746D01*
X2839229Y-11766746D02*
X2829705Y-11757222D01*
X2829705Y-11757222D02*
X2810658Y-11747698D01*
X2972562Y-11661984D02*
X2991610Y-11661984D01*
X2991610Y-11661984D02*
X3010658Y-11671508D01*
X3010658Y-11671508D02*
X3020182Y-11681031D01*
X3020182Y-11681031D02*
X3029705Y-11700079D01*
X3029705Y-11700079D02*
X3039229Y-11738174D01*
X3039229Y-11738174D02*
X3039229Y-11785793D01*
X3039229Y-11785793D02*
X3029705Y-11823888D01*
X3029705Y-11823888D02*
X3020182Y-11842936D01*
X3020182Y-11842936D02*
X3010658Y-11852460D01*
X3010658Y-11852460D02*
X2991610Y-11861984D01*
X2991610Y-11861984D02*
X2972562Y-11861984D01*
X2972562Y-11861984D02*
X2953515Y-11852460D01*
X2953515Y-11852460D02*
X2943991Y-11842936D01*
X2943991Y-11842936D02*
X2934467Y-11823888D01*
X2934467Y-11823888D02*
X2924943Y-11785793D01*
X2924943Y-11785793D02*
X2924943Y-11738174D01*
X2924943Y-11738174D02*
X2934467Y-11700079D01*
X2934467Y-11700079D02*
X2943991Y-11681031D01*
X2943991Y-11681031D02*
X2953515Y-11671508D01*
X2953515Y-11671508D02*
X2972562Y-11661984D01*
X3163039Y-11661984D02*
X3182086Y-11661984D01*
X3182086Y-11661984D02*
X3201134Y-11671508D01*
X3201134Y-11671508D02*
X3210658Y-11681031D01*
X3210658Y-11681031D02*
X3220182Y-11700079D01*
X3220182Y-11700079D02*
X3229705Y-11738174D01*
X3229705Y-11738174D02*
X3229705Y-11785793D01*
X3229705Y-11785793D02*
X3220182Y-11823888D01*
X3220182Y-11823888D02*
X3210658Y-11842936D01*
X3210658Y-11842936D02*
X3201134Y-11852460D01*
X3201134Y-11852460D02*
X3182086Y-11861984D01*
X3182086Y-11861984D02*
X3163039Y-11861984D01*
X3163039Y-11861984D02*
X3143991Y-11852460D01*
X3143991Y-11852460D02*
X3134467Y-11842936D01*
X3134467Y-11842936D02*
X3124943Y-11823888D01*
X3124943Y-11823888D02*
X3115420Y-11785793D01*
X3115420Y-11785793D02*
X3115420Y-11738174D01*
X3115420Y-11738174D02*
X3124943Y-11700079D01*
X3124943Y-11700079D02*
X3134467Y-11681031D01*
X3134467Y-11681031D02*
X3143991Y-11671508D01*
X3143991Y-11671508D02*
X3163039Y-11661984D01*
X3315420Y-11861984D02*
X3315420Y-11728650D01*
X3315420Y-11747698D02*
X3324943Y-11738174D01*
X3324943Y-11738174D02*
X3343991Y-11728650D01*
X3343991Y-11728650D02*
X3372563Y-11728650D01*
X3372563Y-11728650D02*
X3391610Y-11738174D01*
X3391610Y-11738174D02*
X3401134Y-11757222D01*
X3401134Y-11757222D02*
X3401134Y-11861984D01*
X3401134Y-11757222D02*
X3410658Y-11738174D01*
X3410658Y-11738174D02*
X3429705Y-11728650D01*
X3429705Y-11728650D02*
X3458277Y-11728650D01*
X3458277Y-11728650D02*
X3477324Y-11738174D01*
X3477324Y-11738174D02*
X3486848Y-11757222D01*
X3486848Y-11757222D02*
X3486848Y-11861984D01*
X3582086Y-11861984D02*
X3582086Y-11728650D01*
X3582086Y-11747698D02*
X3591610Y-11738174D01*
X3591610Y-11738174D02*
X3610658Y-11728650D01*
X3610658Y-11728650D02*
X3639229Y-11728650D01*
X3639229Y-11728650D02*
X3658277Y-11738174D01*
X3658277Y-11738174D02*
X3667801Y-11757222D01*
X3667801Y-11757222D02*
X3667801Y-11861984D01*
X3667801Y-11757222D02*
X3677324Y-11738174D01*
X3677324Y-11738174D02*
X3696372Y-11728650D01*
X3696372Y-11728650D02*
X3724943Y-11728650D01*
X3724943Y-11728650D02*
X3743991Y-11738174D01*
X3743991Y-11738174D02*
X3753515Y-11757222D01*
X3753515Y-11757222D02*
X3753515Y-11861984D01*
X4143991Y-11652460D02*
X3972563Y-11909603D01*
X4401134Y-11661984D02*
X4420182Y-11661984D01*
X4420182Y-11661984D02*
X4439229Y-11671508D01*
X4439229Y-11671508D02*
X4448753Y-11681031D01*
X4448753Y-11681031D02*
X4458277Y-11700079D01*
X4458277Y-11700079D02*
X4467801Y-11738174D01*
X4467801Y-11738174D02*
X4467801Y-11785793D01*
X4467801Y-11785793D02*
X4458277Y-11823888D01*
X4458277Y-11823888D02*
X4448753Y-11842936D01*
X4448753Y-11842936D02*
X4439229Y-11852460D01*
X4439229Y-11852460D02*
X4420182Y-11861984D01*
X4420182Y-11861984D02*
X4401134Y-11861984D01*
X4401134Y-11861984D02*
X4382087Y-11852460D01*
X4382087Y-11852460D02*
X4372563Y-11842936D01*
X4372563Y-11842936D02*
X4363039Y-11823888D01*
X4363039Y-11823888D02*
X4353515Y-11785793D01*
X4353515Y-11785793D02*
X4353515Y-11738174D01*
X4353515Y-11738174D02*
X4363039Y-11700079D01*
X4363039Y-11700079D02*
X4372563Y-11681031D01*
X4372563Y-11681031D02*
X4382087Y-11671508D01*
X4382087Y-11671508D02*
X4401134Y-11661984D01*
X4553515Y-11842936D02*
X4563039Y-11852460D01*
X4563039Y-11852460D02*
X4553515Y-11861984D01*
X4553515Y-11861984D02*
X4543991Y-11852460D01*
X4543991Y-11852460D02*
X4553515Y-11842936D01*
X4553515Y-11842936D02*
X4553515Y-11861984D01*
X4686848Y-11661984D02*
X4705896Y-11661984D01*
X4705896Y-11661984D02*
X4724944Y-11671508D01*
X4724944Y-11671508D02*
X4734468Y-11681031D01*
X4734468Y-11681031D02*
X4743991Y-11700079D01*
X4743991Y-11700079D02*
X4753515Y-11738174D01*
X4753515Y-11738174D02*
X4753515Y-11785793D01*
X4753515Y-11785793D02*
X4743991Y-11823888D01*
X4743991Y-11823888D02*
X4734468Y-11842936D01*
X4734468Y-11842936D02*
X4724944Y-11852460D01*
X4724944Y-11852460D02*
X4705896Y-11861984D01*
X4705896Y-11861984D02*
X4686848Y-11861984D01*
X4686848Y-11861984D02*
X4667801Y-11852460D01*
X4667801Y-11852460D02*
X4658277Y-11842936D01*
X4658277Y-11842936D02*
X4648753Y-11823888D01*
X4648753Y-11823888D02*
X4639229Y-11785793D01*
X4639229Y-11785793D02*
X4639229Y-11738174D01*
X4639229Y-11738174D02*
X4648753Y-11700079D01*
X4648753Y-11700079D02*
X4658277Y-11681031D01*
X4658277Y-11681031D02*
X4667801Y-11671508D01*
X4667801Y-11671508D02*
X4686848Y-11661984D01*
X4820182Y-11661984D02*
X4943991Y-11661984D01*
X4943991Y-11661984D02*
X4877325Y-11738174D01*
X4877325Y-11738174D02*
X4905896Y-11738174D01*
X4905896Y-11738174D02*
X4924944Y-11747698D01*
X4924944Y-11747698D02*
X4934468Y-11757222D01*
X4934468Y-11757222D02*
X4943991Y-11776269D01*
X4943991Y-11776269D02*
X4943991Y-11823888D01*
X4943991Y-11823888D02*
X4934468Y-11842936D01*
X4934468Y-11842936D02*
X4924944Y-11852460D01*
X4924944Y-11852460D02*
X4905896Y-11861984D01*
X4905896Y-11861984D02*
X4848753Y-11861984D01*
X4848753Y-11861984D02*
X4829706Y-11852460D01*
X4829706Y-11852460D02*
X4820182Y-11842936D01*
X5134468Y-11861984D02*
X5020182Y-11861984D01*
X5077325Y-11861984D02*
X5077325Y-11661984D01*
X5077325Y-11661984D02*
X5058277Y-11690555D01*
X5058277Y-11690555D02*
X5039229Y-11709603D01*
X5039229Y-11709603D02*
X5020182Y-11719127D01*
X5315420Y-11661984D02*
X5220182Y-11661984D01*
X5220182Y-11661984D02*
X5210658Y-11757222D01*
X5210658Y-11757222D02*
X5220182Y-11747698D01*
X5220182Y-11747698D02*
X5239229Y-11738174D01*
X5239229Y-11738174D02*
X5286849Y-11738174D01*
X5286849Y-11738174D02*
X5305896Y-11747698D01*
X5305896Y-11747698D02*
X5315420Y-11757222D01*
X5315420Y-11757222D02*
X5324944Y-11776269D01*
X5324944Y-11776269D02*
X5324944Y-11823888D01*
X5324944Y-11823888D02*
X5315420Y-11842936D01*
X5315420Y-11842936D02*
X5305896Y-11852460D01*
X5305896Y-11852460D02*
X5286849Y-11861984D01*
X5286849Y-11861984D02*
X5239229Y-11861984D01*
X5239229Y-11861984D02*
X5220182Y-11852460D01*
X5220182Y-11852460D02*
X5210658Y-11842936D01*
X5401134Y-11661984D02*
X5401134Y-11700079D01*
X5477325Y-11661984D02*
X5477325Y-11700079D01*
X5772563Y-11938174D02*
X5763039Y-11928650D01*
X5763039Y-11928650D02*
X5743991Y-11900079D01*
X5743991Y-11900079D02*
X5734468Y-11881031D01*
X5734468Y-11881031D02*
X5724944Y-11852460D01*
X5724944Y-11852460D02*
X5715420Y-11804841D01*
X5715420Y-11804841D02*
X5715420Y-11766746D01*
X5715420Y-11766746D02*
X5724944Y-11719127D01*
X5724944Y-11719127D02*
X5734468Y-11690555D01*
X5734468Y-11690555D02*
X5743991Y-11671508D01*
X5743991Y-11671508D02*
X5763039Y-11642936D01*
X5763039Y-11642936D02*
X5772563Y-11633412D01*
X5839229Y-11681031D02*
X5848753Y-11671508D01*
X5848753Y-11671508D02*
X5867801Y-11661984D01*
X5867801Y-11661984D02*
X5915420Y-11661984D01*
X5915420Y-11661984D02*
X5934468Y-11671508D01*
X5934468Y-11671508D02*
X5943991Y-11681031D01*
X5943991Y-11681031D02*
X5953515Y-11700079D01*
X5953515Y-11700079D02*
X5953515Y-11719127D01*
X5953515Y-11719127D02*
X5943991Y-11747698D01*
X5943991Y-11747698D02*
X5829706Y-11861984D01*
X5829706Y-11861984D02*
X5953515Y-11861984D01*
X6191610Y-11861984D02*
X6191610Y-11661984D01*
X6277325Y-11861984D02*
X6277325Y-11757222D01*
X6277325Y-11757222D02*
X6267801Y-11738174D01*
X6267801Y-11738174D02*
X6248753Y-11728650D01*
X6248753Y-11728650D02*
X6220182Y-11728650D01*
X6220182Y-11728650D02*
X6201134Y-11738174D01*
X6201134Y-11738174D02*
X6191610Y-11747698D01*
X6401134Y-11861984D02*
X6382087Y-11852460D01*
X6382087Y-11852460D02*
X6372563Y-11842936D01*
X6372563Y-11842936D02*
X6363039Y-11823888D01*
X6363039Y-11823888D02*
X6363039Y-11766746D01*
X6363039Y-11766746D02*
X6372563Y-11747698D01*
X6372563Y-11747698D02*
X6382087Y-11738174D01*
X6382087Y-11738174D02*
X6401134Y-11728650D01*
X6401134Y-11728650D02*
X6429706Y-11728650D01*
X6429706Y-11728650D02*
X6448753Y-11738174D01*
X6448753Y-11738174D02*
X6458277Y-11747698D01*
X6458277Y-11747698D02*
X6467801Y-11766746D01*
X6467801Y-11766746D02*
X6467801Y-11823888D01*
X6467801Y-11823888D02*
X6458277Y-11842936D01*
X6458277Y-11842936D02*
X6448753Y-11852460D01*
X6448753Y-11852460D02*
X6429706Y-11861984D01*
X6429706Y-11861984D02*
X6401134Y-11861984D01*
X6582087Y-11861984D02*
X6563039Y-11852460D01*
X6563039Y-11852460D02*
X6553515Y-11833412D01*
X6553515Y-11833412D02*
X6553515Y-11661984D01*
X6734468Y-11852460D02*
X6715420Y-11861984D01*
X6715420Y-11861984D02*
X6677325Y-11861984D01*
X6677325Y-11861984D02*
X6658277Y-11852460D01*
X6658277Y-11852460D02*
X6648753Y-11833412D01*
X6648753Y-11833412D02*
X6648753Y-11757222D01*
X6648753Y-11757222D02*
X6658277Y-11738174D01*
X6658277Y-11738174D02*
X6677325Y-11728650D01*
X6677325Y-11728650D02*
X6715420Y-11728650D01*
X6715420Y-11728650D02*
X6734468Y-11738174D01*
X6734468Y-11738174D02*
X6743991Y-11757222D01*
X6743991Y-11757222D02*
X6743991Y-11776269D01*
X6743991Y-11776269D02*
X6648753Y-11795317D01*
X6820182Y-11852460D02*
X6839230Y-11861984D01*
X6839230Y-11861984D02*
X6877325Y-11861984D01*
X6877325Y-11861984D02*
X6896372Y-11852460D01*
X6896372Y-11852460D02*
X6905896Y-11833412D01*
X6905896Y-11833412D02*
X6905896Y-11823888D01*
X6905896Y-11823888D02*
X6896372Y-11804841D01*
X6896372Y-11804841D02*
X6877325Y-11795317D01*
X6877325Y-11795317D02*
X6848753Y-11795317D01*
X6848753Y-11795317D02*
X6829706Y-11785793D01*
X6829706Y-11785793D02*
X6820182Y-11766746D01*
X6820182Y-11766746D02*
X6820182Y-11757222D01*
X6820182Y-11757222D02*
X6829706Y-11738174D01*
X6829706Y-11738174D02*
X6848753Y-11728650D01*
X6848753Y-11728650D02*
X6877325Y-11728650D01*
X6877325Y-11728650D02*
X6896372Y-11738174D01*
X6972563Y-11938174D02*
X6982087Y-11928650D01*
X6982087Y-11928650D02*
X7001134Y-11900079D01*
X7001134Y-11900079D02*
X7010658Y-11881031D01*
X7010658Y-11881031D02*
X7020182Y-11852460D01*
X7020182Y-11852460D02*
X7029706Y-11804841D01*
X7029706Y-11804841D02*
X7029706Y-11766746D01*
X7029706Y-11766746D02*
X7020182Y-11719127D01*
X7020182Y-11719127D02*
X7010658Y-11690555D01*
X7010658Y-11690555D02*
X7001134Y-11671508D01*
X7001134Y-11671508D02*
X6982087Y-11642936D01*
X6982087Y-11642936D02*
X6972563Y-11633412D01*
D12*
X2182856Y-12069856D02*
X2182856Y-11999144D01*
X2112144Y-11999144D01*
X2112144Y-12069856D01*
X2182856Y-12069856D01*
D11*
X2563039Y-12125984D02*
X2448753Y-12125984D01*
X2505896Y-12125984D02*
X2505896Y-11925984D01*
X2505896Y-11925984D02*
X2486848Y-11954555D01*
X2486848Y-11954555D02*
X2467801Y-11973603D01*
X2467801Y-11973603D02*
X2448753Y-11983127D01*
X2648753Y-12106936D02*
X2658277Y-12116460D01*
X2658277Y-12116460D02*
X2648753Y-12125984D01*
X2648753Y-12125984D02*
X2639229Y-12116460D01*
X2639229Y-12116460D02*
X2648753Y-12106936D01*
X2648753Y-12106936D02*
X2648753Y-12125984D01*
X2782086Y-11925984D02*
X2801134Y-11925984D01*
X2801134Y-11925984D02*
X2820182Y-11935508D01*
X2820182Y-11935508D02*
X2829705Y-11945031D01*
X2829705Y-11945031D02*
X2839229Y-11964079D01*
X2839229Y-11964079D02*
X2848753Y-12002174D01*
X2848753Y-12002174D02*
X2848753Y-12049793D01*
X2848753Y-12049793D02*
X2839229Y-12087888D01*
X2839229Y-12087888D02*
X2829705Y-12106936D01*
X2829705Y-12106936D02*
X2820182Y-12116460D01*
X2820182Y-12116460D02*
X2801134Y-12125984D01*
X2801134Y-12125984D02*
X2782086Y-12125984D01*
X2782086Y-12125984D02*
X2763039Y-12116460D01*
X2763039Y-12116460D02*
X2753515Y-12106936D01*
X2753515Y-12106936D02*
X2743991Y-12087888D01*
X2743991Y-12087888D02*
X2734467Y-12049793D01*
X2734467Y-12049793D02*
X2734467Y-12002174D01*
X2734467Y-12002174D02*
X2743991Y-11964079D01*
X2743991Y-11964079D02*
X2753515Y-11945031D01*
X2753515Y-11945031D02*
X2763039Y-11935508D01*
X2763039Y-11935508D02*
X2782086Y-11925984D01*
X2972562Y-11925984D02*
X2991610Y-11925984D01*
X2991610Y-11925984D02*
X3010658Y-11935508D01*
X3010658Y-11935508D02*
X3020182Y-11945031D01*
X3020182Y-11945031D02*
X3029705Y-11964079D01*
X3029705Y-11964079D02*
X3039229Y-12002174D01*
X3039229Y-12002174D02*
X3039229Y-12049793D01*
X3039229Y-12049793D02*
X3029705Y-12087888D01*
X3029705Y-12087888D02*
X3020182Y-12106936D01*
X3020182Y-12106936D02*
X3010658Y-12116460D01*
X3010658Y-12116460D02*
X2991610Y-12125984D01*
X2991610Y-12125984D02*
X2972562Y-12125984D01*
X2972562Y-12125984D02*
X2953515Y-12116460D01*
X2953515Y-12116460D02*
X2943991Y-12106936D01*
X2943991Y-12106936D02*
X2934467Y-12087888D01*
X2934467Y-12087888D02*
X2924943Y-12049793D01*
X2924943Y-12049793D02*
X2924943Y-12002174D01*
X2924943Y-12002174D02*
X2934467Y-11964079D01*
X2934467Y-11964079D02*
X2943991Y-11945031D01*
X2943991Y-11945031D02*
X2953515Y-11935508D01*
X2953515Y-11935508D02*
X2972562Y-11925984D01*
X3163039Y-11925984D02*
X3182086Y-11925984D01*
X3182086Y-11925984D02*
X3201134Y-11935508D01*
X3201134Y-11935508D02*
X3210658Y-11945031D01*
X3210658Y-11945031D02*
X3220182Y-11964079D01*
X3220182Y-11964079D02*
X3229705Y-12002174D01*
X3229705Y-12002174D02*
X3229705Y-12049793D01*
X3229705Y-12049793D02*
X3220182Y-12087888D01*
X3220182Y-12087888D02*
X3210658Y-12106936D01*
X3210658Y-12106936D02*
X3201134Y-12116460D01*
X3201134Y-12116460D02*
X3182086Y-12125984D01*
X3182086Y-12125984D02*
X3163039Y-12125984D01*
X3163039Y-12125984D02*
X3143991Y-12116460D01*
X3143991Y-12116460D02*
X3134467Y-12106936D01*
X3134467Y-12106936D02*
X3124943Y-12087888D01*
X3124943Y-12087888D02*
X3115420Y-12049793D01*
X3115420Y-12049793D02*
X3115420Y-12002174D01*
X3115420Y-12002174D02*
X3124943Y-11964079D01*
X3124943Y-11964079D02*
X3134467Y-11945031D01*
X3134467Y-11945031D02*
X3143991Y-11935508D01*
X3143991Y-11935508D02*
X3163039Y-11925984D01*
X3315420Y-12125984D02*
X3315420Y-11992650D01*
X3315420Y-12011698D02*
X3324943Y-12002174D01*
X3324943Y-12002174D02*
X3343991Y-11992650D01*
X3343991Y-11992650D02*
X3372563Y-11992650D01*
X3372563Y-11992650D02*
X3391610Y-12002174D01*
X3391610Y-12002174D02*
X3401134Y-12021222D01*
X3401134Y-12021222D02*
X3401134Y-12125984D01*
X3401134Y-12021222D02*
X3410658Y-12002174D01*
X3410658Y-12002174D02*
X3429705Y-11992650D01*
X3429705Y-11992650D02*
X3458277Y-11992650D01*
X3458277Y-11992650D02*
X3477324Y-12002174D01*
X3477324Y-12002174D02*
X3486848Y-12021222D01*
X3486848Y-12021222D02*
X3486848Y-12125984D01*
X3582086Y-12125984D02*
X3582086Y-11992650D01*
X3582086Y-12011698D02*
X3591610Y-12002174D01*
X3591610Y-12002174D02*
X3610658Y-11992650D01*
X3610658Y-11992650D02*
X3639229Y-11992650D01*
X3639229Y-11992650D02*
X3658277Y-12002174D01*
X3658277Y-12002174D02*
X3667801Y-12021222D01*
X3667801Y-12021222D02*
X3667801Y-12125984D01*
X3667801Y-12021222D02*
X3677324Y-12002174D01*
X3677324Y-12002174D02*
X3696372Y-11992650D01*
X3696372Y-11992650D02*
X3724943Y-11992650D01*
X3724943Y-11992650D02*
X3743991Y-12002174D01*
X3743991Y-12002174D02*
X3753515Y-12021222D01*
X3753515Y-12021222D02*
X3753515Y-12125984D01*
X4143991Y-11916460D02*
X3972563Y-12173603D01*
X4401134Y-11925984D02*
X4420182Y-11925984D01*
X4420182Y-11925984D02*
X4439229Y-11935508D01*
X4439229Y-11935508D02*
X4448753Y-11945031D01*
X4448753Y-11945031D02*
X4458277Y-11964079D01*
X4458277Y-11964079D02*
X4467801Y-12002174D01*
X4467801Y-12002174D02*
X4467801Y-12049793D01*
X4467801Y-12049793D02*
X4458277Y-12087888D01*
X4458277Y-12087888D02*
X4448753Y-12106936D01*
X4448753Y-12106936D02*
X4439229Y-12116460D01*
X4439229Y-12116460D02*
X4420182Y-12125984D01*
X4420182Y-12125984D02*
X4401134Y-12125984D01*
X4401134Y-12125984D02*
X4382087Y-12116460D01*
X4382087Y-12116460D02*
X4372563Y-12106936D01*
X4372563Y-12106936D02*
X4363039Y-12087888D01*
X4363039Y-12087888D02*
X4353515Y-12049793D01*
X4353515Y-12049793D02*
X4353515Y-12002174D01*
X4353515Y-12002174D02*
X4363039Y-11964079D01*
X4363039Y-11964079D02*
X4372563Y-11945031D01*
X4372563Y-11945031D02*
X4382087Y-11935508D01*
X4382087Y-11935508D02*
X4401134Y-11925984D01*
X4553515Y-12106936D02*
X4563039Y-12116460D01*
X4563039Y-12116460D02*
X4553515Y-12125984D01*
X4553515Y-12125984D02*
X4543991Y-12116460D01*
X4543991Y-12116460D02*
X4553515Y-12106936D01*
X4553515Y-12106936D02*
X4553515Y-12125984D01*
X4686848Y-11925984D02*
X4705896Y-11925984D01*
X4705896Y-11925984D02*
X4724944Y-11935508D01*
X4724944Y-11935508D02*
X4734468Y-11945031D01*
X4734468Y-11945031D02*
X4743991Y-11964079D01*
X4743991Y-11964079D02*
X4753515Y-12002174D01*
X4753515Y-12002174D02*
X4753515Y-12049793D01*
X4753515Y-12049793D02*
X4743991Y-12087888D01*
X4743991Y-12087888D02*
X4734468Y-12106936D01*
X4734468Y-12106936D02*
X4724944Y-12116460D01*
X4724944Y-12116460D02*
X4705896Y-12125984D01*
X4705896Y-12125984D02*
X4686848Y-12125984D01*
X4686848Y-12125984D02*
X4667801Y-12116460D01*
X4667801Y-12116460D02*
X4658277Y-12106936D01*
X4658277Y-12106936D02*
X4648753Y-12087888D01*
X4648753Y-12087888D02*
X4639229Y-12049793D01*
X4639229Y-12049793D02*
X4639229Y-12002174D01*
X4639229Y-12002174D02*
X4648753Y-11964079D01*
X4648753Y-11964079D02*
X4658277Y-11945031D01*
X4658277Y-11945031D02*
X4667801Y-11935508D01*
X4667801Y-11935508D02*
X4686848Y-11925984D01*
X4820182Y-11925984D02*
X4943991Y-11925984D01*
X4943991Y-11925984D02*
X4877325Y-12002174D01*
X4877325Y-12002174D02*
X4905896Y-12002174D01*
X4905896Y-12002174D02*
X4924944Y-12011698D01*
X4924944Y-12011698D02*
X4934468Y-12021222D01*
X4934468Y-12021222D02*
X4943991Y-12040269D01*
X4943991Y-12040269D02*
X4943991Y-12087888D01*
X4943991Y-12087888D02*
X4934468Y-12106936D01*
X4934468Y-12106936D02*
X4924944Y-12116460D01*
X4924944Y-12116460D02*
X4905896Y-12125984D01*
X4905896Y-12125984D02*
X4848753Y-12125984D01*
X4848753Y-12125984D02*
X4829706Y-12116460D01*
X4829706Y-12116460D02*
X4820182Y-12106936D01*
X5039229Y-12125984D02*
X5077325Y-12125984D01*
X5077325Y-12125984D02*
X5096372Y-12116460D01*
X5096372Y-12116460D02*
X5105896Y-12106936D01*
X5105896Y-12106936D02*
X5124944Y-12078365D01*
X5124944Y-12078365D02*
X5134468Y-12040269D01*
X5134468Y-12040269D02*
X5134468Y-11964079D01*
X5134468Y-11964079D02*
X5124944Y-11945031D01*
X5124944Y-11945031D02*
X5115420Y-11935508D01*
X5115420Y-11935508D02*
X5096372Y-11925984D01*
X5096372Y-11925984D02*
X5058277Y-11925984D01*
X5058277Y-11925984D02*
X5039229Y-11935508D01*
X5039229Y-11935508D02*
X5029706Y-11945031D01*
X5029706Y-11945031D02*
X5020182Y-11964079D01*
X5020182Y-11964079D02*
X5020182Y-12011698D01*
X5020182Y-12011698D02*
X5029706Y-12030746D01*
X5029706Y-12030746D02*
X5039229Y-12040269D01*
X5039229Y-12040269D02*
X5058277Y-12049793D01*
X5058277Y-12049793D02*
X5096372Y-12049793D01*
X5096372Y-12049793D02*
X5115420Y-12040269D01*
X5115420Y-12040269D02*
X5124944Y-12030746D01*
X5124944Y-12030746D02*
X5134468Y-12011698D01*
X5305896Y-11992650D02*
X5305896Y-12125984D01*
X5258277Y-11916460D02*
X5210658Y-12059317D01*
X5210658Y-12059317D02*
X5334468Y-12059317D01*
X5401134Y-11925984D02*
X5401134Y-11964079D01*
X5477325Y-11925984D02*
X5477325Y-11964079D01*
X5772563Y-12202174D02*
X5763039Y-12192650D01*
X5763039Y-12192650D02*
X5743991Y-12164079D01*
X5743991Y-12164079D02*
X5734468Y-12145031D01*
X5734468Y-12145031D02*
X5724944Y-12116460D01*
X5724944Y-12116460D02*
X5715420Y-12068841D01*
X5715420Y-12068841D02*
X5715420Y-12030746D01*
X5715420Y-12030746D02*
X5724944Y-11983127D01*
X5724944Y-11983127D02*
X5734468Y-11954555D01*
X5734468Y-11954555D02*
X5743991Y-11935508D01*
X5743991Y-11935508D02*
X5763039Y-11906936D01*
X5763039Y-11906936D02*
X5772563Y-11897412D01*
X5829706Y-11925984D02*
X5963039Y-11925984D01*
X5963039Y-11925984D02*
X5877325Y-12125984D01*
X6124944Y-11925984D02*
X6086848Y-11925984D01*
X6086848Y-11925984D02*
X6067801Y-11935508D01*
X6067801Y-11935508D02*
X6058277Y-11945031D01*
X6058277Y-11945031D02*
X6039229Y-11973603D01*
X6039229Y-11973603D02*
X6029706Y-12011698D01*
X6029706Y-12011698D02*
X6029706Y-12087888D01*
X6029706Y-12087888D02*
X6039229Y-12106936D01*
X6039229Y-12106936D02*
X6048753Y-12116460D01*
X6048753Y-12116460D02*
X6067801Y-12125984D01*
X6067801Y-12125984D02*
X6105896Y-12125984D01*
X6105896Y-12125984D02*
X6124944Y-12116460D01*
X6124944Y-12116460D02*
X6134468Y-12106936D01*
X6134468Y-12106936D02*
X6143991Y-12087888D01*
X6143991Y-12087888D02*
X6143991Y-12040269D01*
X6143991Y-12040269D02*
X6134468Y-12021222D01*
X6134468Y-12021222D02*
X6124944Y-12011698D01*
X6124944Y-12011698D02*
X6105896Y-12002174D01*
X6105896Y-12002174D02*
X6067801Y-12002174D01*
X6067801Y-12002174D02*
X6048753Y-12011698D01*
X6048753Y-12011698D02*
X6039229Y-12021222D01*
X6039229Y-12021222D02*
X6029706Y-12040269D01*
X6382087Y-12125984D02*
X6382087Y-11925984D01*
X6467801Y-12125984D02*
X6467801Y-12021222D01*
X6467801Y-12021222D02*
X6458277Y-12002174D01*
X6458277Y-12002174D02*
X6439230Y-11992650D01*
X6439230Y-11992650D02*
X6410658Y-11992650D01*
X6410658Y-11992650D02*
X6391610Y-12002174D01*
X6391610Y-12002174D02*
X6382087Y-12011698D01*
X6591610Y-12125984D02*
X6572563Y-12116460D01*
X6572563Y-12116460D02*
X6563039Y-12106936D01*
X6563039Y-12106936D02*
X6553515Y-12087888D01*
X6553515Y-12087888D02*
X6553515Y-12030746D01*
X6553515Y-12030746D02*
X6563039Y-12011698D01*
X6563039Y-12011698D02*
X6572563Y-12002174D01*
X6572563Y-12002174D02*
X6591610Y-11992650D01*
X6591610Y-11992650D02*
X6620182Y-11992650D01*
X6620182Y-11992650D02*
X6639230Y-12002174D01*
X6639230Y-12002174D02*
X6648753Y-12011698D01*
X6648753Y-12011698D02*
X6658277Y-12030746D01*
X6658277Y-12030746D02*
X6658277Y-12087888D01*
X6658277Y-12087888D02*
X6648753Y-12106936D01*
X6648753Y-12106936D02*
X6639230Y-12116460D01*
X6639230Y-12116460D02*
X6620182Y-12125984D01*
X6620182Y-12125984D02*
X6591610Y-12125984D01*
X6772563Y-12125984D02*
X6753515Y-12116460D01*
X6753515Y-12116460D02*
X6743991Y-12097412D01*
X6743991Y-12097412D02*
X6743991Y-11925984D01*
X6924944Y-12116460D02*
X6905896Y-12125984D01*
X6905896Y-12125984D02*
X6867801Y-12125984D01*
X6867801Y-12125984D02*
X6848753Y-12116460D01*
X6848753Y-12116460D02*
X6839230Y-12097412D01*
X6839230Y-12097412D02*
X6839230Y-12021222D01*
X6839230Y-12021222D02*
X6848753Y-12002174D01*
X6848753Y-12002174D02*
X6867801Y-11992650D01*
X6867801Y-11992650D02*
X6905896Y-11992650D01*
X6905896Y-11992650D02*
X6924944Y-12002174D01*
X6924944Y-12002174D02*
X6934468Y-12021222D01*
X6934468Y-12021222D02*
X6934468Y-12040269D01*
X6934468Y-12040269D02*
X6839230Y-12059317D01*
X7010658Y-12116460D02*
X7029706Y-12125984D01*
X7029706Y-12125984D02*
X7067801Y-12125984D01*
X7067801Y-12125984D02*
X7086849Y-12116460D01*
X7086849Y-12116460D02*
X7096372Y-12097412D01*
X7096372Y-12097412D02*
X7096372Y-12087888D01*
X7096372Y-12087888D02*
X7086849Y-12068841D01*
X7086849Y-12068841D02*
X7067801Y-12059317D01*
X7067801Y-12059317D02*
X7039230Y-12059317D01*
X7039230Y-12059317D02*
X7020182Y-12049793D01*
X7020182Y-12049793D02*
X7010658Y-12030746D01*
X7010658Y-12030746D02*
X7010658Y-12021222D01*
X7010658Y-12021222D02*
X7020182Y-12002174D01*
X7020182Y-12002174D02*
X7039230Y-11992650D01*
X7039230Y-11992650D02*
X7067801Y-11992650D01*
X7067801Y-11992650D02*
X7086849Y-12002174D01*
X7163039Y-12202174D02*
X7172563Y-12192650D01*
X7172563Y-12192650D02*
X7191611Y-12164079D01*
X7191611Y-12164079D02*
X7201134Y-12145031D01*
X7201134Y-12145031D02*
X7210658Y-12116460D01*
X7210658Y-12116460D02*
X7220182Y-12068841D01*
X7220182Y-12068841D02*
X7220182Y-12030746D01*
X7220182Y-12030746D02*
X7210658Y-11983127D01*
X7210658Y-11983127D02*
X7201134Y-11954555D01*
X7201134Y-11954555D02*
X7191611Y-11935508D01*
X7191611Y-11935508D02*
X7172563Y-11906936D01*
X7172563Y-11906936D02*
X7163039Y-11897412D01*
D13*
X2131500Y-12364500D02*
X2197500Y-12298500D01*
X2131500Y-12232500D01*
X2065500Y-12298500D01*
X2131500Y-12364500D01*
D11*
X2563039Y-12389984D02*
X2448753Y-12389984D01*
X2505896Y-12389984D02*
X2505896Y-12189984D01*
X2505896Y-12189984D02*
X2486848Y-12218555D01*
X2486848Y-12218555D02*
X2467801Y-12237603D01*
X2467801Y-12237603D02*
X2448753Y-12247127D01*
X2648753Y-12370936D02*
X2658277Y-12380460D01*
X2658277Y-12380460D02*
X2648753Y-12389984D01*
X2648753Y-12389984D02*
X2639229Y-12380460D01*
X2639229Y-12380460D02*
X2648753Y-12370936D01*
X2648753Y-12370936D02*
X2648753Y-12389984D01*
X2724944Y-12189984D02*
X2848753Y-12189984D01*
X2848753Y-12189984D02*
X2782086Y-12266174D01*
X2782086Y-12266174D02*
X2810658Y-12266174D01*
X2810658Y-12266174D02*
X2829705Y-12275698D01*
X2829705Y-12275698D02*
X2839229Y-12285222D01*
X2839229Y-12285222D02*
X2848753Y-12304269D01*
X2848753Y-12304269D02*
X2848753Y-12351888D01*
X2848753Y-12351888D02*
X2839229Y-12370936D01*
X2839229Y-12370936D02*
X2829705Y-12380460D01*
X2829705Y-12380460D02*
X2810658Y-12389984D01*
X2810658Y-12389984D02*
X2753515Y-12389984D01*
X2753515Y-12389984D02*
X2734467Y-12380460D01*
X2734467Y-12380460D02*
X2724944Y-12370936D01*
X2924943Y-12209031D02*
X2934467Y-12199508D01*
X2934467Y-12199508D02*
X2953515Y-12189984D01*
X2953515Y-12189984D02*
X3001134Y-12189984D01*
X3001134Y-12189984D02*
X3020182Y-12199508D01*
X3020182Y-12199508D02*
X3029705Y-12209031D01*
X3029705Y-12209031D02*
X3039229Y-12228079D01*
X3039229Y-12228079D02*
X3039229Y-12247127D01*
X3039229Y-12247127D02*
X3029705Y-12275698D01*
X3029705Y-12275698D02*
X2915420Y-12389984D01*
X2915420Y-12389984D02*
X3039229Y-12389984D01*
X3163039Y-12189984D02*
X3182086Y-12189984D01*
X3182086Y-12189984D02*
X3201134Y-12199508D01*
X3201134Y-12199508D02*
X3210658Y-12209031D01*
X3210658Y-12209031D02*
X3220182Y-12228079D01*
X3220182Y-12228079D02*
X3229705Y-12266174D01*
X3229705Y-12266174D02*
X3229705Y-12313793D01*
X3229705Y-12313793D02*
X3220182Y-12351888D01*
X3220182Y-12351888D02*
X3210658Y-12370936D01*
X3210658Y-12370936D02*
X3201134Y-12380460D01*
X3201134Y-12380460D02*
X3182086Y-12389984D01*
X3182086Y-12389984D02*
X3163039Y-12389984D01*
X3163039Y-12389984D02*
X3143991Y-12380460D01*
X3143991Y-12380460D02*
X3134467Y-12370936D01*
X3134467Y-12370936D02*
X3124943Y-12351888D01*
X3124943Y-12351888D02*
X3115420Y-12313793D01*
X3115420Y-12313793D02*
X3115420Y-12266174D01*
X3115420Y-12266174D02*
X3124943Y-12228079D01*
X3124943Y-12228079D02*
X3134467Y-12209031D01*
X3134467Y-12209031D02*
X3143991Y-12199508D01*
X3143991Y-12199508D02*
X3163039Y-12189984D01*
X3315420Y-12389984D02*
X3315420Y-12256650D01*
X3315420Y-12275698D02*
X3324943Y-12266174D01*
X3324943Y-12266174D02*
X3343991Y-12256650D01*
X3343991Y-12256650D02*
X3372563Y-12256650D01*
X3372563Y-12256650D02*
X3391610Y-12266174D01*
X3391610Y-12266174D02*
X3401134Y-12285222D01*
X3401134Y-12285222D02*
X3401134Y-12389984D01*
X3401134Y-12285222D02*
X3410658Y-12266174D01*
X3410658Y-12266174D02*
X3429705Y-12256650D01*
X3429705Y-12256650D02*
X3458277Y-12256650D01*
X3458277Y-12256650D02*
X3477324Y-12266174D01*
X3477324Y-12266174D02*
X3486848Y-12285222D01*
X3486848Y-12285222D02*
X3486848Y-12389984D01*
X3582086Y-12389984D02*
X3582086Y-12256650D01*
X3582086Y-12275698D02*
X3591610Y-12266174D01*
X3591610Y-12266174D02*
X3610658Y-12256650D01*
X3610658Y-12256650D02*
X3639229Y-12256650D01*
X3639229Y-12256650D02*
X3658277Y-12266174D01*
X3658277Y-12266174D02*
X3667801Y-12285222D01*
X3667801Y-12285222D02*
X3667801Y-12389984D01*
X3667801Y-12285222D02*
X3677324Y-12266174D01*
X3677324Y-12266174D02*
X3696372Y-12256650D01*
X3696372Y-12256650D02*
X3724943Y-12256650D01*
X3724943Y-12256650D02*
X3743991Y-12266174D01*
X3743991Y-12266174D02*
X3753515Y-12285222D01*
X3753515Y-12285222D02*
X3753515Y-12389984D01*
X4143991Y-12180460D02*
X3972563Y-12437603D01*
X4401134Y-12189984D02*
X4420182Y-12189984D01*
X4420182Y-12189984D02*
X4439229Y-12199508D01*
X4439229Y-12199508D02*
X4448753Y-12209031D01*
X4448753Y-12209031D02*
X4458277Y-12228079D01*
X4458277Y-12228079D02*
X4467801Y-12266174D01*
X4467801Y-12266174D02*
X4467801Y-12313793D01*
X4467801Y-12313793D02*
X4458277Y-12351888D01*
X4458277Y-12351888D02*
X4448753Y-12370936D01*
X4448753Y-12370936D02*
X4439229Y-12380460D01*
X4439229Y-12380460D02*
X4420182Y-12389984D01*
X4420182Y-12389984D02*
X4401134Y-12389984D01*
X4401134Y-12389984D02*
X4382087Y-12380460D01*
X4382087Y-12380460D02*
X4372563Y-12370936D01*
X4372563Y-12370936D02*
X4363039Y-12351888D01*
X4363039Y-12351888D02*
X4353515Y-12313793D01*
X4353515Y-12313793D02*
X4353515Y-12266174D01*
X4353515Y-12266174D02*
X4363039Y-12228079D01*
X4363039Y-12228079D02*
X4372563Y-12209031D01*
X4372563Y-12209031D02*
X4382087Y-12199508D01*
X4382087Y-12199508D02*
X4401134Y-12189984D01*
X4553515Y-12370936D02*
X4563039Y-12380460D01*
X4563039Y-12380460D02*
X4553515Y-12389984D01*
X4553515Y-12389984D02*
X4543991Y-12380460D01*
X4543991Y-12380460D02*
X4553515Y-12370936D01*
X4553515Y-12370936D02*
X4553515Y-12389984D01*
X4686848Y-12189984D02*
X4705896Y-12189984D01*
X4705896Y-12189984D02*
X4724944Y-12199508D01*
X4724944Y-12199508D02*
X4734468Y-12209031D01*
X4734468Y-12209031D02*
X4743991Y-12228079D01*
X4743991Y-12228079D02*
X4753515Y-12266174D01*
X4753515Y-12266174D02*
X4753515Y-12313793D01*
X4753515Y-12313793D02*
X4743991Y-12351888D01*
X4743991Y-12351888D02*
X4734468Y-12370936D01*
X4734468Y-12370936D02*
X4724944Y-12380460D01*
X4724944Y-12380460D02*
X4705896Y-12389984D01*
X4705896Y-12389984D02*
X4686848Y-12389984D01*
X4686848Y-12389984D02*
X4667801Y-12380460D01*
X4667801Y-12380460D02*
X4658277Y-12370936D01*
X4658277Y-12370936D02*
X4648753Y-12351888D01*
X4648753Y-12351888D02*
X4639229Y-12313793D01*
X4639229Y-12313793D02*
X4639229Y-12266174D01*
X4639229Y-12266174D02*
X4648753Y-12228079D01*
X4648753Y-12228079D02*
X4658277Y-12209031D01*
X4658277Y-12209031D02*
X4667801Y-12199508D01*
X4667801Y-12199508D02*
X4686848Y-12189984D01*
X4934468Y-12189984D02*
X4839229Y-12189984D01*
X4839229Y-12189984D02*
X4829706Y-12285222D01*
X4829706Y-12285222D02*
X4839229Y-12275698D01*
X4839229Y-12275698D02*
X4858277Y-12266174D01*
X4858277Y-12266174D02*
X4905896Y-12266174D01*
X4905896Y-12266174D02*
X4924944Y-12275698D01*
X4924944Y-12275698D02*
X4934468Y-12285222D01*
X4934468Y-12285222D02*
X4943991Y-12304269D01*
X4943991Y-12304269D02*
X4943991Y-12351888D01*
X4943991Y-12351888D02*
X4934468Y-12370936D01*
X4934468Y-12370936D02*
X4924944Y-12380460D01*
X4924944Y-12380460D02*
X4905896Y-12389984D01*
X4905896Y-12389984D02*
X4858277Y-12389984D01*
X4858277Y-12389984D02*
X4839229Y-12380460D01*
X4839229Y-12380460D02*
X4829706Y-12370936D01*
X5020182Y-12209031D02*
X5029706Y-12199508D01*
X5029706Y-12199508D02*
X5048753Y-12189984D01*
X5048753Y-12189984D02*
X5096372Y-12189984D01*
X5096372Y-12189984D02*
X5115420Y-12199508D01*
X5115420Y-12199508D02*
X5124944Y-12209031D01*
X5124944Y-12209031D02*
X5134468Y-12228079D01*
X5134468Y-12228079D02*
X5134468Y-12247127D01*
X5134468Y-12247127D02*
X5124944Y-12275698D01*
X5124944Y-12275698D02*
X5010658Y-12389984D01*
X5010658Y-12389984D02*
X5134468Y-12389984D01*
X5258277Y-12189984D02*
X5277325Y-12189984D01*
X5277325Y-12189984D02*
X5296372Y-12199508D01*
X5296372Y-12199508D02*
X5305896Y-12209031D01*
X5305896Y-12209031D02*
X5315420Y-12228079D01*
X5315420Y-12228079D02*
X5324944Y-12266174D01*
X5324944Y-12266174D02*
X5324944Y-12313793D01*
X5324944Y-12313793D02*
X5315420Y-12351888D01*
X5315420Y-12351888D02*
X5305896Y-12370936D01*
X5305896Y-12370936D02*
X5296372Y-12380460D01*
X5296372Y-12380460D02*
X5277325Y-12389984D01*
X5277325Y-12389984D02*
X5258277Y-12389984D01*
X5258277Y-12389984D02*
X5239229Y-12380460D01*
X5239229Y-12380460D02*
X5229706Y-12370936D01*
X5229706Y-12370936D02*
X5220182Y-12351888D01*
X5220182Y-12351888D02*
X5210658Y-12313793D01*
X5210658Y-12313793D02*
X5210658Y-12266174D01*
X5210658Y-12266174D02*
X5220182Y-12228079D01*
X5220182Y-12228079D02*
X5229706Y-12209031D01*
X5229706Y-12209031D02*
X5239229Y-12199508D01*
X5239229Y-12199508D02*
X5258277Y-12189984D01*
X5401134Y-12189984D02*
X5401134Y-12228079D01*
X5477325Y-12189984D02*
X5477325Y-12228079D01*
X5772563Y-12466174D02*
X5763039Y-12456650D01*
X5763039Y-12456650D02*
X5743991Y-12428079D01*
X5743991Y-12428079D02*
X5734468Y-12409031D01*
X5734468Y-12409031D02*
X5724944Y-12380460D01*
X5724944Y-12380460D02*
X5715420Y-12332841D01*
X5715420Y-12332841D02*
X5715420Y-12294746D01*
X5715420Y-12294746D02*
X5724944Y-12247127D01*
X5724944Y-12247127D02*
X5734468Y-12218555D01*
X5734468Y-12218555D02*
X5743991Y-12199508D01*
X5743991Y-12199508D02*
X5763039Y-12170936D01*
X5763039Y-12170936D02*
X5772563Y-12161412D01*
X5839229Y-12209031D02*
X5848753Y-12199508D01*
X5848753Y-12199508D02*
X5867801Y-12189984D01*
X5867801Y-12189984D02*
X5915420Y-12189984D01*
X5915420Y-12189984D02*
X5934468Y-12199508D01*
X5934468Y-12199508D02*
X5943991Y-12209031D01*
X5943991Y-12209031D02*
X5953515Y-12228079D01*
X5953515Y-12228079D02*
X5953515Y-12247127D01*
X5953515Y-12247127D02*
X5943991Y-12275698D01*
X5943991Y-12275698D02*
X5829706Y-12389984D01*
X5829706Y-12389984D02*
X5953515Y-12389984D01*
X6191610Y-12389984D02*
X6191610Y-12189984D01*
X6277325Y-12389984D02*
X6277325Y-12285222D01*
X6277325Y-12285222D02*
X6267801Y-12266174D01*
X6267801Y-12266174D02*
X6248753Y-12256650D01*
X6248753Y-12256650D02*
X6220182Y-12256650D01*
X6220182Y-12256650D02*
X6201134Y-12266174D01*
X6201134Y-12266174D02*
X6191610Y-12275698D01*
X6401134Y-12389984D02*
X6382087Y-12380460D01*
X6382087Y-12380460D02*
X6372563Y-12370936D01*
X6372563Y-12370936D02*
X6363039Y-12351888D01*
X6363039Y-12351888D02*
X6363039Y-12294746D01*
X6363039Y-12294746D02*
X6372563Y-12275698D01*
X6372563Y-12275698D02*
X6382087Y-12266174D01*
X6382087Y-12266174D02*
X6401134Y-12256650D01*
X6401134Y-12256650D02*
X6429706Y-12256650D01*
X6429706Y-12256650D02*
X6448753Y-12266174D01*
X6448753Y-12266174D02*
X6458277Y-12275698D01*
X6458277Y-12275698D02*
X6467801Y-12294746D01*
X6467801Y-12294746D02*
X6467801Y-12351888D01*
X6467801Y-12351888D02*
X6458277Y-12370936D01*
X6458277Y-12370936D02*
X6448753Y-12380460D01*
X6448753Y-12380460D02*
X6429706Y-12389984D01*
X6429706Y-12389984D02*
X6401134Y-12389984D01*
X6582087Y-12389984D02*
X6563039Y-12380460D01*
X6563039Y-12380460D02*
X6553515Y-12361412D01*
X6553515Y-12361412D02*
X6553515Y-12189984D01*
X6734468Y-12380460D02*
X6715420Y-12389984D01*
X6715420Y-12389984D02*
X6677325Y-12389984D01*
X6677325Y-12389984D02*
X6658277Y-12380460D01*
X6658277Y-12380460D02*
X6648753Y-12361412D01*
X6648753Y-12361412D02*
X6648753Y-12285222D01*
X6648753Y-12285222D02*
X6658277Y-12266174D01*
X6658277Y-12266174D02*
X6677325Y-12256650D01*
X6677325Y-12256650D02*
X6715420Y-12256650D01*
X6715420Y-12256650D02*
X6734468Y-12266174D01*
X6734468Y-12266174D02*
X6743991Y-12285222D01*
X6743991Y-12285222D02*
X6743991Y-12304269D01*
X6743991Y-12304269D02*
X6648753Y-12323317D01*
X6820182Y-12380460D02*
X6839230Y-12389984D01*
X6839230Y-12389984D02*
X6877325Y-12389984D01*
X6877325Y-12389984D02*
X6896372Y-12380460D01*
X6896372Y-12380460D02*
X6905896Y-12361412D01*
X6905896Y-12361412D02*
X6905896Y-12351888D01*
X6905896Y-12351888D02*
X6896372Y-12332841D01*
X6896372Y-12332841D02*
X6877325Y-12323317D01*
X6877325Y-12323317D02*
X6848753Y-12323317D01*
X6848753Y-12323317D02*
X6829706Y-12313793D01*
X6829706Y-12313793D02*
X6820182Y-12294746D01*
X6820182Y-12294746D02*
X6820182Y-12285222D01*
X6820182Y-12285222D02*
X6829706Y-12266174D01*
X6829706Y-12266174D02*
X6848753Y-12256650D01*
X6848753Y-12256650D02*
X6877325Y-12256650D01*
X6877325Y-12256650D02*
X6896372Y-12266174D01*
X6972563Y-12466174D02*
X6982087Y-12456650D01*
X6982087Y-12456650D02*
X7001134Y-12428079D01*
X7001134Y-12428079D02*
X7010658Y-12409031D01*
X7010658Y-12409031D02*
X7020182Y-12380460D01*
X7020182Y-12380460D02*
X7029706Y-12332841D01*
X7029706Y-12332841D02*
X7029706Y-12294746D01*
X7029706Y-12294746D02*
X7020182Y-12247127D01*
X7020182Y-12247127D02*
X7010658Y-12218555D01*
X7010658Y-12218555D02*
X7001134Y-12199508D01*
X7001134Y-12199508D02*
X6982087Y-12170936D01*
X6982087Y-12170936D02*
X6972563Y-12161412D01*
M02*
