%TF.GenerationSoftware,KiCad,Pcbnew,8.0.4*%
%TF.CreationDate,2025-01-16T20:27:33-05:00*%
%TF.ProjectId,eclipseControlPCB,65636c69-7073-4654-936f-6e74726f6c50,rev?*%
%TF.SameCoordinates,Original*%
%TF.FileFunction,Paste,Top*%
%TF.FilePolarity,Positive*%
%FSLAX46Y46*%
G04 Gerber Fmt 4.6, Leading zero omitted, Abs format (unit mm)*
G04 Created by KiCad (PCBNEW 8.0.4) date 2025-01-16 20:27:33*
%MOMM*%
%LPD*%
G01*
G04 APERTURE LIST*
G04 Aperture macros list*
%AMRoundRect*
0 Rectangle with rounded corners*
0 $1 Rounding radius*
0 $2 $3 $4 $5 $6 $7 $8 $9 X,Y pos of 4 corners*
0 Add a 4 corners polygon primitive as box body*
4,1,4,$2,$3,$4,$5,$6,$7,$8,$9,$2,$3,0*
0 Add four circle primitives for the rounded corners*
1,1,$1+$1,$2,$3*
1,1,$1+$1,$4,$5*
1,1,$1+$1,$6,$7*
1,1,$1+$1,$8,$9*
0 Add four rect primitives between the rounded corners*
20,1,$1+$1,$2,$3,$4,$5,0*
20,1,$1+$1,$4,$5,$6,$7,0*
20,1,$1+$1,$6,$7,$8,$9,0*
20,1,$1+$1,$8,$9,$2,$3,0*%
G04 Aperture macros list end*
%ADD10RoundRect,0.250000X-0.350000X-0.450000X0.350000X-0.450000X0.350000X0.450000X-0.350000X0.450000X0*%
%ADD11RoundRect,0.237500X-0.300000X-0.237500X0.300000X-0.237500X0.300000X0.237500X-0.300000X0.237500X0*%
%ADD12RoundRect,0.250000X0.450000X-0.350000X0.450000X0.350000X-0.450000X0.350000X-0.450000X-0.350000X0*%
%ADD13RoundRect,0.250000X0.475000X-0.337500X0.475000X0.337500X-0.475000X0.337500X-0.475000X-0.337500X0*%
%ADD14RoundRect,0.250000X-0.450000X0.350000X-0.450000X-0.350000X0.450000X-0.350000X0.450000X0.350000X0*%
%ADD15RoundRect,0.250000X-0.337500X-0.475000X0.337500X-0.475000X0.337500X0.475000X-0.337500X0.475000X0*%
%ADD16RoundRect,0.250001X0.462499X0.624999X-0.462499X0.624999X-0.462499X-0.624999X0.462499X-0.624999X0*%
%ADD17RoundRect,0.250000X-0.475000X0.337500X-0.475000X-0.337500X0.475000X-0.337500X0.475000X0.337500X0*%
%ADD18RoundRect,0.250000X0.350000X0.450000X-0.350000X0.450000X-0.350000X-0.450000X0.350000X-0.450000X0*%
%ADD19R,2.160000X1.120000*%
%ADD20RoundRect,0.250000X0.337500X0.475000X-0.337500X0.475000X-0.337500X-0.475000X0.337500X-0.475000X0*%
%ADD21RoundRect,0.237500X0.250000X0.237500X-0.250000X0.237500X-0.250000X-0.237500X0.250000X-0.237500X0*%
G04 APERTURE END LIST*
D10*
%TO.C,R6*%
X30977500Y-32185400D03*
X32977500Y-32185400D03*
%TD*%
D11*
%TO.C,D1*%
X31188300Y-59901200D03*
X32913300Y-59901200D03*
%TD*%
D12*
%TO.C,R15*%
X53010000Y-53021600D03*
X53010000Y-51021600D03*
%TD*%
D13*
%TO.C,C4*%
X56566000Y-45845500D03*
X56566000Y-43770500D03*
%TD*%
D14*
%TO.C,R14*%
X53000000Y-56000000D03*
X53000000Y-58000000D03*
%TD*%
D15*
%TO.C,C9*%
X30925000Y-28985000D03*
X33000000Y-28985000D03*
%TD*%
D10*
%TO.C,R8*%
X30942700Y-43200400D03*
X32942700Y-43200400D03*
%TD*%
D16*
%TO.C,F1*%
X75487500Y-59000000D03*
X72512500Y-59000000D03*
%TD*%
D17*
%TO.C,C3*%
X49606400Y-38131700D03*
X49606400Y-40206700D03*
%TD*%
D14*
%TO.C,R9*%
X37295400Y-28942700D03*
X37295400Y-30942700D03*
%TD*%
D18*
%TO.C,R13*%
X82976800Y-30000000D03*
X80976800Y-30000000D03*
%TD*%
%TO.C,R4*%
X82898400Y-58200400D03*
X80898400Y-58200400D03*
%TD*%
D12*
%TO.C,R5*%
X49555600Y-55460000D03*
X49555600Y-53460000D03*
%TD*%
D13*
%TO.C,C5*%
X53010000Y-45845500D03*
X53010000Y-43770500D03*
%TD*%
D12*
%TO.C,R16*%
X56000000Y-60540000D03*
X56000000Y-58540000D03*
%TD*%
D19*
%TO.C,SW1*%
X32000000Y-70190000D03*
X32000000Y-72730000D03*
X32000000Y-75270000D03*
X32000000Y-77810000D03*
X38730000Y-77810000D03*
X38730000Y-75270000D03*
X38730000Y-72730000D03*
X38730000Y-70190000D03*
%TD*%
D13*
%TO.C,C6*%
X49606400Y-45816200D03*
X49606400Y-43741200D03*
%TD*%
D20*
%TO.C,C12*%
X83000000Y-27000000D03*
X80925000Y-27000000D03*
%TD*%
D12*
%TO.C,R10*%
X56000000Y-50583200D03*
X56000000Y-48583200D03*
%TD*%
%TO.C,R12*%
X53010000Y-63283200D03*
X53010000Y-61283200D03*
%TD*%
D10*
%TO.C,R3*%
X30977500Y-54149600D03*
X32977500Y-54149600D03*
%TD*%
D15*
%TO.C,C10*%
X30925000Y-40000000D03*
X33000000Y-40000000D03*
%TD*%
D21*
%TO.C,R2*%
X38934700Y-62901200D03*
X37109700Y-62901200D03*
%TD*%
D17*
%TO.C,C1*%
X56566000Y-38233300D03*
X56566000Y-40308300D03*
%TD*%
D11*
%TO.C,D2*%
X31137500Y-63000000D03*
X32862500Y-63000000D03*
%TD*%
D17*
%TO.C,C2*%
X53010000Y-38182500D03*
X53010000Y-40257500D03*
%TD*%
D18*
%TO.C,R7*%
X83037500Y-50251200D03*
X81037500Y-50251200D03*
%TD*%
D21*
%TO.C,R1*%
X38925700Y-59700800D03*
X37100700Y-59700800D03*
%TD*%
D12*
%TO.C,R11*%
X49352400Y-65823200D03*
X49352400Y-63823200D03*
%TD*%
D17*
%TO.C,C13*%
X40445000Y-28925000D03*
X40445000Y-31000000D03*
%TD*%
D20*
%TO.C,C11*%
X83075000Y-47000000D03*
X81000000Y-47000000D03*
%TD*%
%TO.C,C8*%
X83000000Y-55000000D03*
X80925000Y-55000000D03*
%TD*%
D15*
%TO.C,C7*%
X30925000Y-51000000D03*
X33000000Y-51000000D03*
%TD*%
M02*
