%TF.GenerationSoftware,KiCad,Pcbnew,8.0.4*%
%TF.CreationDate,2025-01-16T20:27:34-05:00*%
%TF.ProjectId,eclipseControlPCB,65636c69-7073-4654-936f-6e74726f6c50,rev?*%
%TF.SameCoordinates,Original*%
%TF.FileFunction,OtherDrawing,Comment*%
%FSLAX46Y46*%
G04 Gerber Fmt 4.6, Leading zero omitted, Abs format (unit mm)*
G04 Created by KiCad (PCBNEW 8.0.4) date 2025-01-16 20:27:34*
%MOMM*%
%LPD*%
G01*
G04 APERTURE LIST*
%ADD10C,0.000150*%
%ADD11C,0.100000*%
%ADD12C,0.300000*%
G04 APERTURE END LIST*
D10*
X47452612Y-85499133D02*
G75*
G02*
X47415337Y-85388336I455867J215033D01*
G01*
X46899278Y-83412009D02*
G75*
G02*
X47036068Y-83402129I140701J-996191D01*
G01*
X48080663Y-82844684D02*
G75*
G02*
X48073198Y-82860129I-25884J2984D01*
G01*
X45149012Y-85023958D02*
X45156721Y-85320733D01*
X49687372Y-85543071D02*
X49870879Y-85828821D01*
X47203161Y-84600096D02*
X47203161Y-85219221D01*
X45541781Y-85592853D02*
G75*
G02*
X45488264Y-85609589I-70702J132153D01*
G01*
X44412336Y-85838346D02*
X44078961Y-85838346D01*
X47845418Y-82830714D02*
X47874512Y-82801161D01*
X45859844Y-85583574D02*
G75*
G02*
X45802495Y-85678763I-462165J213574D01*
G01*
X49305984Y-84940004D02*
X49344332Y-84991923D01*
X49356975Y-84984590D02*
G75*
G02*
X49350860Y-84992387I-34796J20990D01*
G01*
X46893871Y-83439741D02*
G75*
G02*
X46899269Y-83411952I7608J12941D01*
G01*
X47868000Y-82934948D02*
G75*
G02*
X47869903Y-82943426I-17821J-8452D01*
G01*
X45889998Y-85484937D02*
G75*
G02*
X45859838Y-85583571I-375319J60837D01*
G01*
X47601557Y-83171346D02*
X48438103Y-83171346D01*
X49081263Y-85838346D02*
X48942312Y-85838346D01*
X48859294Y-85732478D02*
X48920774Y-85632045D01*
X48045010Y-82955820D02*
G75*
G02*
X48048826Y-82965962I-13531J-10880D01*
G01*
X47707421Y-84978831D02*
G75*
G02*
X47775438Y-84898506I266458J-156669D01*
G01*
X48032699Y-82835101D02*
G75*
G02*
X48044087Y-82826670I57380J-65599D01*
G01*
X46381590Y-83057280D02*
G75*
G02*
X46297426Y-82956613I929189J862380D01*
G01*
X46711233Y-83318866D02*
G75*
G02*
X46707910Y-83315460I146J3466D01*
G01*
X48166147Y-85599504D02*
G75*
G02*
X48085695Y-85620768I-136868J355004D01*
G01*
X46719323Y-83277632D02*
X46713318Y-83295256D01*
X46273643Y-80915593D02*
X46318052Y-80903099D01*
X45977693Y-81832608D02*
X45976852Y-81980721D01*
X49312725Y-85442574D02*
X49278104Y-85497754D01*
X46397310Y-84600096D02*
X46671648Y-85012544D01*
X49356975Y-84984590D02*
X49389271Y-84930941D01*
X48386335Y-85105259D02*
G75*
G02*
X48392723Y-85209696I-969956J-111741D01*
G01*
X48538866Y-84835087D02*
G75*
G02*
X48653592Y-85113130I-528387J-380713D01*
G01*
X48438103Y-83171346D02*
X48327133Y-82909408D01*
X49576737Y-84609621D02*
X49723169Y-84604062D01*
X42193011Y-83438046D02*
X42193011Y-88200546D01*
X47851853Y-82909611D02*
G75*
G02*
X47861314Y-82922822I-108774J-87889D01*
G01*
X45122811Y-82767607D02*
G75*
G02*
X45095664Y-82551626I1954868J355407D01*
G01*
X48993771Y-85514639D02*
X49184182Y-85210202D01*
X45987208Y-82229929D02*
G75*
G02*
X45979780Y-82132215I1110171J133529D01*
G01*
X49869602Y-84598503D02*
X49678194Y-84906317D01*
X48059389Y-82863295D02*
G75*
G02*
X48049902Y-82861077I4490J40595D01*
G01*
X49184182Y-85210202D02*
X49001021Y-84929351D01*
X49468477Y-84796331D02*
X49576737Y-84609621D01*
X47065491Y-82643428D02*
X46944405Y-82648358D01*
X48216163Y-82647471D02*
X47575812Y-82642454D01*
X46340002Y-80934015D02*
X46312977Y-80973880D01*
X47904029Y-82802480D02*
X47927668Y-82833807D01*
X46018727Y-81561621D02*
X45996065Y-81653159D01*
X48031295Y-82849115D02*
G75*
G02*
X48028949Y-82842236I6084J5915D01*
G01*
X44918104Y-85481489D02*
G75*
G02*
X44902121Y-85317193I1157075J195489D01*
G01*
X45206098Y-85539860D02*
G75*
G02*
X45173284Y-85460121I189881J124760D01*
G01*
X45906925Y-85033483D02*
X45903372Y-85338248D01*
X47514002Y-85597342D02*
G75*
G02*
X47452611Y-85499133I383377J307942D01*
G01*
X45802493Y-85678761D02*
G75*
G02*
X45639538Y-85803140I-308514J235261D01*
G01*
X48333004Y-84965070D02*
G75*
G02*
X48367820Y-85028801I-210425J-156330D01*
G01*
X47079708Y-84600096D02*
X47203161Y-84600096D01*
X48048855Y-82965961D02*
G75*
G02*
X48046045Y-82976631I-18476J-839D01*
G01*
X47653006Y-85209867D02*
G75*
G02*
X47666926Y-85082459I611373J-2333D01*
G01*
X45639540Y-85803144D02*
G75*
G02*
X45411138Y-85849166I-236661J584744D01*
G01*
X46893668Y-82754526D02*
X46833593Y-82936778D01*
X47415342Y-85388335D02*
G75*
G02*
X47397661Y-85254789I861737J182035D01*
G01*
X44212311Y-84600096D02*
X44345661Y-84600096D01*
X49503091Y-85251164D02*
X49555261Y-85334917D01*
X48805339Y-85821615D02*
X48859294Y-85732478D01*
X47623028Y-83742242D02*
G75*
G02*
X47412540Y-83867807I-1183749J1745142D01*
G01*
X45020352Y-84600096D02*
X45142592Y-84600096D01*
X46505476Y-84023726D02*
G75*
G02*
X46421272Y-84013428I58803J830226D01*
G01*
X47882680Y-82943047D02*
G75*
G02*
X47873478Y-82946403I-14201J24647D01*
G01*
X51718011Y-88200546D02*
X51718011Y-83438046D01*
X45264091Y-85592853D02*
G75*
G02*
X45206119Y-85539846I75388J140653D01*
G01*
X46356123Y-80893279D02*
G75*
G02*
X46361508Y-80894752I1356J-5621D01*
G01*
X49595826Y-85832179D02*
G75*
G02*
X49583587Y-85822863I9653J25379D01*
G01*
X46745018Y-83209446D02*
X46726439Y-83258311D01*
X48028941Y-82842235D02*
G75*
G02*
X48032700Y-82835102I11238J-1365D01*
G01*
X46745961Y-84023065D02*
X46602131Y-84026591D01*
X48631469Y-85414544D02*
G75*
G02*
X48476779Y-85669632I-598090J188244D01*
G01*
X46222086Y-80931563D02*
X46273643Y-80915593D01*
X49080908Y-84600096D02*
X49211211Y-84800920D01*
X45663280Y-84600096D02*
X45785520Y-84600096D01*
X47744716Y-83657139D02*
X47623028Y-83742242D01*
X48327133Y-82909408D02*
X48216163Y-82647471D01*
X48251796Y-84880267D02*
G75*
G02*
X48276421Y-84901348I-197417J-255533D01*
G01*
X44078961Y-84600096D02*
X44212311Y-84600096D01*
X49452591Y-85631218D02*
X49404911Y-85557296D01*
X46403061Y-85838346D02*
X46269711Y-85838346D01*
X46630107Y-83274762D02*
G75*
G02*
X46605456Y-83275145I-12528J12862D01*
G01*
X46771108Y-83162383D02*
X47010746Y-83166887D01*
X48044090Y-82826675D02*
G75*
G02*
X48061396Y-82822340I15389J-24725D01*
G01*
X48806910Y-85832586D02*
G75*
G02*
X48803284Y-85828711I269J3886D01*
G01*
X46926484Y-82661504D02*
G75*
G02*
X46944405Y-82648351I18995J-7096D01*
G01*
X49743823Y-85834519D02*
X49693632Y-85836115D01*
X47914819Y-85610940D02*
G75*
G02*
X47774946Y-85532385I85160J315440D01*
G01*
X44745711Y-85628796D02*
X44745711Y-85733571D01*
X46765011Y-83156166D02*
G75*
G02*
X46767755Y-83138822I55768J66D01*
G01*
X47389880Y-83590479D02*
X47550830Y-83603128D01*
X48103378Y-84814419D02*
G75*
G02*
X48168706Y-84829913I-27299J-260581D01*
G01*
X49312725Y-85442574D02*
G75*
G02*
X49319240Y-85438769I6954J-4426D01*
G01*
X44902121Y-85317193D02*
X44898111Y-85015738D01*
X47840656Y-82897162D02*
G75*
G02*
X47851857Y-82909608I-112977J-112938D01*
G01*
X47666928Y-85082459D02*
G75*
G02*
X47707427Y-84978834I343551J-74541D01*
G01*
X45142592Y-84600096D02*
X45149012Y-85023958D01*
X45785520Y-84600096D02*
X45907761Y-84600096D01*
X46002116Y-82314192D02*
G75*
G02*
X45987209Y-82229929I753163J176692D01*
G01*
X48073188Y-82860119D02*
G75*
G02*
X48067621Y-82863022I-7409J7419D01*
G01*
X47870478Y-84839811D02*
G75*
G02*
X47936982Y-84819978I115801J-266889D01*
G01*
X49545113Y-85769831D02*
X49500971Y-85705727D01*
X47750876Y-83631270D02*
G75*
G02*
X47744677Y-83657085I-17997J-9330D01*
G01*
X47550830Y-83603128D02*
X47724710Y-83614050D01*
X45649151Y-85320733D02*
X45656860Y-85023958D01*
X46128700Y-81273874D02*
X46067271Y-81416249D01*
X45180649Y-85809108D02*
G75*
G02*
X45011854Y-85688987I140230J375708D01*
G01*
X48011310Y-83003574D02*
G75*
G02*
X47987143Y-82997280I-5331J29074D01*
G01*
X48020422Y-82935696D02*
G75*
G02*
X48033561Y-82944173I-28443J-58504D01*
G01*
X46926484Y-82661504D02*
X46893668Y-82754526D01*
X44898111Y-84600096D02*
X45020352Y-84600096D01*
X48035794Y-82990126D02*
G75*
G02*
X48011304Y-83003543I-32315J29926D01*
G01*
X48586352Y-83340418D02*
G75*
G02*
X48586365Y-83372747I-41873J-16182D01*
G01*
X47599682Y-83209446D02*
X46745018Y-83209446D01*
X48497599Y-83309599D02*
X48492067Y-83294770D01*
X46945986Y-85424992D02*
X46951120Y-85012544D01*
X47825380Y-82879368D02*
G75*
G02*
X47821689Y-82866614I15399J11368D01*
G01*
X48920774Y-85632045D02*
X48993771Y-85514639D01*
X47603211Y-83323746D02*
X47946533Y-83323126D01*
X46361522Y-80894738D02*
G75*
G02*
X46362103Y-80899705I-2943J-2862D01*
G01*
X49362973Y-85495113D02*
X49325929Y-85442075D01*
X47936982Y-84819978D02*
G75*
G02*
X48020338Y-84811468I103597J-602222D01*
G01*
X46381590Y-83057280D02*
X46492550Y-83169910D01*
X46833593Y-82936778D02*
X46767760Y-83138824D01*
X48497599Y-83309599D02*
G75*
G02*
X48498546Y-83315117I-14920J-5401D01*
G01*
X47924873Y-84586911D02*
G75*
G02*
X48062340Y-84585440I78306J-893589D01*
G01*
X46636432Y-83264914D02*
G75*
G02*
X46630100Y-83274754I-24353J8714D01*
G01*
X47012661Y-83496886D02*
G75*
G02*
X46893867Y-83439747I311118J798886D01*
G01*
X46029054Y-82414838D02*
X46080672Y-82564437D01*
X47889783Y-82795423D02*
G75*
G02*
X47904042Y-82802469I-804J-19577D01*
G01*
X47927668Y-82833807D02*
G75*
G02*
X47943171Y-82859657I-193289J-133493D01*
G01*
X48346161Y-85437559D02*
G75*
G02*
X48296885Y-85507575I-365182J204659D01*
G01*
X48653601Y-85113129D02*
G75*
G02*
X48631454Y-85414539I-649822J-103771D01*
G01*
X47626820Y-84711840D02*
G75*
G02*
X47812869Y-84611712I434459J-584360D01*
G01*
X48564340Y-83388806D02*
X48416675Y-83395099D01*
X49609872Y-85835087D02*
G75*
G02*
X49595822Y-85832190I1807J44287D01*
G01*
X46771108Y-83162383D02*
G75*
G02*
X46764996Y-83156166I71J6183D01*
G01*
X49503091Y-85251164D02*
G75*
G02*
X49495325Y-85235726I82288J51064D01*
G01*
X48476453Y-83257967D02*
X48454345Y-83209446D01*
X46136361Y-84600096D02*
X46266836Y-84600096D01*
X47248454Y-82640898D02*
X47065491Y-82643428D01*
X46671648Y-85012544D02*
X46945986Y-85424992D01*
X48484921Y-83277182D02*
X48476453Y-83257967D01*
X46067271Y-81416249D02*
X46018727Y-81561621D01*
X46711233Y-83318866D02*
X46970870Y-83321312D01*
X46322875Y-83993111D02*
G75*
G02*
X46033576Y-83896003I397304J1663111D01*
G01*
X45547752Y-83559007D02*
G75*
G02*
X45356950Y-83323122I1202527J1167807D01*
G01*
X48370612Y-85387154D02*
G75*
G02*
X48346156Y-85437556I-438333J181554D01*
G01*
X49583587Y-85822863D02*
X49545113Y-85769831D01*
X47259767Y-83570927D02*
G75*
G02*
X47140232Y-83541037I238212J1206627D01*
G01*
X48942312Y-85838346D02*
X48889033Y-85837653D01*
X45011841Y-85688998D02*
G75*
G02*
X44951764Y-85592418I326538J270098D01*
G01*
X47724710Y-83614050D02*
G75*
G02*
X47750837Y-83631290I-2331J-31950D01*
G01*
X49647938Y-85836183D02*
X49609872Y-85835087D01*
X45907761Y-84600096D02*
X45906925Y-85033483D01*
X45983436Y-81735077D02*
X45977693Y-81832608D01*
X49211211Y-84800920D02*
X49261851Y-84877261D01*
X45632599Y-85460123D02*
G75*
G02*
X45599780Y-85539864I-222920J45123D01*
G01*
X46033579Y-83895996D02*
G75*
G02*
X45774067Y-83750888I618700J1411096D01*
G01*
X47389880Y-83590479D02*
G75*
G02*
X47259767Y-83570926I148699J1432179D01*
G01*
X48476777Y-85669630D02*
G75*
G02*
X48280513Y-85801182I-431398J431430D01*
G01*
X48168708Y-84829908D02*
G75*
G02*
X48193119Y-84841296I-63229J-167392D01*
G01*
X49239017Y-85562291D02*
X49194724Y-85638817D01*
X48498561Y-83315117D02*
G75*
G02*
X48495051Y-83318683I-3482J-83D01*
G01*
X47412539Y-83867806D02*
G75*
G02*
X47213388Y-83950782I-587260J1129006D01*
G01*
X47812864Y-84611697D02*
G75*
G02*
X47924873Y-84586905I150515J-414603D01*
G01*
X45095667Y-82551626D02*
G75*
G02*
X45147683Y-82029691I1551612J108926D01*
G01*
X49495325Y-85235726D02*
G75*
G02*
X49496297Y-85219990I17354J6826D01*
G01*
X47861317Y-82922820D02*
G75*
G02*
X47867999Y-82934949I-98338J-62080D01*
G01*
X46726439Y-83258311D02*
X46719323Y-83277632D01*
X44078961Y-85219221D02*
X44078961Y-84600096D01*
X44898111Y-85015738D02*
X44898111Y-84600096D01*
X47604348Y-85692875D02*
G75*
G02*
X47514005Y-85597340I543531J604475D01*
G01*
X46312977Y-80973880D02*
X46279717Y-81020085D01*
X46266836Y-84600096D02*
X46397310Y-84600096D01*
X48391219Y-85288021D02*
X48392723Y-85209696D01*
X47280784Y-83170255D02*
X47601557Y-83171346D01*
X47946533Y-83323126D02*
X48235552Y-83321211D01*
X49616428Y-85431999D02*
X49687372Y-85543071D01*
X47203161Y-85219221D02*
X47203161Y-85838346D01*
X45976852Y-81980721D02*
X45979784Y-82132215D01*
X48222471Y-84859251D02*
X48193117Y-84841300D01*
X45488263Y-85609579D02*
G75*
G02*
X45402936Y-85614463I-85384J743879D01*
G01*
X46200400Y-81139990D02*
X46128700Y-81273874D01*
X49426309Y-84868564D02*
X49468477Y-84796331D01*
X46955511Y-88200546D02*
X51718011Y-88200546D01*
X46002116Y-82314192D02*
X46029054Y-82414838D01*
X48235552Y-83321211D02*
X48495051Y-83318663D01*
X47945716Y-82876058D02*
G75*
G02*
X47938100Y-82892180I-32637J5558D01*
G01*
X45370260Y-81554625D02*
G75*
G02*
X45741237Y-81175603I1308819J-909975D01*
G01*
X49261851Y-84877261D02*
X49305984Y-84940004D01*
X45248703Y-83139252D02*
G75*
G02*
X45172277Y-82958756I1178776J605552D01*
G01*
X46970870Y-83321312D02*
X47259889Y-83323151D01*
X47774935Y-85532397D02*
G75*
G02*
X47684133Y-85392718I246344J259497D01*
G01*
X48868935Y-84723891D02*
X48817068Y-84641330D01*
X45356946Y-83323124D02*
G75*
G02*
X45248705Y-83139251I1544033J1032724D01*
G01*
X48481168Y-83070199D02*
X48586352Y-83340418D01*
X47896678Y-82933272D02*
G75*
G02*
X47882684Y-82943054I-65199J78372D01*
G01*
X47010746Y-83166887D02*
X47280784Y-83170255D01*
X46713318Y-83295256D02*
X46708657Y-83310093D01*
X47826837Y-82852991D02*
G75*
G02*
X47845418Y-82830714I252842J-192009D01*
G01*
X48367811Y-85028804D02*
G75*
G02*
X48386326Y-85105260I-300732J-113296D01*
G01*
X46955773Y-85838346D02*
X46679417Y-85424077D01*
X46602131Y-84026591D02*
X46505476Y-84023726D01*
X48808572Y-84624298D02*
G75*
G02*
X48812392Y-84612837I8907J3398D01*
G01*
X46142517Y-82704437D02*
G75*
G02*
X46080668Y-82564438I1558862J772337D01*
G01*
X48076012Y-82829631D02*
G75*
G02*
X48080665Y-82844684I-14633J-12769D01*
G01*
X48009080Y-82933744D02*
G75*
G02*
X48020413Y-82935714I2299J-20356D01*
G01*
X45983436Y-81735077D02*
G75*
G02*
X45996068Y-81653160I771443J-77023D01*
G01*
X47986504Y-82949509D02*
G75*
G02*
X47998206Y-82938166I57575J-47691D01*
G01*
X49723169Y-84604062D02*
X49869602Y-84598503D01*
X48313181Y-84644732D02*
G75*
G02*
X48538857Y-84835093I-266902J-545368D01*
G01*
X44951764Y-85592418D02*
G75*
G02*
X44918102Y-85481489I417015J187118D01*
G01*
X48384557Y-85341598D02*
G75*
G02*
X48370611Y-85387154I-245678J50298D01*
G01*
X49555261Y-85334917D02*
X49616428Y-85431999D01*
X46757073Y-82917608D02*
X46872960Y-82571271D01*
X46956254Y-84600096D02*
X47079708Y-84600096D01*
X49278104Y-85497754D02*
X49239017Y-85562291D01*
X47203161Y-85838346D02*
X47079467Y-85838346D01*
X48180221Y-83399329D02*
X47694296Y-83400621D01*
X44745711Y-85838346D02*
X44412336Y-85838346D01*
X46872960Y-82571271D02*
X47567822Y-82566278D01*
X48067621Y-82863021D02*
G75*
G02*
X48059390Y-82863290I-5042J28221D01*
G01*
X48492067Y-83294770D02*
X48484921Y-83277182D01*
X48046069Y-82976646D02*
G75*
G02*
X48035794Y-82990126I-78590J49246D01*
G01*
X48871033Y-84601178D02*
X48940096Y-84600096D01*
X46671974Y-83165386D02*
X46711852Y-83051147D01*
X48049904Y-82861072D02*
G75*
G02*
X48040595Y-82856546I17375J47572D01*
G01*
X47684152Y-85392711D02*
G75*
G02*
X47653018Y-85209867I508227J180611D01*
G01*
X47998210Y-82938171D02*
G75*
G02*
X48009081Y-82933756I13369J-17329D01*
G01*
X48062340Y-84585440D02*
G75*
G02*
X48200070Y-84605150I-60361J-912860D01*
G01*
X44345661Y-85628796D02*
X44545686Y-85628796D01*
X48377932Y-82814915D02*
X48481168Y-83070199D01*
X45172272Y-82958758D02*
G75*
G02*
X45122811Y-82767607I1277207J432458D01*
G01*
X48812423Y-84612886D02*
G75*
G02*
X48831952Y-84605382I29656J-48014D01*
G01*
X46421272Y-84013427D02*
X46322875Y-83993111D01*
X45649151Y-85320733D02*
G75*
G02*
X45632599Y-85460123I-863272J31833D01*
G01*
X46318052Y-80903099D02*
X46356123Y-80893279D01*
X47694296Y-83400621D02*
X47036068Y-83402134D01*
X48296885Y-85507575D02*
G75*
G02*
X48236790Y-85561790I-252506J219475D01*
G01*
X45402936Y-85614466D02*
G75*
G02*
X45317609Y-85609582I-57J746866D01*
G01*
X42193011Y-88200546D02*
X46955511Y-88200546D01*
X48200071Y-84605146D02*
G75*
G02*
X48313186Y-84644721I-109792J-495254D01*
G01*
X48276424Y-84901345D02*
G75*
G02*
X48333005Y-84965069I-336945J-356155D01*
G01*
X49605442Y-85025865D02*
X49545521Y-85130054D01*
X45774068Y-83750887D02*
G75*
G02*
X45547750Y-83559009I874511J1260887D01*
G01*
X49678194Y-84906317D02*
X49605442Y-85025865D01*
X49389271Y-84930941D02*
X49426309Y-84868564D01*
X44345661Y-84600096D02*
X44345661Y-85114446D01*
X47821701Y-82866615D02*
G75*
G02*
X47826820Y-82852978I25478J-1785D01*
G01*
X48803361Y-85828711D02*
G75*
G02*
X48805353Y-85821624I13918J-89D01*
G01*
X49404911Y-85557296D02*
X49362973Y-85495113D01*
X48586390Y-83372757D02*
G75*
G02*
X48564343Y-83388853I-23511J9057D01*
G01*
X48040595Y-82856547D02*
G75*
G02*
X48031287Y-82849123I25684J41747D01*
G01*
X45656860Y-85023958D02*
X45663280Y-84600096D01*
X48940096Y-84600096D02*
X49080908Y-84600096D01*
X48033559Y-82944176D02*
G75*
G02*
X48045004Y-82955825I-51580J-62124D01*
G01*
X49350865Y-84992392D02*
G75*
G02*
X49344303Y-84991945I-3086J3092D01*
G01*
X48817068Y-84641330D02*
G75*
G02*
X48808574Y-84624297I84411J52730D01*
G01*
X47492324Y-84855532D02*
G75*
G02*
X47626823Y-84711844I464355J-299868D01*
G01*
X48844178Y-85835516D02*
X48806910Y-85832586D01*
X46403061Y-85009807D02*
X46403061Y-85424077D01*
X46951120Y-85012544D02*
X46956254Y-84600096D01*
X48391219Y-85288021D02*
G75*
G02*
X48384563Y-85341599I-345540J15721D01*
G01*
X48236791Y-85561791D02*
G75*
G02*
X48166151Y-85599514I-188612J268191D01*
G01*
X45741250Y-81175621D02*
G75*
G02*
X46222088Y-80931570I1000229J-1374979D01*
G01*
X45173273Y-85460123D02*
G75*
G02*
X45156724Y-85320733I845206J171023D01*
G01*
X46269711Y-85838346D02*
X46136361Y-85838346D01*
X46297424Y-82956614D02*
G75*
G02*
X46214739Y-82835068I1244955J935814D01*
G01*
X44745711Y-85733571D02*
X44745711Y-85838346D01*
X45317609Y-85609579D02*
G75*
G02*
X45264093Y-85592849I17170J148879D01*
G01*
X46679417Y-85424077D02*
X46403061Y-85009807D01*
X47913381Y-82918253D02*
X47896678Y-82933272D01*
X46711852Y-83051147D02*
X46757073Y-82917608D01*
X49693632Y-85836115D02*
X49647938Y-85836183D01*
X51718011Y-78675546D02*
X46955511Y-78675546D01*
X46362096Y-80899701D02*
X46340002Y-80934015D01*
X47873480Y-82946414D02*
G75*
G02*
X47869905Y-82943426I-601J2914D01*
G01*
X47567822Y-82566278D02*
X48262684Y-82561284D01*
X48061394Y-82822366D02*
G75*
G02*
X48075998Y-82829643I-1515J-21334D01*
G01*
X48280514Y-85801185D02*
G75*
G02*
X48045069Y-85851656I-253035J605985D01*
G01*
X51718011Y-83438046D02*
X51718011Y-78675546D01*
X48251796Y-84880267D02*
X48222471Y-84859251D01*
X46636432Y-83264914D02*
X46671974Y-83165386D01*
X49500971Y-85705727D02*
X49452591Y-85631218D01*
X49194724Y-85638817D02*
X49081263Y-85838346D01*
X48416675Y-83395099D02*
X48180221Y-83399329D01*
X46136361Y-85838346D02*
X46136361Y-85219221D01*
X48085694Y-85620760D02*
G75*
G02*
X47914815Y-85610955I-62015J413160D01*
G01*
X44345661Y-85114446D02*
X44345661Y-85628796D01*
X47079467Y-85838346D02*
X46955773Y-85838346D01*
X45411138Y-85849167D02*
G75*
G02*
X45180643Y-85809124I-8259J635867D01*
G01*
X46707861Y-83315461D02*
G75*
G02*
X46708647Y-83310090I18318J61D01*
G01*
X49319241Y-85438792D02*
G75*
G02*
X49325980Y-85442039I438J-7708D01*
G01*
X47976978Y-82975122D02*
G75*
G02*
X47986514Y-82949517I41501J-878D01*
G01*
X45147669Y-82029687D02*
G75*
G02*
X45370255Y-81554621I1500610J-413413D01*
G01*
X47874512Y-82801161D02*
G75*
G02*
X47889783Y-82795430I14467J-15339D01*
G01*
X47840656Y-82897162D02*
G75*
G02*
X47825386Y-82879364I109923J109762D01*
G01*
X46200400Y-81139990D02*
G75*
G02*
X46279718Y-81020086I1231879J-728710D01*
G01*
X46955511Y-78675546D02*
X42193011Y-78675546D01*
X47575812Y-82642454D02*
X47248454Y-82640898D01*
X47397662Y-85254789D02*
G75*
G02*
X47415517Y-85038928I789217J43389D01*
G01*
X44078961Y-85838346D02*
X44078961Y-85219221D01*
X48930159Y-84819974D02*
X48868935Y-84723891D01*
X47000000Y-84000000D02*
G75*
G02*
X46745961Y-84023068I-344721J2385900D01*
G01*
X47938091Y-82892172D02*
X47913381Y-82918253D01*
X48454345Y-83209446D02*
X47599682Y-83209446D01*
X45903372Y-85338248D02*
G75*
G02*
X45889997Y-85484937I-1060593J22748D01*
G01*
X48889033Y-85837653D02*
X48844178Y-85835516D01*
X47775432Y-84898498D02*
G75*
G02*
X47870478Y-84839811I250447J-299302D01*
G01*
X44545686Y-85628796D02*
X44745711Y-85628796D01*
X48045069Y-85851648D02*
G75*
G02*
X47807295Y-85813774I-17390J656148D01*
G01*
X48294032Y-82627020D02*
X48377932Y-82814915D01*
X46403061Y-85424077D02*
X46403061Y-85838346D01*
X47807288Y-85813793D02*
G75*
G02*
X47604362Y-85692859I204991J574693D01*
G01*
X46214738Y-82835068D02*
G75*
G02*
X46142513Y-82704439I1409641J864668D01*
G01*
X45599774Y-85539860D02*
G75*
G02*
X45541777Y-85592845I-133195J87560D01*
G01*
X47012661Y-83496886D02*
X47140231Y-83541041D01*
X47415505Y-85038925D02*
G75*
G02*
X47492324Y-84855532I552574J-123675D01*
G01*
X49870879Y-85828821D02*
X49743823Y-85834519D01*
X48831949Y-84605363D02*
G75*
G02*
X48871033Y-84601184I47230J-256837D01*
G01*
X49545521Y-85130054D02*
X49496264Y-85219972D01*
X48020338Y-84811463D02*
G75*
G02*
X48103378Y-84814424I20041J-603937D01*
G01*
X46492550Y-83169910D02*
X46605410Y-83275195D01*
X47213389Y-83950785D02*
G75*
G02*
X47000001Y-84000007I-401510J1253485D01*
G01*
X47987160Y-82997260D02*
G75*
G02*
X47976941Y-82975121I17619J21560D01*
G01*
X47943168Y-82859659D02*
G75*
G02*
X47945703Y-82876056I-23589J-12041D01*
G01*
X42193011Y-78675546D02*
X42193011Y-83438046D01*
X46136361Y-85219221D02*
X46136361Y-84600096D01*
X49001021Y-84929351D02*
X48930159Y-84819974D01*
X47259889Y-83323151D02*
X47603211Y-83323746D01*
X48262684Y-82561284D02*
X48294032Y-82627020D01*
D11*
X54256265Y-86586704D02*
X54732455Y-86586704D01*
X54161027Y-86872419D02*
X54494360Y-85872419D01*
X54494360Y-85872419D02*
X54827693Y-86872419D01*
X55303884Y-86872419D02*
X55208646Y-86824800D01*
X55208646Y-86824800D02*
X55161027Y-86729561D01*
X55161027Y-86729561D02*
X55161027Y-85872419D01*
X56065789Y-86824800D02*
X55970551Y-86872419D01*
X55970551Y-86872419D02*
X55780075Y-86872419D01*
X55780075Y-86872419D02*
X55684837Y-86824800D01*
X55684837Y-86824800D02*
X55637218Y-86729561D01*
X55637218Y-86729561D02*
X55637218Y-86348609D01*
X55637218Y-86348609D02*
X55684837Y-86253371D01*
X55684837Y-86253371D02*
X55780075Y-86205752D01*
X55780075Y-86205752D02*
X55970551Y-86205752D01*
X55970551Y-86205752D02*
X56065789Y-86253371D01*
X56065789Y-86253371D02*
X56113408Y-86348609D01*
X56113408Y-86348609D02*
X56113408Y-86443847D01*
X56113408Y-86443847D02*
X55637218Y-86539085D01*
X56446742Y-86872419D02*
X56970551Y-86205752D01*
X56446742Y-86205752D02*
X56970551Y-86872419D01*
X58113409Y-86872419D02*
X58113409Y-85872419D01*
X58113409Y-85872419D02*
X58494361Y-85872419D01*
X58494361Y-85872419D02*
X58589599Y-85920038D01*
X58589599Y-85920038D02*
X58637218Y-85967657D01*
X58637218Y-85967657D02*
X58684837Y-86062895D01*
X58684837Y-86062895D02*
X58684837Y-86205752D01*
X58684837Y-86205752D02*
X58637218Y-86300990D01*
X58637218Y-86300990D02*
X58589599Y-86348609D01*
X58589599Y-86348609D02*
X58494361Y-86396228D01*
X58494361Y-86396228D02*
X58113409Y-86396228D01*
X59494361Y-86824800D02*
X59399123Y-86872419D01*
X59399123Y-86872419D02*
X59208647Y-86872419D01*
X59208647Y-86872419D02*
X59113409Y-86824800D01*
X59113409Y-86824800D02*
X59065790Y-86729561D01*
X59065790Y-86729561D02*
X59065790Y-86348609D01*
X59065790Y-86348609D02*
X59113409Y-86253371D01*
X59113409Y-86253371D02*
X59208647Y-86205752D01*
X59208647Y-86205752D02*
X59399123Y-86205752D01*
X59399123Y-86205752D02*
X59494361Y-86253371D01*
X59494361Y-86253371D02*
X59541980Y-86348609D01*
X59541980Y-86348609D02*
X59541980Y-86443847D01*
X59541980Y-86443847D02*
X59065790Y-86539085D01*
X59970552Y-86205752D02*
X59970552Y-86872419D01*
X59970552Y-86300990D02*
X60018171Y-86253371D01*
X60018171Y-86253371D02*
X60113409Y-86205752D01*
X60113409Y-86205752D02*
X60256266Y-86205752D01*
X60256266Y-86205752D02*
X60351504Y-86253371D01*
X60351504Y-86253371D02*
X60399123Y-86348609D01*
X60399123Y-86348609D02*
X60399123Y-86872419D01*
X61303885Y-86205752D02*
X61303885Y-87015276D01*
X61303885Y-87015276D02*
X61256266Y-87110514D01*
X61256266Y-87110514D02*
X61208647Y-87158133D01*
X61208647Y-87158133D02*
X61113409Y-87205752D01*
X61113409Y-87205752D02*
X60970552Y-87205752D01*
X60970552Y-87205752D02*
X60875314Y-87158133D01*
X61303885Y-86824800D02*
X61208647Y-86872419D01*
X61208647Y-86872419D02*
X61018171Y-86872419D01*
X61018171Y-86872419D02*
X60922933Y-86824800D01*
X60922933Y-86824800D02*
X60875314Y-86777180D01*
X60875314Y-86777180D02*
X60827695Y-86681942D01*
X60827695Y-86681942D02*
X60827695Y-86396228D01*
X60827695Y-86396228D02*
X60875314Y-86300990D01*
X60875314Y-86300990D02*
X60922933Y-86253371D01*
X60922933Y-86253371D02*
X61018171Y-86205752D01*
X61018171Y-86205752D02*
X61208647Y-86205752D01*
X61208647Y-86205752D02*
X61303885Y-86253371D01*
X62780076Y-87205752D02*
X62780076Y-85777180D01*
X64256267Y-86872419D02*
X64256267Y-85872419D01*
X64256267Y-85872419D02*
X64494362Y-85872419D01*
X64494362Y-85872419D02*
X64637219Y-85920038D01*
X64637219Y-85920038D02*
X64732457Y-86015276D01*
X64732457Y-86015276D02*
X64780076Y-86110514D01*
X64780076Y-86110514D02*
X64827695Y-86300990D01*
X64827695Y-86300990D02*
X64827695Y-86443847D01*
X64827695Y-86443847D02*
X64780076Y-86634323D01*
X64780076Y-86634323D02*
X64732457Y-86729561D01*
X64732457Y-86729561D02*
X64637219Y-86824800D01*
X64637219Y-86824800D02*
X64494362Y-86872419D01*
X64494362Y-86872419D02*
X64256267Y-86872419D01*
X65637219Y-86824800D02*
X65541981Y-86872419D01*
X65541981Y-86872419D02*
X65351505Y-86872419D01*
X65351505Y-86872419D02*
X65256267Y-86824800D01*
X65256267Y-86824800D02*
X65208648Y-86729561D01*
X65208648Y-86729561D02*
X65208648Y-86348609D01*
X65208648Y-86348609D02*
X65256267Y-86253371D01*
X65256267Y-86253371D02*
X65351505Y-86205752D01*
X65351505Y-86205752D02*
X65541981Y-86205752D01*
X65541981Y-86205752D02*
X65637219Y-86253371D01*
X65637219Y-86253371D02*
X65684838Y-86348609D01*
X65684838Y-86348609D02*
X65684838Y-86443847D01*
X65684838Y-86443847D02*
X65208648Y-86539085D01*
X66541981Y-86824800D02*
X66446743Y-86872419D01*
X66446743Y-86872419D02*
X66256267Y-86872419D01*
X66256267Y-86872419D02*
X66161029Y-86824800D01*
X66161029Y-86824800D02*
X66113410Y-86777180D01*
X66113410Y-86777180D02*
X66065791Y-86681942D01*
X66065791Y-86681942D02*
X66065791Y-86396228D01*
X66065791Y-86396228D02*
X66113410Y-86300990D01*
X66113410Y-86300990D02*
X66161029Y-86253371D01*
X66161029Y-86253371D02*
X66256267Y-86205752D01*
X66256267Y-86205752D02*
X66446743Y-86205752D01*
X66446743Y-86205752D02*
X66541981Y-86253371D01*
X67684839Y-85967657D02*
X67732458Y-85920038D01*
X67732458Y-85920038D02*
X67827696Y-85872419D01*
X67827696Y-85872419D02*
X68065791Y-85872419D01*
X68065791Y-85872419D02*
X68161029Y-85920038D01*
X68161029Y-85920038D02*
X68208648Y-85967657D01*
X68208648Y-85967657D02*
X68256267Y-86062895D01*
X68256267Y-86062895D02*
X68256267Y-86158133D01*
X68256267Y-86158133D02*
X68208648Y-86300990D01*
X68208648Y-86300990D02*
X67637220Y-86872419D01*
X67637220Y-86872419D02*
X68256267Y-86872419D01*
X68875315Y-85872419D02*
X68970553Y-85872419D01*
X68970553Y-85872419D02*
X69065791Y-85920038D01*
X69065791Y-85920038D02*
X69113410Y-85967657D01*
X69113410Y-85967657D02*
X69161029Y-86062895D01*
X69161029Y-86062895D02*
X69208648Y-86253371D01*
X69208648Y-86253371D02*
X69208648Y-86491466D01*
X69208648Y-86491466D02*
X69161029Y-86681942D01*
X69161029Y-86681942D02*
X69113410Y-86777180D01*
X69113410Y-86777180D02*
X69065791Y-86824800D01*
X69065791Y-86824800D02*
X68970553Y-86872419D01*
X68970553Y-86872419D02*
X68875315Y-86872419D01*
X68875315Y-86872419D02*
X68780077Y-86824800D01*
X68780077Y-86824800D02*
X68732458Y-86777180D01*
X68732458Y-86777180D02*
X68684839Y-86681942D01*
X68684839Y-86681942D02*
X68637220Y-86491466D01*
X68637220Y-86491466D02*
X68637220Y-86253371D01*
X68637220Y-86253371D02*
X68684839Y-86062895D01*
X68684839Y-86062895D02*
X68732458Y-85967657D01*
X68732458Y-85967657D02*
X68780077Y-85920038D01*
X68780077Y-85920038D02*
X68875315Y-85872419D01*
X69589601Y-85967657D02*
X69637220Y-85920038D01*
X69637220Y-85920038D02*
X69732458Y-85872419D01*
X69732458Y-85872419D02*
X69970553Y-85872419D01*
X69970553Y-85872419D02*
X70065791Y-85920038D01*
X70065791Y-85920038D02*
X70113410Y-85967657D01*
X70113410Y-85967657D02*
X70161029Y-86062895D01*
X70161029Y-86062895D02*
X70161029Y-86158133D01*
X70161029Y-86158133D02*
X70113410Y-86300990D01*
X70113410Y-86300990D02*
X69541982Y-86872419D01*
X69541982Y-86872419D02*
X70161029Y-86872419D01*
X71018172Y-86205752D02*
X71018172Y-86872419D01*
X70780077Y-85824800D02*
X70541982Y-86539085D01*
X70541982Y-86539085D02*
X71161029Y-86539085D01*
D12*
X52554510Y-84015114D02*
X53054510Y-84015114D01*
X53268796Y-84800828D02*
X52554510Y-84800828D01*
X52554510Y-84800828D02*
X52554510Y-83300828D01*
X52554510Y-83300828D02*
X53268796Y-83300828D01*
X54554511Y-84729400D02*
X54411653Y-84800828D01*
X54411653Y-84800828D02*
X54125939Y-84800828D01*
X54125939Y-84800828D02*
X53983082Y-84729400D01*
X53983082Y-84729400D02*
X53911653Y-84657971D01*
X53911653Y-84657971D02*
X53840225Y-84515114D01*
X53840225Y-84515114D02*
X53840225Y-84086542D01*
X53840225Y-84086542D02*
X53911653Y-83943685D01*
X53911653Y-83943685D02*
X53983082Y-83872257D01*
X53983082Y-83872257D02*
X54125939Y-83800828D01*
X54125939Y-83800828D02*
X54411653Y-83800828D01*
X54411653Y-83800828D02*
X54554511Y-83872257D01*
X55411653Y-84800828D02*
X55268796Y-84729400D01*
X55268796Y-84729400D02*
X55197367Y-84586542D01*
X55197367Y-84586542D02*
X55197367Y-83300828D01*
X55983081Y-84800828D02*
X55983081Y-83800828D01*
X55983081Y-83300828D02*
X55911653Y-83372257D01*
X55911653Y-83372257D02*
X55983081Y-83443685D01*
X55983081Y-83443685D02*
X56054510Y-83372257D01*
X56054510Y-83372257D02*
X55983081Y-83300828D01*
X55983081Y-83300828D02*
X55983081Y-83443685D01*
X56697367Y-83800828D02*
X56697367Y-85300828D01*
X56697367Y-83872257D02*
X56840225Y-83800828D01*
X56840225Y-83800828D02*
X57125939Y-83800828D01*
X57125939Y-83800828D02*
X57268796Y-83872257D01*
X57268796Y-83872257D02*
X57340225Y-83943685D01*
X57340225Y-83943685D02*
X57411653Y-84086542D01*
X57411653Y-84086542D02*
X57411653Y-84515114D01*
X57411653Y-84515114D02*
X57340225Y-84657971D01*
X57340225Y-84657971D02*
X57268796Y-84729400D01*
X57268796Y-84729400D02*
X57125939Y-84800828D01*
X57125939Y-84800828D02*
X56840225Y-84800828D01*
X56840225Y-84800828D02*
X56697367Y-84729400D01*
X57983082Y-84729400D02*
X58125939Y-84800828D01*
X58125939Y-84800828D02*
X58411653Y-84800828D01*
X58411653Y-84800828D02*
X58554510Y-84729400D01*
X58554510Y-84729400D02*
X58625939Y-84586542D01*
X58625939Y-84586542D02*
X58625939Y-84515114D01*
X58625939Y-84515114D02*
X58554510Y-84372257D01*
X58554510Y-84372257D02*
X58411653Y-84300828D01*
X58411653Y-84300828D02*
X58197368Y-84300828D01*
X58197368Y-84300828D02*
X58054510Y-84229400D01*
X58054510Y-84229400D02*
X57983082Y-84086542D01*
X57983082Y-84086542D02*
X57983082Y-84015114D01*
X57983082Y-84015114D02*
X58054510Y-83872257D01*
X58054510Y-83872257D02*
X58197368Y-83800828D01*
X58197368Y-83800828D02*
X58411653Y-83800828D01*
X58411653Y-83800828D02*
X58554510Y-83872257D01*
X59840225Y-84729400D02*
X59697368Y-84800828D01*
X59697368Y-84800828D02*
X59411654Y-84800828D01*
X59411654Y-84800828D02*
X59268796Y-84729400D01*
X59268796Y-84729400D02*
X59197368Y-84586542D01*
X59197368Y-84586542D02*
X59197368Y-84015114D01*
X59197368Y-84015114D02*
X59268796Y-83872257D01*
X59268796Y-83872257D02*
X59411654Y-83800828D01*
X59411654Y-83800828D02*
X59697368Y-83800828D01*
X59697368Y-83800828D02*
X59840225Y-83872257D01*
X59840225Y-83872257D02*
X59911654Y-84015114D01*
X59911654Y-84015114D02*
X59911654Y-84157971D01*
X59911654Y-84157971D02*
X59197368Y-84300828D01*
M02*
