M48
; DRILL file {KiCad 8.0.4} date 2025-01-16T20:27:28-0500
; FORMAT={-:-/ absolute / metric / decimal}
; #@! TF.CreationDate,2025-01-16T20:27:28-05:00
; #@! TF.GenerationSoftware,Kicad,Pcbnew,8.0.4
; #@! TF.FileFunction,Plated,1,2,PTH
FMAT,2
METRIC
; #@! TA.AperFunction,Plated,PTH,ViaDrill
T1C0.300
; #@! TA.AperFunction,Plated,PTH,ViaDrill
T2C0.600
; #@! TA.AperFunction,Plated,PTH,ComponentDrill
T3C0.800
; #@! TA.AperFunction,Plated,PTH,ComponentDrill
T4C1.000
; #@! TA.AperFunction,Plated,PTH,ComponentDrill
T5C1.320
%
G90
G05
T1
X24.507Y-81.715
X27.723Y-81.715
X29.0Y-64.0
X33.0Y-47.0
X34.0Y-48.0
X35.0Y-33.0
X35.0Y-41.0
X35.0Y-44.0
X35.0Y-49.0
X35.0Y-55.0
X35.0Y-77.0
X36.0Y-46.0
X36.0Y-75.0
X37.0Y-47.0
X38.0Y-33.0
X39.0Y-49.0
X39.5Y-36.5
X40.0Y-52.0
X41.0Y-37.555
X42.0Y-49.0
X43.0Y-37.0
X43.0Y-62.955
X43.0Y-66.0
X43.0Y-69.0
X43.0Y-72.0
X47.457Y-55.858
X47.481Y-54.802
X47.562Y-52.206
X48.0Y-42.0
X48.767Y-60.399
X48.786Y-58.317
X50.813Y-60.399
X50.815Y-58.349
X51.0Y-42.0
X51.391Y-54.874
X54.486Y-58.184
X54.613Y-61.548
X54.616Y-66.089
X55.0Y-42.0
X55.96Y-56.693
X56.0Y-53.0
X56.0Y-55.0
X56.338Y-63.662
X57.0Y-66.0
X57.0Y-69.0
X58.0Y-42.0
X58.0Y-48.0
X63.0Y-39.0
X63.0Y-63.0
X63.0Y-68.0
X63.0Y-70.0
X64.734Y-63.483
X66.0Y-68.0
X67.0Y-38.0
X67.0Y-71.0
X67.0Y-78.0
X67.5Y-42.5
X68.0Y-52.0
X68.0Y-75.0
X69.0Y-46.0
X70.0Y-53.0
X70.0Y-79.0
X71.0Y-57.0
X72.0Y-47.0
X72.244Y-63.525
X73.0Y-61.0
X74.0Y-45.0
X75.0Y-69.0
X76.0Y-64.0
X78.0Y-56.0
X78.0Y-58.0
X78.904Y-63.349
X79.0Y-54.0
X80.0Y-69.0
X81.0Y-63.0
X82.0Y-59.685
X83.0Y-38.0
X83.0Y-64.0
X83.0Y-80.0
X84.0Y-60.0
X90.0Y-82.0
X90.002Y-83.539
T2
X30.0Y-57.0
X48.0Y-37.0
X64.0Y-58.0
T3
X73.46Y-66.0
X78.54Y-66.0
T4
X26.0Y-29.445
X26.0Y-31.985
X26.0Y-34.525
X26.0Y-40.46
X26.0Y-43.0
X26.0Y-45.54
X26.0Y-51.445
X26.0Y-53.985
X26.0Y-56.525
X26.0Y-62.46
X26.0Y-65.0
X26.0Y-67.54
X26.0Y-73.445
X26.0Y-75.985
X26.0Y-78.525
X34.92Y-24.0
X37.46Y-24.0
X40.0Y-24.0
X45.39Y-38.255
X45.39Y-40.795
X45.39Y-43.335
X45.39Y-45.875
X45.39Y-48.415
X45.39Y-50.955
X45.39Y-53.495
X45.39Y-56.035
X45.39Y-58.575
X45.39Y-61.115
X45.39Y-63.655
X45.39Y-66.195
X45.39Y-68.735
X45.39Y-71.275
X45.39Y-73.815
X60.63Y-38.255
X60.63Y-40.795
X60.63Y-43.335
X60.63Y-45.875
X60.63Y-48.415
X60.63Y-50.955
X60.63Y-53.495
X60.63Y-56.035
X60.63Y-58.575
X60.63Y-61.115
X60.63Y-63.655
X60.63Y-66.195
X60.63Y-68.735
X60.63Y-71.275
X60.63Y-73.815
X70.38Y-37.0
X70.38Y-39.54
X72.92Y-37.0
X72.92Y-39.54
X75.0Y-48.445
X75.0Y-50.985
X75.0Y-53.525
X75.46Y-37.0
X75.46Y-39.54
X78.0Y-37.0
X78.0Y-39.54
X80.54Y-37.0
X80.54Y-39.54
X88.0Y-29.0
X88.0Y-31.54
X88.0Y-34.08
X88.0Y-40.46
X88.0Y-43.0
X88.0Y-45.54
X88.0Y-51.445
X88.0Y-53.985
X88.0Y-56.525
X88.0Y-62.475
X88.0Y-65.015
X88.0Y-67.555
X88.0Y-73.475
X88.0Y-76.015
X88.0Y-78.555
T5
X73.235Y-76.0
X78.235Y-76.0
M30
