%TF.GenerationSoftware,KiCad,Pcbnew,8.0.4*%
%TF.CreationDate,2025-01-16T20:27:34-05:00*%
%TF.ProjectId,eclipseControlPCB,65636c69-7073-4654-936f-6e74726f6c50,rev?*%
%TF.SameCoordinates,Original*%
%TF.FileFunction,Legend,Bot*%
%TF.FilePolarity,Positive*%
%FSLAX46Y46*%
G04 Gerber Fmt 4.6, Leading zero omitted, Abs format (unit mm)*
G04 Created by KiCad (PCBNEW 8.0.4) date 2025-01-16 20:27:34*
%MOMM*%
%LPD*%
G01*
G04 APERTURE LIST*
%ADD10C,0.150000*%
%ADD11C,0.120000*%
G04 APERTURE END LIST*
D10*
X82454819Y-37730476D02*
X83169104Y-37730476D01*
X83169104Y-37730476D02*
X83311961Y-37682857D01*
X83311961Y-37682857D02*
X83407200Y-37587619D01*
X83407200Y-37587619D02*
X83454819Y-37444762D01*
X83454819Y-37444762D02*
X83454819Y-37349524D01*
X83454819Y-38730476D02*
X83454819Y-38159048D01*
X83454819Y-38444762D02*
X82454819Y-38444762D01*
X82454819Y-38444762D02*
X82597676Y-38349524D01*
X82597676Y-38349524D02*
X82692914Y-38254286D01*
X82692914Y-38254286D02*
X82740533Y-38159048D01*
X82454819Y-39587619D02*
X82454819Y-39397143D01*
X82454819Y-39397143D02*
X82502438Y-39301905D01*
X82502438Y-39301905D02*
X82550057Y-39254286D01*
X82550057Y-39254286D02*
X82692914Y-39159048D01*
X82692914Y-39159048D02*
X82883390Y-39111429D01*
X82883390Y-39111429D02*
X83264342Y-39111429D01*
X83264342Y-39111429D02*
X83359580Y-39159048D01*
X83359580Y-39159048D02*
X83407200Y-39206667D01*
X83407200Y-39206667D02*
X83454819Y-39301905D01*
X83454819Y-39301905D02*
X83454819Y-39492381D01*
X83454819Y-39492381D02*
X83407200Y-39587619D01*
X83407200Y-39587619D02*
X83359580Y-39635238D01*
X83359580Y-39635238D02*
X83264342Y-39682857D01*
X83264342Y-39682857D02*
X83026247Y-39682857D01*
X83026247Y-39682857D02*
X82931009Y-39635238D01*
X82931009Y-39635238D02*
X82883390Y-39587619D01*
X82883390Y-39587619D02*
X82835771Y-39492381D01*
X82835771Y-39492381D02*
X82835771Y-39301905D01*
X82835771Y-39301905D02*
X82883390Y-39206667D01*
X82883390Y-39206667D02*
X82931009Y-39159048D01*
X82931009Y-39159048D02*
X83026247Y-39111429D01*
D11*
%TO.C,J16*%
X69050000Y-35670000D02*
X69050000Y-40870000D01*
X69050000Y-35670000D02*
X79270000Y-35670000D01*
X69050000Y-40870000D02*
X81870000Y-40870000D01*
X79270000Y-35670000D02*
X79270000Y-38270000D01*
X79270000Y-38270000D02*
X81870000Y-38270000D01*
X80540000Y-35670000D02*
X81870000Y-35670000D01*
X81870000Y-35670000D02*
X81870000Y-37000000D01*
X81870000Y-38270000D02*
X81870000Y-40870000D01*
%TD*%
M02*
